{"glyphs":{"0":{"ha":847,"x_min":157,"x_max":861,"o":"m 436 -18 q 227 89 297 -18 q 157 357 157 196 q 172 531 157 444 q 219 701 186 618 q 301 849 253 785 q 422 952 349 913 q 583 992 496 992 q 717 958 660 992 q 803 868 774 925 q 847 750 833 811 q 861 621 861 689 q 838 410 861 515 q 768 205 815 304 q 635 44 721 106 q 436 -18 549 -18 m 453 139 q 569 191 518 139 q 648 320 621 243 q 688 471 675 397 q 701 604 701 544 q 668 768 701 701 q 564 835 635 835 q 446 781 497 835 q 368 647 394 726 q 329 494 342 567 q 317 367 317 422 q 349 204 317 269 q 453 139 382 139 z "},"1":{"ha":503,"x_min":167,"x_max":515,"o":"m 182 0 l 313 739 l 167 739 l 189 864 q 389 972 338 864 l 515 972 l 344 0 l 182 0 z "},"2":{"ha":793,"x_min":76,"x_max":842,"o":"m 76 0 q 128 185 93 104 q 222 326 164 265 q 330 422 281 386 q 460 507 379 458 q 502 532 471 514 q 547 558 533 550 q 586 584 561 567 q 623 615 611 601 q 650 646 635 628 q 671 684 665 664 q 676 726 676 704 q 643 809 676 778 q 549 840 610 840 q 358 713 417 840 l 228 779 q 367 933 281 878 q 568 989 454 989 q 765 917 689 989 q 842 738 842 844 q 822 619 842 671 q 755 525 801 568 q 664 453 708 482 q 542 379 619 424 q 526 371 532 374 q 303 158 338 263 l 742 158 l 714 0 l 76 0 z "},"3":{"ha":778,"x_min":92,"x_max":804,"o":"m 419 -17 q 203 47 286 -17 q 92 211 119 110 l 244 269 q 419 136 285 136 q 544 183 492 136 q 596 306 596 229 q 560 395 596 361 q 456 429 525 429 l 372 429 l 399 582 l 479 582 q 592 625 546 582 q 638 729 638 668 q 606 807 638 776 q 521 838 574 838 q 356 731 414 838 l 221 786 q 351 933 268 878 q 539 989 433 989 q 729 926 654 989 q 804 760 804 863 q 758 608 804 674 q 632 508 713 543 q 728 423 696 482 q 761 297 761 364 q 663 72 761 160 q 419 -17 565 -17 z "},"4":{"ha":829,"x_min":60,"x_max":846,"o":"m 499 0 l 536 211 l 60 211 l 81 332 l 661 972 l 832 972 l 725 364 l 846 364 l 818 211 l 699 211 l 661 0 l 499 0 m 563 364 l 628 733 l 297 364 l 563 364 z "},"5":{"ha":794,"x_min":94,"x_max":829,"o":"m 410 -17 q 210 41 296 -17 q 94 185 124 99 l 238 253 q 426 139 299 139 q 571 192 511 139 q 631 336 631 244 q 591 447 631 406 q 483 489 551 489 q 318 411 393 489 l 185 479 l 307 972 l 829 972 l 803 815 l 425 815 l 364 597 q 528 642 435 642 q 724 563 650 642 q 797 351 797 483 q 690 83 797 182 q 410 -17 582 -17 z "},"6":{"ha":790,"x_min":118,"x_max":789,"o":"m 422 -17 q 197 72 276 -17 q 118 300 118 160 q 144 478 118 388 q 226 654 171 568 q 358 810 281 740 q 543 928 435 881 q 776 990 651 976 l 750 835 q 518 739 624 811 q 356 554 413 667 q 532 614 428 614 q 718 541 647 614 q 789 353 789 468 q 683 84 789 185 q 422 -17 576 -17 m 431 136 q 571 187 514 136 q 628 319 628 238 q 589 420 628 381 q 485 460 550 460 q 346 408 403 460 q 289 275 289 357 q 327 174 289 213 q 431 136 365 136 z "},"7":{"ha":688,"x_min":171,"x_max":818,"o":"m 208 0 q 596 817 294 471 l 171 817 l 197 972 l 818 972 l 794 832 q 517 433 621 661 q 381 0 414 204 l 208 0 z "},"8":{"ha":810,"x_min":121,"x_max":839,"o":"m 428 -17 q 206 64 292 -17 q 121 261 121 144 q 186 447 121 374 q 358 544 251 521 q 274 609 308 564 q 240 722 240 654 q 330 912 240 835 q 561 989 419 989 q 765 922 692 989 q 839 754 839 856 q 786 608 839 668 q 657 528 733 549 q 759 449 717 507 q 801 311 801 390 q 701 79 801 175 q 428 -17 600 -17 m 528 600 q 632 637 590 600 q 674 733 674 674 q 641 810 674 778 q 550 843 608 843 q 449 806 492 843 q 406 711 406 769 q 438 633 406 665 q 528 600 469 600 m 442 132 q 579 180 526 132 q 632 310 632 228 q 591 410 632 368 q 476 453 550 453 q 341 402 393 453 q 289 276 289 351 q 331 172 289 213 q 442 132 372 132 z "},"9":{"ha":790,"x_min":164,"x_max":842,"o":"m 206 -17 l 233 142 q 461 227 357 156 q 621 432 565 299 q 433 367 549 367 q 240 440 315 367 q 164 636 164 514 q 273 892 164 794 q 538 989 382 989 q 762 903 682 989 q 842 667 842 817 q 819 490 842 579 q 748 313 797 401 q 626 154 699 224 q 445 38 554 85 q 206 -17 336 -8 m 469 517 q 615 570 560 517 q 671 700 671 624 q 634 798 671 760 q 528 836 597 836 q 388 782 446 836 q 331 651 331 728 q 369 553 331 589 q 469 517 408 517 z "}," ":{"ha":307,"x_min":0,"x_max":0,"o":""},"!":{"ha":381,"x_min":101,"x_max":442,"o":"m 199 268 l 233 678 l 289 989 l 442 989 l 386 678 l 276 268 l 199 268 m 192 -18 q 126 8 151 -18 q 101 74 101 35 q 136 163 101 126 q 219 199 171 199 q 287 172 261 199 q 313 108 313 146 q 278 19 313 56 q 192 -18 243 -18 z "},"\"":{"ha":567,"x_min":190,"x_max":678,"o":"m 190 576 l 231 972 l 417 972 l 317 576 l 190 576 m 451 576 l 492 972 l 678 972 l 578 576 l 451 576 z "},"#":{"ha":918,"x_min":100,"x_max":993,"o":"m 165 0 l 249 254 l 100 254 l 146 393 l 292 393 l 361 601 l 215 601 l 258 739 l 404 739 l 482 972 l 615 972 l 540 739 l 707 739 l 783 972 l 919 972 l 844 739 l 993 739 l 949 601 l 803 601 l 733 393 l 879 393 l 835 254 l 689 254 l 607 0 l 471 0 l 553 254 l 385 254 l 303 0 l 165 0 m 429 393 l 597 393 l 665 601 l 497 601 l 429 393 z "},"$":{"ha":789,"x_min":111,"x_max":814,"o":"m 293 -131 l 315 -6 q 175 83 225 18 q 111 232 125 147 l 260 285 q 428 139 294 139 q 551 178 506 139 q 597 283 597 217 q 559 372 597 335 q 466 435 521 408 q 356 492 411 461 q 262 578 300 522 q 224 715 224 635 q 294 888 224 807 q 489 986 364 968 l 508 1092 l 661 1092 l 642 978 q 760 903 718 957 q 814 783 803 849 l 661 733 q 525 835 632 835 q 429 806 465 835 q 393 731 393 776 q 421 665 393 694 q 490 618 449 636 q 580 573 532 600 q 669 515 628 546 q 739 430 711 485 q 767 304 767 375 q 692 95 767 182 q 478 -14 617 8 l 457 -131 l 293 -131 z "},"%":{"ha":1131,"x_min":164,"x_max":1139,"o":"m 325 -17 l 164 -17 l 978 989 l 1139 989 l 325 -17 m 375 485 q 233 547 282 485 q 185 693 185 610 q 254 897 185 804 q 446 989 324 989 q 588 926 539 989 q 636 779 636 863 q 564 572 636 658 q 375 485 492 485 m 389 613 q 472 660 440 613 q 503 769 503 707 q 484 835 503 810 q 431 861 465 861 q 349 814 379 861 q 318 704 318 767 q 335 639 318 665 q 389 613 353 613 m 863 -17 q 720 47 769 -17 q 671 193 671 111 q 740 397 671 304 q 932 489 810 489 q 1074 426 1026 489 q 1122 279 1122 363 q 1051 71 1122 158 q 863 -17 979 -17 m 876 113 q 958 160 926 113 q 989 268 989 207 q 970 335 989 310 q 917 360 951 360 q 835 313 865 360 q 804 203 804 265 q 822 138 804 164 q 876 113 839 113 z "},"&":{"ha":926,"x_min":110,"x_max":901,"o":"m 704 0 l 643 100 q 346 -17 511 -17 q 174 48 238 -17 q 110 215 110 113 q 177 412 110 335 q 369 550 244 489 q 311 736 311 646 q 389 919 311 850 q 572 989 467 989 q 725 935 669 989 q 781 794 781 882 q 576 521 781 639 l 675 364 q 715 475 704 425 l 865 475 q 761 228 833 333 l 901 0 l 704 0 m 460 758 q 513 625 460 704 q 633 783 633 697 q 612 842 633 821 q 557 864 590 864 q 488 835 515 864 q 460 758 460 806 m 393 136 q 574 214 492 136 l 436 440 q 313 350 353 396 q 272 250 272 304 q 304 167 272 197 q 393 136 336 136 z "},"'":{"ha":306,"x_min":190,"x_max":417,"o":"m 231 972 l 417 972 l 317 576 l 190 576 l 231 972 z "},"(":{"ha":475,"x_min":143,"x_max":597,"o":"m 226 -181 q 167 -6 192 -117 q 143 222 143 106 q 439 989 143 681 l 597 989 q 533 915 565 956 q 457 801 501 875 q 379 646 413 726 q 322 454 346 565 q 297 229 297 343 q 324 -12 297 106 q 375 -181 350 -131 l 226 -181 z "},")":{"ha":475,"x_min":24,"x_max":474,"o":"m 24 -181 q 85 -107 54 -147 q 161 8 117 -67 q 238 161 206 82 q 294 351 271 240 q 318 574 318 461 q 292 819 318 699 q 239 989 265 940 l 388 989 q 449 813 424 926 q 474 582 474 700 q 182 -181 474 126 l 24 -181 z "},"*":{"ha":718,"x_min":186,"x_max":786,"o":"m 479 532 l 465 608 l 431 532 l 315 393 l 208 486 l 324 615 l 399 658 l 333 661 l 186 715 l 244 850 l 390 797 l 443 757 l 432 829 l 463 997 l 610 997 l 579 833 l 542 757 l 608 803 l 758 849 l 786 711 l 628 661 l 549 658 l 601 618 l 682 474 l 556 392 l 479 532 z "},"+":{"ha":840,"x_min":186,"x_max":814,"o":"m 581 399 l 581 150 l 419 150 l 419 399 l 186 399 l 186 554 l 419 554 l 419 803 l 581 803 l 581 554 l 814 554 l 814 399 l 581 399 z "},",":{"ha":313,"x_min":28,"x_max":283,"o":"m 81 -196 l 28 -151 q 86 -90 53 -131 q 135 -14 119 -50 q 87 16 106 -7 q 68 71 68 39 q 103 162 68 126 q 186 197 139 197 q 256 170 229 197 q 283 96 283 143 q 224 -67 283 13 q 81 -196 165 -147 z "},"-":{"ha":538,"x_min":160,"x_max":524,"o":"m 160 335 l 186 489 l 524 489 l 496 335 l 160 335 z "},".":{"ha":306,"x_min":65,"x_max":276,"o":"m 156 -18 q 90 8 115 -18 q 65 74 65 35 q 100 163 65 126 q 182 199 135 199 q 251 172 225 199 q 276 108 276 146 q 242 19 276 56 q 156 -18 207 -18 z "},"/":{"ha":674,"x_min":-51,"x_max":839,"o":"m -51 -181 l 679 989 l 839 989 l 108 -181 l -51 -181 z "},":":{"ha":306,"x_min":65,"x_max":360,"o":"m 238 458 q 172 485 197 458 q 147 549 147 511 q 183 638 147 601 q 265 674 218 674 q 334 648 308 674 q 360 583 360 622 q 324 494 360 531 q 238 458 289 458 m 156 -18 q 90 8 115 -18 q 65 74 65 35 q 100 163 65 126 q 182 199 135 199 q 251 172 225 199 q 276 108 276 146 q 242 19 276 56 q 156 -18 207 -18 z "},";":{"ha":306,"x_min":24,"x_max":360,"o":"m 238 458 q 172 485 197 458 q 147 549 147 511 q 183 638 147 601 q 265 674 218 674 q 334 648 308 674 q 360 583 360 622 q 324 494 360 531 q 238 458 289 458 m 76 -196 l 24 -151 q 81 -91 49 -131 q 128 -14 114 -51 q 82 16 100 -7 q 64 71 64 39 q 99 162 64 126 q 182 197 135 197 q 252 170 225 197 q 279 96 279 143 q 220 -67 279 13 q 76 -196 161 -147 z "},"<":{"ha":840,"x_min":196,"x_max":824,"o":"m 824 144 l 196 410 l 196 543 l 824 808 l 824 644 l 414 476 l 824 308 l 824 144 z "},"=":{"ha":840,"x_min":186,"x_max":814,"o":"m 186 542 l 186 697 l 814 697 l 814 542 l 186 542 m 186 256 l 186 410 l 814 410 l 814 256 l 186 256 z "},">":{"ha":840,"x_min":185,"x_max":813,"o":"m 813 410 l 185 144 l 185 308 l 594 476 l 185 644 l 185 808 l 813 543 l 813 410 z "},"?":{"ha":671,"x_min":143,"x_max":756,"o":"m 293 263 l 300 304 q 351 437 315 379 q 428 528 388 494 q 508 590 469 561 q 572 654 547 619 q 597 732 597 689 q 569 806 597 776 q 485 836 540 836 q 361 789 411 836 q 297 658 311 742 l 143 658 q 271 901 169 813 q 511 989 372 989 q 690 922 624 989 q 756 753 756 854 q 728 631 756 683 q 660 544 701 578 q 577 478 619 510 q 499 403 535 447 q 454 303 464 358 l 447 263 l 293 263 m 326 -18 q 260 8 286 -18 q 235 74 235 35 q 270 163 235 126 q 353 199 306 199 q 422 172 396 199 q 447 108 447 146 q 413 19 447 56 q 326 -18 378 -18 z "},"@":{"ha":1094,"x_min":142,"x_max":1129,"o":"m 567 -17 q 254 93 367 -17 q 142 393 142 203 q 311 814 142 636 q 736 992 481 992 q 1024 891 918 992 q 1129 638 1129 790 q 1032 341 1129 461 q 800 221 935 221 q 726 241 756 221 q 694 301 697 261 q 539 217 633 217 q 424 269 467 217 q 382 410 382 321 q 470 642 382 543 q 679 742 558 742 q 790 663 772 742 l 811 724 l 935 724 l 842 458 q 810 360 810 372 q 836 333 810 333 q 955 419 900 333 q 1010 622 1010 504 q 936 798 1010 731 q 728 865 863 865 q 401 731 529 865 q 272 401 272 597 q 351 188 272 269 q 578 107 431 107 q 767 131 669 107 l 710 -1 q 567 -17 640 -17 m 576 340 q 688 402 640 340 q 735 535 735 464 q 717 597 735 574 q 667 619 699 619 q 556 560 603 619 q 510 426 510 501 q 528 365 510 389 q 576 340 546 340 z "},"A":{"ha":935,"x_min":42,"x_max":897,"o":"m 42 0 l 561 972 l 718 972 l 897 0 l 729 0 l 692 214 l 331 214 l 218 0 l 42 0 m 407 364 l 667 364 l 615 664 q 609 702 614 669 q 603 744 604 735 q 565 667 585 700 l 407 364 z "},"B":{"ha":897,"x_min":104,"x_max":922,"o":"m 275 972 l 660 972 q 858 908 794 972 q 922 753 922 844 q 878 601 922 667 q 761 504 835 535 q 858 426 824 481 q 892 301 892 372 q 801 87 892 174 q 526 0 710 0 l 104 0 l 275 972 m 571 579 q 710 617 663 579 q 758 715 758 656 q 731 789 758 758 q 640 819 704 819 l 413 819 l 371 579 l 571 579 m 528 153 q 669 195 621 153 q 718 301 718 238 q 575 428 718 428 l 344 428 l 296 153 l 528 153 z "},"C":{"ha":850,"x_min":150,"x_max":929,"o":"m 485 -17 q 235 100 321 -17 q 150 392 150 217 q 206 682 150 547 q 374 902 263 817 q 629 988 485 988 q 824 928 749 988 q 929 785 899 869 l 783 719 q 619 831 731 831 q 456 762 526 831 q 352 598 385 693 q 319 403 319 503 q 364 221 319 297 q 497 144 408 144 q 700 267 624 144 l 843 204 q 485 -17 711 -17 z "},"D":{"ha":928,"x_min":104,"x_max":947,"o":"m 275 972 l 563 972 q 850 848 753 972 q 947 539 947 724 q 931 389 947 463 q 874 244 914 315 q 776 119 833 172 q 628 33 718 65 q 429 0 539 0 l 104 0 l 275 972 m 433 156 q 586 190 519 156 q 692 280 653 224 q 751 400 731 336 q 771 532 771 464 q 714 738 771 658 q 544 817 657 817 l 410 817 l 293 156 l 433 156 z "},"E":{"ha":803,"x_min":104,"x_max":886,"o":"m 104 0 l 275 972 l 886 972 l 860 817 l 415 817 l 374 579 l 642 579 l 614 425 l 346 425 l 299 156 l 772 156 l 744 0 l 104 0 z "},"F":{"ha":747,"x_min":104,"x_max":882,"o":"m 104 0 l 275 972 l 882 972 l 856 817 l 415 817 l 374 583 l 656 583 l 626 421 l 346 421 l 271 0 l 104 0 z "},"G":{"ha":904,"x_min":150,"x_max":939,"o":"m 499 -17 q 236 103 322 -17 q 150 403 150 222 q 181 621 150 517 q 272 808 213 725 q 423 940 331 890 q 629 989 515 989 q 939 792 846 989 l 792 713 q 614 832 732 832 q 395 703 476 832 q 314 407 314 575 q 361 215 314 289 q 507 140 408 140 q 644 188 588 140 q 719 317 700 236 l 725 344 l 554 344 l 582 492 l 928 492 l 918 440 q 769 91 881 199 q 499 -17 658 -17 z "},"H":{"ha":943,"x_min":104,"x_max":1011,"o":"m 104 0 l 275 972 l 442 972 l 372 579 l 775 579 l 844 972 l 1011 972 l 840 0 l 674 0 l 747 424 l 346 424 l 271 0 l 104 0 z "},"I":{"ha":374,"x_min":104,"x_max":442,"o":"m 104 0 l 275 972 l 442 972 l 271 0 l 104 0 z "},"J":{"ha":732,"x_min":57,"x_max":800,"o":"m 354 -17 q 162 38 239 -17 q 57 186 85 92 l 203 250 q 349 142 246 142 q 518 322 486 142 l 632 972 l 800 972 l 679 289 q 626 132 663 196 q 540 38 589 68 q 446 -5 490 7 q 354 -17 401 -17 z "},"K":{"ha":918,"x_min":104,"x_max":992,"o":"m 693 0 l 526 485 l 318 265 l 271 0 l 104 0 l 275 972 l 442 972 l 363 521 l 792 972 l 992 972 l 650 614 l 869 0 l 693 0 z "},"L":{"ha":735,"x_min":104,"x_max":747,"o":"m 104 0 l 275 972 l 442 972 l 299 157 l 747 157 l 719 0 l 104 0 z "},"M":{"ha":1067,"x_min":104,"x_max":1135,"o":"m 528 -17 l 388 542 q 374 611 376 593 q 364 542 369 567 l 269 0 l 104 0 l 275 972 l 442 972 l 569 426 q 586 343 581 382 q 624 413 600 374 l 971 972 l 1135 972 l 964 0 l 799 0 l 893 542 l 908 614 q 871 543 894 583 l 528 -17 z "},"N":{"ha":942,"x_min":104,"x_max":1010,"o":"m 104 0 l 275 972 l 429 972 l 704 365 q 731 296 726 318 q 739 365 733 329 l 846 972 l 1010 972 l 839 0 l 689 0 l 414 599 q 383 678 399 631 q 374 597 383 671 l 268 0 l 104 0 z "},"O":{"ha":958,"x_min":150,"x_max":979,"o":"m 510 -17 q 344 18 415 -17 q 231 113 272 53 q 170 246 190 174 q 150 403 150 318 q 181 619 150 515 q 271 807 213 724 q 422 940 329 890 q 626 989 514 989 q 826 928 743 989 q 944 776 908 867 q 979 575 979 685 q 925 286 979 419 q 762 68 871 153 q 510 -17 653 -17 m 510 140 q 732 269 649 140 q 815 575 815 397 q 766 756 815 681 q 617 832 717 832 q 453 766 524 832 q 348 604 382 700 q 314 403 314 508 q 362 217 314 293 q 510 140 410 140 z "},"P":{"ha":847,"x_min":104,"x_max":933,"o":"m 104 0 l 275 972 l 664 972 q 789 949 735 972 q 874 885 843 925 q 919 801 904 846 q 933 706 933 756 q 840 468 933 567 q 578 369 746 369 l 336 369 l 271 0 l 104 0 m 594 524 q 722 575 679 524 q 765 690 765 626 q 647 818 765 818 l 415 818 l 363 524 l 594 524 z "},"Q":{"ha":958,"x_min":150,"x_max":979,"o":"m 688 -111 l 633 3 q 510 -17 575 -17 q 344 18 415 -17 q 231 113 272 53 q 170 246 190 174 q 150 403 150 318 q 181 619 150 515 q 271 807 213 724 q 422 940 329 890 q 626 989 514 989 q 826 928 743 989 q 944 776 908 867 q 979 575 979 685 q 924 288 979 422 q 769 74 869 154 l 824 -40 l 688 -111 m 510 140 q 564 150 535 140 l 511 264 l 650 332 l 699 226 q 785 380 754 288 q 815 575 815 472 q 766 756 815 681 q 617 832 717 832 q 453 766 524 832 q 348 604 382 700 q 314 403 314 508 q 362 217 314 293 q 510 140 410 140 z "},"R":{"ha":896,"x_min":104,"x_max":953,"o":"m 953 694 q 940 604 953 649 q 900 516 928 560 q 822 439 872 472 q 706 392 772 406 l 817 0 l 639 0 l 532 382 l 338 382 l 271 0 l 104 0 l 275 972 l 672 972 q 885 891 818 972 q 953 694 953 810 m 613 536 q 746 582 707 536 q 785 689 785 628 q 753 781 785 744 q 654 817 722 817 l 414 817 l 365 536 l 613 536 z "},"S":{"ha":806,"x_min":106,"x_max":826,"o":"m 676 732 q 625 808 663 778 q 528 838 588 838 q 418 806 458 838 q 378 725 378 774 q 420 652 378 683 q 522 595 463 621 q 642 537 582 569 q 745 442 703 504 q 788 292 788 379 q 687 67 788 150 q 422 -17 586 -17 q 217 52 299 -17 q 106 233 136 121 l 258 289 q 444 140 308 140 q 567 176 521 140 q 614 276 614 213 q 572 365 614 328 q 472 427 531 401 q 353 484 413 453 q 251 574 293 515 q 210 715 210 632 q 299 912 210 835 q 539 989 389 989 q 736 928 664 989 q 826 783 808 868 l 676 732 z "},"T":{"ha":789,"x_min":196,"x_max":910,"o":"m 622 815 l 478 0 l 311 0 l 456 815 l 196 815 l 222 972 l 910 972 l 883 815 l 622 815 z "},"U":{"ha":933,"x_min":161,"x_max":1007,"o":"m 485 -17 q 251 60 342 -17 q 161 286 161 136 q 175 422 161 343 l 274 972 l 439 972 l 338 394 q 328 301 328 332 q 496 143 328 143 q 653 194 590 143 q 736 369 715 244 l 843 972 l 1007 972 l 900 357 q 759 67 864 150 q 485 -17 654 -17 z "},"V":{"ha":890,"x_min":215,"x_max":1022,"o":"m 372 0 l 215 972 l 386 972 l 478 350 q 488 233 488 288 q 532 342 506 290 l 843 972 l 1022 972 l 535 0 l 372 0 z "},"W":{"ha":1119,"x_min":217,"x_max":1247,"o":"m 238 0 l 217 972 l 382 972 l 383 388 q 383 347 383 372 q 382 317 382 322 q 410 389 383 321 l 656 972 l 794 972 l 838 386 q 840 317 840 342 q 864 385 849 346 l 1075 972 l 1247 972 l 881 0 l 729 0 l 679 582 q 676 674 676 618 q 643 586 668 644 l 389 0 l 238 0 z "},"X":{"ha":872,"x_min":43,"x_max":979,"o":"m 43 0 l 431 511 l 240 972 l 422 972 l 546 663 l 779 972 l 979 972 l 617 496 l 822 0 l 640 0 l 500 343 l 243 0 l 43 0 z "},"Y":{"ha":890,"x_min":200,"x_max":1029,"o":"m 361 0 l 431 392 l 200 972 l 372 972 l 533 550 l 844 972 l 1029 972 l 594 386 l 526 0 l 361 0 z "},"Z":{"ha":849,"x_min":65,"x_max":946,"o":"m 65 0 l 86 125 l 699 818 l 239 818 l 265 972 l 946 972 l 924 847 l 311 156 l 803 156 l 775 0 l 65 0 z "},"[":{"ha":506,"x_min":100,"x_max":628,"o":"m 100 -181 l 307 989 l 628 989 l 601 838 l 436 838 l 283 -29 l 449 -29 l 421 -181 l 100 -181 z "},"\\":{"ha":674,"x_min":156,"x_max":628,"o":"m 472 -181 l 156 989 l 310 989 l 628 -181 l 472 -181 z "},"]":{"ha":506,"x_min":22,"x_max":551,"o":"m 22 -181 l 49 -29 l 214 -29 l 367 838 l 201 838 l 229 989 l 551 989 l 344 -181 l 22 -181 z "},"^":{"ha":840,"x_min":175,"x_max":836,"o":"m 679 481 l 521 783 l 332 481 l 175 481 l 465 989 l 589 989 l 836 481 l 679 481 z "},"_":{"ha":667,"x_min":-50,"x_max":653,"o":"m -50 -246 l -28 -115 l 653 -115 l 631 -246 l -50 -246 z "},"`":{"ha":576,"x_min":263,"x_max":618,"o":"m 467 800 l 263 1017 l 467 1017 l 618 800 l 467 800 z "},"a":{"ha":726,"x_min":90,"x_max":728,"o":"m 488 0 l 499 57 q 306 -17 425 -17 q 151 40 213 -17 q 90 190 90 96 q 177 385 90 315 q 400 454 264 454 q 560 410 489 454 l 567 446 q 572 494 572 474 q 464 586 572 586 q 240 514 354 586 l 218 644 q 488 726 350 726 q 565 717 526 726 q 642 685 603 707 q 704 619 681 663 q 728 514 728 575 q 718 435 728 489 l 643 0 l 488 0 m 347 124 q 521 193 443 124 l 538 285 q 397 318 471 318 q 290 290 333 318 q 246 204 246 261 q 273 146 246 168 q 347 124 300 124 z "},"b":{"ha":753,"x_min":100,"x_max":769,"o":"m 424 -17 q 327 6 369 -17 q 265 63 285 29 l 254 0 l 100 0 l 265 947 l 435 1003 l 374 657 q 538 726 438 726 q 703 645 638 726 q 769 426 769 564 q 669 101 769 218 q 424 -17 568 -17 m 411 136 q 556 215 503 136 q 610 413 610 294 q 576 532 610 489 q 482 575 542 575 q 405 554 443 575 q 346 506 367 533 l 293 203 q 411 136 329 136 z "},"c":{"ha":699,"x_min":115,"x_max":729,"o":"m 382 -17 q 186 68 257 -17 q 115 292 115 153 q 216 602 115 478 q 481 726 317 726 q 643 674 576 726 q 729 533 710 621 l 575 482 q 461 575 554 575 q 328 496 379 575 q 276 303 276 417 q 306 182 276 228 q 392 136 335 136 q 536 240 490 136 l 676 192 q 560 39 639 94 q 382 -17 482 -17 z "},"d":{"ha":754,"x_min":115,"x_max":836,"o":"m 344 -17 q 177 65 239 -17 q 115 279 115 146 q 218 605 115 483 q 469 726 321 726 q 617 658 569 726 l 668 947 l 836 1003 l 660 0 l 504 0 l 515 63 q 344 -17 451 -17 m 396 136 q 539 207 483 136 l 590 504 q 475 575 560 575 q 328 497 382 575 q 275 297 275 418 q 306 180 275 224 q 396 136 336 136 z "},"e":{"ha":726,"x_min":106,"x_max":749,"o":"m 389 -17 q 183 63 260 -17 q 106 285 106 143 q 210 596 106 465 q 486 726 315 726 q 680 652 611 726 q 749 447 749 578 q 722 293 749 369 l 267 293 l 267 278 q 307 166 267 207 q 408 125 347 125 q 569 194 497 125 l 649 89 q 389 -17 540 -17 m 290 429 l 594 429 q 594 471 597 453 q 469 586 581 586 q 354 544 401 586 q 290 429 307 501 z "},"f":{"ha":460,"x_min":135,"x_max":610,"o":"m 393 569 l 292 0 l 135 0 l 235 569 l 136 569 l 161 710 l 260 710 l 279 824 q 350 953 296 915 q 474 992 404 992 q 610 954 542 992 l 586 824 q 493 847 533 847 q 432 790 443 847 l 417 710 l 561 710 l 536 569 l 393 569 z "},"g":{"ha":754,"x_min":115,"x_max":786,"o":"m 224 -151 q 422 -104 357 -143 q 501 7 486 -65 l 510 56 q 344 -17 450 -17 q 177 63 239 -17 q 115 275 115 143 q 216 600 115 474 q 465 726 317 726 q 615 654 565 726 l 625 710 l 786 710 l 664 26 q 541 -204 635 -137 q 278 -283 447 -271 l 224 -151 m 394 136 q 536 208 482 136 l 589 504 q 544 553 575 532 q 468 575 513 575 q 326 495 378 575 q 274 296 274 415 q 305 181 274 226 q 394 136 336 136 z "},"h":{"ha":768,"x_min":100,"x_max":756,"o":"m 100 0 l 265 947 l 435 1003 l 369 636 q 550 726 440 726 q 703 667 651 726 q 756 507 756 607 q 744 403 756 472 l 672 0 l 515 0 l 588 403 q 594 469 594 451 q 494 578 594 578 q 391 538 436 578 q 331 415 346 499 l 257 0 l 100 0 z "},"i":{"ha":356,"x_min":100,"x_max":428,"o":"m 322 810 q 267 832 289 810 q 244 888 244 854 q 276 965 244 932 q 347 997 308 997 q 406 975 383 997 q 428 919 428 953 q 396 842 428 875 q 322 810 364 810 m 100 0 l 225 710 l 383 710 l 258 0 l 100 0 z "},"j":{"ha":358,"x_min":-107,"x_max":428,"o":"m 321 810 q 265 832 288 810 q 243 888 243 854 q 275 965 243 932 q 347 997 307 997 q 406 975 383 997 q 428 919 428 953 q 395 842 428 875 q 321 810 363 810 m -53 -306 l -107 -174 q 40 -122 -6 -158 q 99 -11 86 -86 l 225 710 l 383 710 l 258 1 q 167 -208 233 -139 q -53 -306 100 -278 z "},"k":{"ha":726,"x_min":100,"x_max":775,"o":"m 532 497 l 693 0 l 525 0 l 404 386 l 310 301 l 257 0 l 100 0 l 265 947 l 435 1003 l 347 507 l 572 710 l 775 710 l 532 497 z "},"l":{"ha":367,"x_min":101,"x_max":436,"o":"m 101 0 l 268 947 l 436 1003 l 258 0 l 101 0 z "},"m":{"ha":1157,"x_min":100,"x_max":1144,"o":"m 100 0 l 225 710 l 379 710 l 368 643 q 554 726 443 726 q 651 698 608 726 q 713 621 693 669 q 936 726 799 726 q 1081 674 1017 726 q 1144 515 1144 621 q 1139 453 1144 482 l 1058 0 l 897 0 l 972 425 q 976 469 976 450 q 948 551 976 526 q 883 576 919 576 q 792 540 838 576 q 735 426 747 504 l 660 0 l 497 0 l 572 425 q 576 469 576 450 q 549 551 576 526 q 483 576 521 576 q 392 540 438 576 q 332 426 346 504 l 257 0 l 100 0 z "},"n":{"ha":768,"x_min":100,"x_max":756,"o":"m 100 0 l 225 710 l 383 710 l 371 638 q 549 726 442 726 q 702 665 649 726 q 756 503 756 604 q 744 403 756 454 l 674 0 l 515 0 l 586 401 q 593 468 593 433 q 493 578 593 578 q 390 535 438 578 q 331 414 343 492 l 257 0 l 100 0 z "},"o":{"ha":743,"x_min":115,"x_max":753,"o":"m 389 -17 q 184 64 253 -17 q 115 289 115 144 q 217 600 115 474 q 486 726 319 726 q 683 643 613 726 q 753 428 753 560 q 652 110 753 238 q 389 -17 551 -17 m 400 136 q 540 215 486 136 q 594 404 594 293 q 563 529 594 483 q 467 575 531 575 q 326 496 381 575 q 272 308 272 417 q 400 136 272 136 z "},"p":{"ha":756,"x_min":49,"x_max":768,"o":"m 425 -17 q 267 57 319 -17 l 218 -224 l 49 -279 l 224 710 l 382 710 l 371 651 q 543 726 439 726 q 705 646 642 726 q 768 431 768 565 q 666 104 768 225 q 425 -17 564 -17 m 417 136 q 557 213 504 136 q 610 413 610 289 q 579 531 610 488 q 488 575 549 575 q 406 553 446 575 q 343 499 365 532 l 293 207 q 417 136 328 136 z "},"q":{"ha":754,"x_min":114,"x_max":785,"o":"m 338 -17 q 176 65 238 -17 q 114 285 114 147 q 216 606 114 485 q 463 726 318 726 q 617 649 574 726 l 626 710 l 785 710 l 621 -224 l 451 -278 l 511 57 q 338 -17 440 -17 m 396 136 q 538 207 479 136 l 589 503 q 547 555 578 535 q 478 575 517 575 q 332 495 390 575 q 274 297 274 415 q 305 178 274 221 q 396 136 336 136 z "},"r":{"ha":549,"x_min":96,"x_max":639,"o":"m 96 0 l 221 710 l 379 710 l 365 635 q 526 728 428 728 q 639 679 590 728 l 592 531 q 488 571 546 571 q 388 530 435 571 q 324 397 340 489 l 254 0 l 96 0 z "},"s":{"ha":639,"x_min":76,"x_max":663,"o":"m 333 -17 q 178 19 249 -17 q 76 113 108 54 l 192 201 q 349 119 254 119 q 429 140 396 119 q 463 197 463 160 q 431 250 463 226 q 355 294 400 274 q 265 340 310 315 q 188 408 219 365 q 157 508 157 451 q 233 667 157 608 q 428 726 308 726 q 569 693 507 726 q 663 614 631 660 l 544 526 q 413 593 496 593 q 338 573 367 593 q 310 519 310 553 q 342 473 310 494 q 419 431 374 451 q 510 384 464 410 q 588 314 556 358 q 619 211 619 269 q 542 44 619 106 q 333 -17 465 -17 z "},"t":{"ha":506,"x_min":124,"x_max":572,"o":"m 303 -17 q 200 20 238 -17 q 163 117 163 57 q 172 208 163 161 l 235 569 l 124 569 l 149 710 l 260 710 l 301 947 l 468 1003 l 417 710 l 572 710 l 549 569 l 393 569 l 332 224 q 324 168 324 183 q 375 124 324 124 q 482 153 419 124 l 449 14 q 303 -17 388 -17 z "},"u":{"ha":768,"x_min":131,"x_max":797,"o":"m 515 0 l 526 67 q 328 -17 451 -17 q 188 40 244 -17 q 131 204 131 97 q 138 283 131 235 l 213 710 l 372 710 l 300 308 q 293 242 293 265 q 319 163 293 190 q 393 136 346 136 q 504 172 457 136 q 565 286 551 208 l 640 710 l 797 710 l 672 0 l 515 0 z "},"v":{"ha":717,"x_min":158,"x_max":815,"o":"m 285 0 l 158 710 l 317 710 l 388 274 q 394 207 394 218 q 410 239 399 215 q 426 274 421 263 l 650 710 l 815 710 l 446 0 l 285 0 z "},"w":{"ha":976,"x_min":163,"x_max":1064,"o":"m 229 0 l 163 710 l 314 710 l 336 317 q 338 233 338 290 q 371 317 349 267 l 539 710 l 682 710 l 717 317 q 721 233 721 275 q 735 272 725 243 q 751 317 746 301 l 908 710 l 1064 710 l 764 0 l 621 0 l 579 385 q 575 478 575 419 q 538 383 560 432 l 371 0 l 229 0 z "},"x":{"ha":749,"x_min":43,"x_max":814,"o":"m 43 0 l 349 371 l 182 710 l 354 710 l 456 500 l 629 710 l 814 710 l 525 360 l 701 0 l 531 0 l 418 232 l 228 0 l 43 0 z "},"y":{"ha":731,"x_min":133,"x_max":836,"o":"m 133 -269 l 288 17 l 156 710 l 314 710 l 392 274 q 401 213 399 235 q 431 274 407 229 l 665 710 l 836 710 l 306 -269 l 133 -269 z "},"z":{"ha":693,"x_min":71,"x_max":743,"o":"m 71 0 l 92 121 l 508 567 l 196 567 l 221 710 l 743 710 l 722 592 l 304 143 l 642 143 l 617 0 l 71 0 z "},"{":{"ha":496,"x_min":115,"x_max":621,"o":"m 414 -181 q 238 -110 303 -172 q 174 71 174 -47 q 182 160 174 111 l 194 229 q 197 263 197 251 q 147 333 197 333 l 115 333 l 140 476 l 172 476 q 225 504 203 476 q 256 579 247 532 l 276 703 q 390 913 300 838 q 621 989 479 989 l 594 843 q 428 689 456 836 l 410 586 q 349 443 390 478 q 236 404 308 408 l 235 400 q 350 267 350 389 q 344 210 350 254 l 326 113 q 324 95 326 110 q 322 74 322 81 q 439 -39 322 -33 l 414 -181 z "},"|":{"ha":381,"x_min":194,"x_max":357,"o":"m 194 -525 l 194 1475 l 357 1475 l 357 -525 l 194 -525 z "},"}":{"ha":496,"x_min":18,"x_max":524,"o":"m 18 -181 l 44 -36 q 210 121 183 -31 l 226 218 q 287 362 244 317 q 408 407 329 407 l 410 413 q 292 556 292 435 q 292 569 292 561 q 294 585 293 576 q 296 600 296 594 l 311 689 q 317 731 317 717 q 199 847 317 842 l 225 989 q 405 924 342 985 q 468 747 468 864 q 458 658 468 714 l 446 581 q 442 533 442 560 q 493 475 442 475 l 524 475 l 497 333 l 471 333 q 385 229 401 333 l 360 93 q 249 -110 335 -39 q 18 -181 164 -181 z "},"~":{"ha":840,"x_min":189,"x_max":821,"o":"m 631 360 q 490 399 569 360 q 379 438 411 438 q 304 360 315 438 l 189 360 q 240 526 192 460 q 379 593 288 593 q 519 554 440 593 q 631 515 597 515 q 706 593 694 515 l 821 593 q 771 426 818 492 q 631 360 724 360 z "}," ":{"ha":307,"x_min":0,"x_max":0,"o":""},"¡":{"ha":381,"x_min":65,"x_max":406,"o":"m 288 513 q 219 538 244 513 q 193 603 193 564 q 228 692 193 656 q 314 728 263 728 q 380 701 354 728 q 406 638 406 675 q 370 549 406 585 q 288 513 335 513 m 65 -278 l 119 32 l 229 442 l 307 442 l 272 32 l 218 -278 l 65 -278 z "},"¢":{"ha":707,"x_min":142,"x_max":757,"o":"m 278 -17 l 304 131 q 184 236 226 160 q 142 419 142 313 q 220 698 142 581 q 431 847 299 815 l 456 989 l 604 989 l 578 849 q 695 784 649 832 q 757 663 742 736 l 601 611 q 492 703 582 703 q 355 626 407 703 q 303 433 303 550 q 333 314 303 360 q 421 268 364 268 q 560 372 517 268 l 700 325 q 601 183 667 236 q 450 118 536 129 l 426 -17 l 278 -17 z "},"£":{"ha":792,"x_min":106,"x_max":899,"o":"m 106 0 l 133 157 q 234 250 194 183 q 285 385 274 317 l 168 385 l 194 529 l 279 529 q 272 562 278 538 q 263 613 267 586 q 258 664 258 639 q 352 894 258 800 q 626 989 446 989 q 899 889 786 989 l 815 742 q 603 836 725 836 q 465 790 510 836 q 419 675 419 743 q 431 599 419 651 q 446 529 443 547 l 671 529 l 644 385 l 447 385 q 318 156 426 260 l 778 156 l 751 0 l 106 0 z "},"¤":{"ha":851,"x_min":82,"x_max":932,"o":"m 447 118 q 282 165 350 118 l 175 69 l 82 189 l 196 289 q 182 392 182 329 q 258 638 182 525 l 179 739 l 310 854 l 385 760 q 568 807 472 807 q 731 760 668 807 l 838 854 l 932 735 l 821 636 q 832 528 832 589 q 756 285 832 393 l 836 185 l 704 69 l 628 167 q 447 118 542 118 m 474 274 q 616 339 558 274 q 674 500 674 404 q 638 609 674 567 q 540 651 603 651 q 399 586 457 651 q 342 425 342 521 q 378 316 342 358 q 474 274 414 274 z "},"¥":{"ha":785,"x_min":149,"x_max":935,"o":"m 568 465 l 738 465 l 715 343 l 529 343 l 514 253 l 699 253 l 678 129 l 493 129 l 469 0 l 314 0 l 338 129 l 149 129 l 171 253 l 358 253 l 374 343 l 186 343 l 208 465 l 381 465 l 190 972 l 363 972 l 494 600 l 754 972 l 935 972 l 568 465 z "},"¦":{"ha":381,"x_min":200,"x_max":363,"o":"m 200 508 l 200 1146 l 363 1146 l 363 508 l 200 508 m 200 -312 l 200 325 l 363 325 l 363 -312 l 200 -312 z "},"§":{"ha":701,"x_min":60,"x_max":758,"o":"m 346 -167 q 172 -126 247 -167 q 60 -15 97 -85 l 193 72 q 353 -14 251 -14 q 488 81 488 -14 q 464 128 488 104 q 417 165 440 151 q 339 204 393 178 q 314 217 322 213 q 253 249 276 235 q 204 285 231 263 q 165 337 178 307 q 153 403 153 367 q 275 586 153 522 q 211 738 211 640 q 296 919 211 850 q 507 989 381 989 q 660 955 594 989 q 758 867 726 921 l 628 772 q 494 835 581 835 q 408 813 440 835 q 376 754 376 792 q 415 698 376 724 q 533 638 454 672 q 663 558 617 601 q 708 438 708 514 q 604 249 708 311 q 658 100 658 190 q 574 -91 658 -15 q 346 -167 490 -167 m 496 324 q 544 396 544 346 q 507 456 544 431 q 394 510 469 481 q 321 442 321 496 q 331 410 321 424 q 374 379 342 396 q 423 354 406 363 q 496 324 440 346 z "},"¨":{"ha":576,"x_min":271,"x_max":699,"o":"m 347 815 q 292 838 314 815 q 271 893 271 860 q 302 968 271 936 q 374 1000 333 1000 q 431 978 410 1000 q 451 924 451 957 q 420 847 451 879 q 347 815 389 815 m 594 815 q 538 838 560 815 q 517 893 517 860 q 548 969 517 938 q 621 1000 579 1000 q 677 978 656 1000 q 699 924 699 957 q 666 848 699 881 q 594 815 633 815 z "},"©":{"ha":1125,"x_min":140,"x_max":1146,"o":"m 1001 128 q 929 56 1001 128 q 643 -17 857 -17 q 285 128 429 -17 q 140 486 140 272 q 285 844 140 700 q 643 989 429 989 q 1001 844 857 989 q 1146 486 1146 700 q 1001 128 1146 272 m 643 92 q 919 205 810 92 q 1029 486 1029 318 q 919 768 1029 656 q 643 881 810 881 q 365 768 475 881 q 256 486 256 656 q 365 205 256 318 q 643 92 475 92 m 647 186 q 458 272 519 186 q 396 488 396 357 q 460 701 396 613 q 650 790 524 790 q 860 656 800 790 l 743 601 q 647 667 710 667 q 557 615 585 667 q 529 488 529 563 q 559 360 529 411 q 649 310 589 310 q 746 378 719 310 l 861 336 q 647 186 800 186 z "},"ª":{"ha":585,"x_min":151,"x_max":654,"o":"m 454 393 l 461 435 q 319 379 406 379 q 200 424 249 379 q 151 549 151 469 q 222 711 151 654 q 388 768 293 768 q 515 739 465 768 l 519 764 q 524 799 524 789 q 435 871 524 871 q 267 814 347 871 l 247 925 q 471 989 346 989 q 600 949 546 989 q 654 821 654 908 q 647 760 654 792 l 583 393 l 454 393 m 351 496 q 482 549 418 496 l 496 628 q 389 654 446 654 q 308 631 342 654 q 275 563 275 607 q 296 515 275 533 q 351 496 317 496 z "},"«":{"ha":721,"x_min":103,"x_max":826,"o":"m 243 0 l 103 356 l 368 710 l 533 710 l 265 349 l 404 0 l 243 0 m 535 0 l 394 356 l 660 710 l 826 710 l 557 349 l 696 0 l 535 0 z "},"¬":{"ha":840,"x_min":186,"x_max":814,"o":"m 653 229 l 653 507 l 186 507 l 186 661 l 814 661 l 814 229 l 653 229 z "},"­":{"ha":538,"x_min":160,"x_max":524,"o":"m 160 335 l 186 489 l 524 489 l 496 335 l 160 335 z "},"®":{"ha":1125,"x_min":140,"x_max":1146,"o":"m 1001 128 q 929 56 1001 128 q 643 -17 857 -17 q 285 128 429 -17 q 140 486 140 272 q 285 844 140 700 q 643 989 429 989 q 1001 844 857 989 q 1146 486 1146 700 q 1001 128 1146 272 m 367 206 q 422 149 367 206 q 643 93 476 93 q 919 206 810 93 q 1028 486 1028 318 q 919 767 1028 654 q 643 879 810 879 q 367 767 476 879 q 257 486 257 654 q 367 206 257 318 m 439 193 l 439 779 l 678 779 q 826 728 781 779 q 871 600 871 678 q 841 499 871 546 q 750 433 811 453 l 883 193 l 747 193 l 628 421 l 561 421 l 561 193 l 439 193 m 561 535 l 674 535 q 744 600 744 535 q 674 665 744 665 l 561 665 l 561 535 z "},"¯":{"ha":576,"x_min":265,"x_max":728,"o":"m 265 822 l 288 954 l 728 954 l 706 822 l 265 822 z "},"°":{"ha":542,"x_min":179,"x_max":674,"o":"m 408 614 q 241 680 303 614 q 179 849 179 746 q 257 1041 179 964 q 444 1118 335 1118 q 612 1052 550 1118 q 674 883 674 986 q 595 691 674 768 q 408 614 517 614 m 413 763 q 491 797 458 763 q 524 881 524 831 q 501 944 524 919 q 440 969 478 969 q 362 936 394 969 q 329 853 329 903 q 352 788 329 814 q 413 763 375 763 z "},"±":{"ha":840,"x_min":189,"x_max":817,"o":"m 582 481 l 582 271 l 422 271 l 422 481 l 189 481 l 189 635 l 422 635 l 422 844 l 582 844 l 582 635 l 817 635 l 817 481 l 582 481 m 189 0 l 189 154 l 817 154 l 817 0 l 189 0 z "},"²":{"ha":483,"x_min":140,"x_max":621,"o":"m 140 617 q 217 803 163 733 q 394 944 272 874 q 481 1039 481 994 q 467 1076 481 1061 q 425 1090 453 1090 q 329 1015 361 1090 l 218 1047 q 313 1168 253 1124 q 451 1213 374 1213 q 575 1166 529 1213 q 621 1054 621 1119 q 584 943 621 988 q 449 840 547 899 q 329 742 354 783 l 563 742 l 540 617 l 140 617 z "},"³":{"ha":468,"x_min":156,"x_max":596,"o":"m 279 806 q 358 725 289 725 q 416 746 394 725 q 438 799 438 767 q 421 844 438 826 q 374 861 404 861 l 322 861 l 343 974 l 386 974 q 442 995 422 974 q 461 1044 461 1017 q 448 1079 461 1065 q 411 1093 435 1093 q 326 1033 361 1093 l 225 1075 q 444 1213 301 1213 q 554 1173 513 1213 q 596 1075 596 1133 q 567 984 596 1025 q 499 922 539 943 q 549 877 529 910 q 569 801 569 844 q 508 661 569 717 q 350 606 447 606 q 156 769 183 606 l 279 806 z "},"´":{"ha":576,"x_min":321,"x_max":751,"o":"m 471 800 l 321 800 l 549 1017 l 751 1017 l 471 800 z "},"µ":{"ha":768,"x_min":43,"x_max":797,"o":"m 515 0 l 528 71 q 363 -17 465 -17 q 257 33 288 -17 l 211 -224 l 43 -279 l 217 710 l 372 710 l 301 307 q 294 240 294 269 q 399 136 294 136 q 506 175 460 136 q 567 299 551 214 l 640 710 l 797 710 l 672 0 l 515 0 z "},"¶":{"ha":849,"x_min":140,"x_max":917,"o":"m 279 -278 l 394 382 q 205 460 269 388 q 140 638 140 533 q 159 750 140 694 q 217 857 178 806 q 329 940 257 908 q 497 972 401 972 l 917 972 l 731 -86 l 564 -160 l 735 818 l 628 818 l 447 -204 l 279 -278 z "},"·":{"ha":306,"x_min":133,"x_max":344,"o":"m 224 378 q 158 404 183 378 q 133 468 133 431 q 168 557 133 521 q 251 593 203 593 q 319 567 293 593 q 344 503 344 540 q 310 414 344 450 q 224 378 275 378 z "},"¸":{"ha":576,"x_min":89,"x_max":419,"o":"m 365 -290 q 337 -313 365 -290 q 219 -336 310 -336 q 89 -275 129 -336 l 169 -221 q 219 -246 185 -246 q 274 -228 253 -246 q 296 -181 296 -210 q 236 -131 296 -131 q 178 -147 203 -131 l 153 -107 l 269 14 l 354 14 l 290 -68 q 388 -97 356 -68 q 419 -171 419 -125 q 365 -290 419 -243 z "},"¹":{"ha":281,"x_min":189,"x_max":422,"o":"m 189 617 l 267 1053 l 200 1053 l 218 1154 q 322 1203 292 1154 l 422 1203 l 318 617 l 189 617 z "},"º":{"ha":611,"x_min":163,"x_max":690,"o":"m 378 379 q 222 445 281 379 q 163 624 163 511 q 249 889 163 789 q 476 989 335 989 q 632 922 574 989 q 690 743 690 856 q 606 478 690 578 q 378 379 521 379 m 396 508 q 513 568 469 508 q 557 722 557 628 q 531 824 557 788 q 458 860 506 860 q 341 800 386 860 q 296 647 296 740 q 322 544 296 581 q 396 508 347 508 z "},"»":{"ha":721,"x_min":14,"x_max":743,"o":"m 14 0 l 286 363 l 151 710 l 311 710 l 451 356 l 186 0 l 14 0 m 306 0 l 578 363 l 443 710 l 603 710 l 743 356 l 478 0 l 306 0 z "},"¼":{"ha":972,"x_min":17,"x_max":983,"o":"m 17 -17 l 832 989 l 983 989 l 168 -17 l 17 -17 m 154 393 l 231 829 l 164 829 l 182 931 q 286 979 253 931 l 386 979 l 283 393 l 154 393 m 725 0 l 746 121 l 471 121 l 486 207 l 833 586 l 949 586 l 888 236 l 961 236 l 940 121 l 867 121 l 846 0 l 725 0 m 765 236 l 799 417 l 635 236 l 765 236 z "},"½":{"ha":1032,"x_min":17,"x_max":1038,"o":"m 17 -17 l 832 989 l 983 989 l 168 -17 l 17 -17 m 154 393 l 231 829 l 164 829 l 182 931 q 286 979 253 931 l 386 979 l 283 393 l 154 393 m 638 431 q 733 551 672 507 q 871 596 793 596 q 992 554 947 596 q 1038 446 1038 513 q 1026 367 1038 400 q 985 306 1014 333 q 928 263 956 279 q 850 218 901 246 q 736 125 765 174 l 982 125 l 960 0 l 560 0 q 646 198 581 121 q 814 328 711 275 q 878 373 857 351 q 900 425 900 394 q 887 460 900 446 q 846 474 874 474 q 747 399 782 474 l 638 431 z "},"¾":{"ha":1144,"x_min":114,"x_max":1156,"o":"m 294 382 q 172 425 218 382 q 114 546 125 468 l 239 581 q 317 501 250 501 q 376 524 354 501 q 399 582 399 547 q 332 638 399 638 l 282 638 l 303 750 l 347 750 q 403 771 385 750 q 422 821 422 792 q 409 856 422 842 q 372 869 396 869 q 288 810 322 869 l 185 851 q 280 952 221 915 q 406 989 339 989 q 515 950 475 989 q 556 851 556 911 q 528 760 556 801 q 458 699 500 718 q 529 589 529 671 q 465 440 529 499 q 294 382 400 382 m 188 -17 l 1003 989 l 1156 989 l 340 -17 l 188 -17 m 897 0 l 918 121 l 643 121 l 658 207 l 1006 586 l 1121 586 l 1060 236 l 1133 236 l 1113 121 l 1039 121 l 1018 0 l 897 0 m 938 236 l 971 417 l 807 236 l 938 236 z "},"¿":{"ha":671,"x_min":43,"x_max":654,"o":"m 444 513 q 376 538 401 513 q 351 603 351 564 q 386 692 351 656 q 472 728 421 728 q 538 701 513 728 q 563 638 563 675 q 528 549 563 585 q 444 513 493 513 m 286 -278 q 108 -210 174 -278 q 43 -42 43 -143 q 70 81 43 28 q 138 167 97 133 q 222 233 179 201 q 299 308 264 264 q 344 408 333 353 l 351 449 l 506 449 l 497 407 q 446 274 482 332 q 369 183 410 217 q 289 121 328 150 q 225 57 250 92 q 200 -21 200 22 q 229 -95 200 -65 q 313 -125 258 -125 q 436 -78 386 -125 q 501 53 486 -32 l 654 53 q 526 -190 628 -101 q 286 -278 425 -278 z "},"À":{"ha":935,"x_min":42,"x_max":897,"o":"m 589 1046 l 385 1263 l 589 1263 l 740 1046 l 589 1046 m 42 0 l 561 972 l 718 972 l 897 0 l 729 0 l 692 214 l 331 214 l 218 0 l 42 0 m 407 364 l 667 364 l 615 664 q 609 702 614 669 q 603 744 604 735 q 565 667 585 700 l 407 364 z "},"Á":{"ha":935,"x_min":42,"x_max":993,"o":"m 713 1046 l 563 1046 l 790 1263 l 993 1263 l 713 1046 m 42 0 l 561 972 l 718 972 l 897 0 l 729 0 l 692 214 l 331 214 l 218 0 l 42 0 m 407 364 l 667 364 l 615 664 q 609 702 614 669 q 603 744 604 735 q 565 667 585 700 l 407 364 z "},"Â":{"ha":935,"x_min":42,"x_max":919,"o":"m 778 1046 l 674 1153 l 532 1046 l 392 1046 l 617 1263 l 769 1263 l 919 1046 l 778 1046 m 42 0 l 561 972 l 718 972 l 897 0 l 729 0 l 692 214 l 331 214 l 218 0 l 42 0 m 407 364 l 667 364 l 615 664 q 609 702 614 669 q 603 744 604 735 q 565 667 585 700 l 407 364 z "},"Ã":{"ha":935,"x_min":42,"x_max":946,"o":"m 768 1063 q 653 1095 717 1063 q 560 1128 589 1128 q 486 1068 500 1128 l 413 1068 q 590 1250 443 1250 q 706 1217 642 1250 q 799 1185 769 1185 q 872 1244 857 1185 l 946 1244 q 768 1063 913 1063 m 42 0 l 561 972 l 718 972 l 897 0 l 729 0 l 692 214 l 331 214 l 218 0 l 42 0 m 407 364 l 667 364 l 615 664 q 609 702 614 669 q 603 744 604 735 q 565 667 585 700 l 407 364 z "},"Ä":{"ha":935,"x_min":42,"x_max":897,"o":"m 536 1061 q 481 1083 503 1061 q 460 1139 460 1106 q 491 1215 460 1183 q 563 1246 522 1246 q 619 1224 599 1246 q 640 1169 640 1203 q 609 1093 640 1125 q 536 1061 578 1061 m 783 1061 q 727 1083 749 1061 q 706 1139 706 1106 q 737 1215 706 1183 q 810 1246 768 1246 q 866 1224 844 1246 q 888 1169 888 1203 q 855 1093 888 1125 q 783 1061 822 1061 m 42 0 l 561 972 l 718 972 l 897 0 l 729 0 l 692 214 l 331 214 l 218 0 l 42 0 m 407 364 l 667 364 l 615 664 q 609 702 614 669 q 603 744 604 735 q 565 667 585 700 l 407 364 z "},"Å":{"ha":935,"x_min":42,"x_max":897,"o":"m 732 894 l 897 0 l 729 0 l 692 214 l 331 214 l 218 0 l 42 0 l 517 890 q 474 999 474 936 q 535 1139 474 1081 q 675 1197 596 1197 q 774 1155 735 1197 q 814 1053 814 1113 q 732 894 814 956 m 656 1088 q 607 1067 628 1088 q 586 1015 586 1047 q 599 977 586 992 q 633 963 611 963 q 682 984 661 963 q 703 1038 703 1006 q 690 1074 703 1060 q 656 1088 676 1088 m 407 364 l 667 364 l 615 664 q 609 702 614 669 q 603 744 604 735 q 565 667 585 700 l 407 364 z "},"Æ":{"ha":1163,"x_min":-42,"x_max":1246,"o":"m -42 0 l 671 972 l 1246 972 l 1219 817 l 829 817 l 788 579 l 1006 579 l 976 425 l 760 425 l 714 156 l 1132 156 l 1104 0 l 522 0 l 561 214 l 294 214 l 139 0 l -42 0 m 404 364 l 586 364 l 649 711 q 601 638 635 685 l 404 364 z "},"Ç":{"ha":850,"x_min":150,"x_max":929,"o":"m 542 -289 q 514 -312 542 -289 q 396 -336 486 -336 q 267 -278 306 -336 l 349 -224 q 396 -246 360 -246 q 452 -228 431 -246 q 474 -181 474 -210 q 457 -144 474 -158 q 414 -131 440 -131 q 356 -147 383 -131 l 331 -107 l 422 -11 q 221 117 292 8 q 150 386 150 226 q 203 673 150 539 q 368 897 256 807 q 631 988 481 988 q 929 785 858 988 l 779 718 q 619 831 729 831 q 454 760 525 831 q 351 594 383 690 q 319 399 319 499 q 365 217 319 290 q 493 144 410 144 q 699 267 625 144 l 842 206 q 508 -15 719 -3 l 469 -68 q 566 -97 533 -68 q 599 -169 599 -125 q 542 -289 599 -242 z "},"È":{"ha":803,"x_min":104,"x_max":886,"o":"m 529 1039 l 325 1256 l 529 1256 l 681 1039 l 529 1039 m 104 0 l 275 972 l 886 972 l 860 817 l 415 817 l 374 579 l 642 579 l 614 425 l 346 425 l 299 156 l 772 156 l 744 0 l 104 0 z "},"É":{"ha":803,"x_min":104,"x_max":933,"o":"m 653 1039 l 503 1039 l 731 1256 l 933 1256 l 653 1039 m 104 0 l 275 972 l 886 972 l 860 817 l 415 817 l 374 579 l 642 579 l 614 425 l 346 425 l 299 156 l 772 156 l 744 0 l 104 0 z "},"Ê":{"ha":803,"x_min":104,"x_max":886,"o":"m 718 1039 l 614 1146 l 472 1039 l 332 1039 l 557 1256 l 710 1256 l 860 1039 l 718 1039 m 104 0 l 275 972 l 886 972 l 860 817 l 415 817 l 374 579 l 642 579 l 614 425 l 346 425 l 299 156 l 772 156 l 744 0 l 104 0 z "},"Ë":{"ha":803,"x_min":104,"x_max":886,"o":"m 476 1054 q 422 1076 443 1054 q 400 1132 400 1099 q 432 1207 400 1175 q 503 1239 464 1239 q 560 1217 539 1239 q 581 1163 581 1196 q 549 1086 581 1118 q 476 1054 518 1054 m 724 1054 q 667 1076 689 1054 q 646 1132 646 1099 q 677 1208 646 1176 q 750 1239 708 1239 q 806 1217 785 1239 q 828 1163 828 1196 q 796 1087 828 1119 q 724 1054 764 1054 m 104 0 l 275 972 l 886 972 l 860 817 l 415 817 l 374 579 l 642 579 l 614 425 l 346 425 l 299 156 l 772 156 l 744 0 l 104 0 z "},"Ì":{"ha":374,"x_min":100,"x_max":456,"o":"m 304 1046 l 100 1263 l 304 1263 l 456 1046 l 304 1046 m 104 0 l 275 972 l 442 972 l 271 0 l 104 0 z "},"Í":{"ha":374,"x_min":104,"x_max":708,"o":"m 428 1046 l 278 1046 l 506 1263 l 708 1263 l 428 1046 m 104 0 l 275 972 l 442 972 l 271 0 l 104 0 z "},"Î":{"ha":374,"x_min":104,"x_max":635,"o":"m 493 1046 l 389 1153 l 247 1046 l 107 1046 l 332 1263 l 485 1263 l 635 1046 l 493 1046 m 104 0 l 275 972 l 442 972 l 271 0 l 104 0 z "},"Ï":{"ha":374,"x_min":104,"x_max":603,"o":"m 251 1061 q 197 1083 218 1061 q 175 1139 175 1106 q 207 1215 175 1183 q 278 1246 239 1246 q 335 1224 314 1246 q 356 1169 356 1203 q 324 1093 356 1125 q 251 1061 293 1061 m 499 1061 q 442 1083 464 1061 q 421 1139 421 1106 q 452 1215 421 1183 q 525 1246 483 1246 q 581 1224 560 1246 q 603 1169 603 1203 q 571 1093 603 1125 q 499 1061 539 1061 m 104 0 l 275 972 l 442 972 l 271 0 l 104 0 z "},"Ð":{"ha":932,"x_min":96,"x_max":951,"o":"m 108 0 l 181 410 l 96 410 l 124 563 l 207 563 l 279 972 l 567 972 q 853 849 756 972 q 951 539 951 726 q 923 353 951 443 q 837 181 894 263 q 674 50 779 100 q 433 0 569 0 l 108 0 m 297 156 l 438 156 q 591 190 524 156 q 697 280 658 224 q 756 401 736 336 q 775 532 775 465 q 717 738 775 658 q 549 817 660 817 l 414 817 l 369 563 l 564 563 l 536 410 l 343 410 l 297 156 z "},"Ñ":{"ha":942,"x_min":104,"x_max":1010,"o":"m 761 1058 q 647 1091 711 1058 q 553 1124 583 1124 q 479 1064 493 1124 l 406 1064 q 583 1246 436 1246 q 698 1213 635 1246 q 792 1181 761 1181 q 865 1240 850 1181 l 939 1240 q 761 1058 906 1058 m 104 0 l 275 972 l 429 972 l 704 365 q 731 296 726 318 q 739 365 733 329 l 846 972 l 1010 972 l 839 0 l 689 0 l 414 599 q 383 678 399 631 q 374 597 383 671 l 268 0 l 104 0 z "},"Ò":{"ha":958,"x_min":150,"x_max":979,"o":"m 568 1046 l 364 1263 l 568 1263 l 719 1046 l 568 1046 m 510 -17 q 344 18 415 -17 q 231 113 272 53 q 170 246 190 174 q 150 403 150 318 q 181 619 150 515 q 271 807 213 724 q 422 940 329 890 q 626 989 514 989 q 826 928 743 989 q 944 776 908 867 q 979 575 979 685 q 925 286 979 419 q 762 68 871 153 q 510 -17 653 -17 m 510 140 q 732 269 649 140 q 815 575 815 397 q 766 756 815 681 q 617 832 717 832 q 453 766 524 832 q 348 604 382 700 q 314 403 314 508 q 362 217 314 293 q 510 140 410 140 z "},"Ó":{"ha":958,"x_min":150,"x_max":979,"o":"m 692 1046 l 542 1046 l 769 1263 l 972 1263 l 692 1046 m 510 -17 q 344 18 415 -17 q 231 113 272 53 q 170 246 190 174 q 150 403 150 318 q 181 619 150 515 q 271 807 213 724 q 422 940 329 890 q 626 989 514 989 q 826 928 743 989 q 944 776 908 867 q 979 575 979 685 q 925 286 979 419 q 762 68 871 153 q 510 -17 653 -17 m 510 140 q 732 269 649 140 q 815 575 815 397 q 766 756 815 681 q 617 832 717 832 q 453 766 524 832 q 348 604 382 700 q 314 403 314 508 q 362 217 314 293 q 510 140 410 140 z "},"Ô":{"ha":958,"x_min":150,"x_max":979,"o":"m 757 1046 l 653 1153 l 511 1046 l 371 1046 l 596 1263 l 749 1263 l 899 1046 l 757 1046 m 510 -17 q 344 18 415 -17 q 231 113 272 53 q 170 246 190 174 q 150 403 150 318 q 181 619 150 515 q 271 807 213 724 q 422 940 329 890 q 626 989 514 989 q 826 928 743 989 q 944 776 908 867 q 979 575 979 685 q 925 286 979 419 q 762 68 871 153 q 510 -17 653 -17 m 510 140 q 732 269 649 140 q 815 575 815 397 q 766 756 815 681 q 617 832 717 832 q 453 766 524 832 q 348 604 382 700 q 314 403 314 508 q 362 217 314 293 q 510 140 410 140 z "},"Õ":{"ha":958,"x_min":150,"x_max":979,"o":"m 747 1063 q 633 1095 697 1063 q 539 1128 569 1128 q 465 1068 479 1128 l 392 1068 q 569 1250 422 1250 q 683 1217 619 1250 q 778 1185 747 1185 q 851 1244 836 1185 l 925 1244 q 747 1063 892 1063 m 510 -17 q 344 18 415 -17 q 231 113 272 53 q 170 246 190 174 q 150 403 150 318 q 181 619 150 515 q 271 807 213 724 q 422 940 329 890 q 626 989 514 989 q 826 928 743 989 q 944 776 908 867 q 979 575 979 685 q 925 286 979 419 q 762 68 871 153 q 510 -17 653 -17 m 510 140 q 732 269 649 140 q 815 575 815 397 q 766 756 815 681 q 617 832 717 832 q 453 766 524 832 q 348 604 382 700 q 314 403 314 508 q 362 217 314 293 q 510 140 410 140 z "},"Ö":{"ha":958,"x_min":150,"x_max":979,"o":"m 515 1061 q 460 1083 482 1061 q 439 1139 439 1106 q 471 1215 439 1183 q 542 1246 503 1246 q 599 1224 578 1246 q 619 1169 619 1203 q 588 1093 619 1125 q 515 1061 557 1061 m 763 1061 q 706 1083 728 1061 q 685 1139 685 1106 q 716 1215 685 1183 q 789 1246 747 1246 q 845 1224 824 1246 q 867 1169 867 1203 q 835 1093 867 1125 q 763 1061 803 1061 m 510 -17 q 344 18 415 -17 q 231 113 272 53 q 170 246 190 174 q 150 403 150 318 q 181 619 150 515 q 271 807 213 724 q 422 940 329 890 q 626 989 514 989 q 826 928 743 989 q 944 776 908 867 q 979 575 979 685 q 925 286 979 419 q 762 68 871 153 q 510 -17 653 -17 m 510 140 q 732 269 649 140 q 815 575 815 397 q 766 756 815 681 q 617 832 717 832 q 453 766 524 832 q 348 604 382 700 q 314 403 314 508 q 362 217 314 293 q 510 140 410 140 z "},"×":{"ha":840,"x_min":178,"x_max":825,"o":"m 503 364 l 293 153 l 178 269 l 388 478 l 179 688 l 290 799 l 500 590 l 708 800 l 825 685 l 614 475 l 824 267 l 711 154 l 503 364 z "},"Ø":{"ha":958,"x_min":71,"x_max":1060,"o":"m 71 -17 l 206 147 q 150 401 150 249 q 203 685 150 554 q 367 903 256 817 q 629 989 478 989 q 840 919 757 989 l 899 989 l 1060 989 l 922 822 q 979 575 979 717 q 925 286 979 419 q 761 68 871 153 q 507 -17 651 -17 q 288 51 374 -17 l 232 -17 l 71 -17 m 326 293 l 735 790 q 615 832 689 832 q 451 766 522 832 q 347 604 381 700 q 314 403 314 508 q 326 293 314 335 m 510 140 q 674 203 603 140 q 781 363 746 265 q 815 574 815 460 q 801 676 815 625 l 393 181 q 510 140 440 140 z "},"Ù":{"ha":933,"x_min":161,"x_max":1007,"o":"m 576 1042 l 372 1258 l 576 1258 l 728 1042 l 576 1042 m 485 -17 q 251 60 342 -17 q 161 286 161 136 q 175 422 161 343 l 274 972 l 439 972 l 338 394 q 328 301 328 332 q 496 143 328 143 q 653 194 590 143 q 736 369 715 244 l 843 972 l 1007 972 l 900 357 q 759 67 864 150 q 485 -17 654 -17 z "},"Ú":{"ha":933,"x_min":161,"x_max":1007,"o":"m 700 1042 l 550 1042 l 778 1258 l 981 1258 l 700 1042 m 485 -17 q 251 60 342 -17 q 161 286 161 136 q 175 422 161 343 l 274 972 l 439 972 l 338 394 q 328 301 328 332 q 496 143 328 143 q 653 194 590 143 q 736 369 715 244 l 843 972 l 1007 972 l 900 357 q 759 67 864 150 q 485 -17 654 -17 z "},"Û":{"ha":933,"x_min":161,"x_max":1007,"o":"m 765 1042 l 661 1149 l 519 1042 l 379 1042 l 604 1258 l 757 1258 l 907 1042 l 765 1042 m 485 -17 q 251 60 342 -17 q 161 286 161 136 q 175 422 161 343 l 274 972 l 439 972 l 338 394 q 328 301 328 332 q 496 143 328 143 q 653 194 590 143 q 736 369 715 244 l 843 972 l 1007 972 l 900 357 q 759 67 864 150 q 485 -17 654 -17 z "},"Ü":{"ha":933,"x_min":161,"x_max":1007,"o":"m 524 1057 q 469 1079 490 1057 q 447 1135 447 1101 q 479 1210 447 1178 q 550 1242 511 1242 q 607 1220 586 1242 q 628 1165 628 1199 q 597 1089 628 1121 q 524 1057 565 1057 m 771 1057 q 715 1079 736 1057 q 693 1135 693 1101 q 724 1210 693 1179 q 797 1242 756 1242 q 853 1220 832 1242 q 875 1165 875 1199 q 843 1090 875 1122 q 771 1057 811 1057 m 485 -17 q 251 60 342 -17 q 161 286 161 136 q 175 422 161 343 l 274 972 l 439 972 l 338 394 q 328 301 328 332 q 496 143 328 143 q 653 194 590 143 q 736 369 715 244 l 843 972 l 1007 972 l 900 357 q 759 67 864 150 q 485 -17 654 -17 z "},"Ý":{"ha":890,"x_min":200,"x_max":1029,"o":"m 679 1042 l 529 1042 l 757 1258 l 960 1258 l 679 1042 m 361 0 l 431 392 l 200 972 l 372 972 l 533 550 l 844 972 l 1029 972 l 594 386 l 526 0 l 361 0 z "},"Þ":{"ha":847,"x_min":104,"x_max":903,"o":"m 104 0 l 275 972 l 442 972 l 411 796 l 635 796 q 761 772 707 796 q 845 708 815 749 q 889 624 875 668 q 903 531 903 579 q 808 292 903 392 q 543 193 713 193 l 304 193 l 269 0 l 104 0 m 565 349 q 692 400 649 349 q 735 511 735 451 q 617 640 735 640 l 383 640 l 332 349 l 565 349 z "},"ß":{"ha":754,"x_min":38,"x_max":786,"o":"m 38 -279 l 203 663 q 327 910 233 832 q 543 989 421 989 q 718 928 650 989 q 786 767 786 868 q 742 627 786 692 q 618 532 699 563 q 721 451 683 508 q 758 314 758 394 q 662 76 758 169 q 431 -17 565 -17 q 290 13 335 -17 l 381 131 q 436 122 403 122 q 551 174 501 122 q 600 311 600 225 q 565 417 600 375 q 456 458 529 458 l 418 458 l 443 597 l 481 597 q 588 637 544 597 q 632 743 632 676 q 603 820 632 790 q 526 850 575 850 q 356 658 390 850 l 204 -203 l 38 -279 z "},"à":{"ha":726,"x_min":90,"x_max":728,"o":"m 436 806 l 232 1022 l 436 1022 l 588 806 l 436 806 m 488 0 l 499 57 q 306 -17 425 -17 q 151 40 213 -17 q 90 190 90 96 q 177 385 90 315 q 400 454 264 454 q 560 410 489 454 l 567 446 q 572 494 572 474 q 464 586 572 586 q 240 514 354 586 l 218 644 q 488 726 350 726 q 565 717 526 726 q 642 685 603 707 q 704 619 681 663 q 728 514 728 575 q 718 435 728 489 l 643 0 l 488 0 m 347 124 q 521 193 443 124 l 538 285 q 397 318 471 318 q 290 290 333 318 q 246 204 246 261 q 273 146 246 168 q 347 124 300 124 z "},"á":{"ha":726,"x_min":90,"x_max":840,"o":"m 560 806 l 410 806 l 638 1022 l 840 1022 l 560 806 m 488 0 l 499 57 q 306 -17 425 -17 q 151 40 213 -17 q 90 190 90 96 q 177 385 90 315 q 400 454 264 454 q 560 410 489 454 l 567 446 q 572 494 572 474 q 464 586 572 586 q 240 514 354 586 l 218 644 q 488 726 350 726 q 565 717 526 726 q 642 685 603 707 q 704 619 681 663 q 728 514 728 575 q 718 435 728 489 l 643 0 l 488 0 m 347 124 q 521 193 443 124 l 538 285 q 397 318 471 318 q 290 290 333 318 q 246 204 246 261 q 273 146 246 168 q 347 124 300 124 z "},"â":{"ha":726,"x_min":90,"x_max":767,"o":"m 625 806 l 521 913 l 379 806 l 239 806 l 464 1022 l 617 1022 l 767 806 l 625 806 m 488 0 l 499 57 q 306 -17 425 -17 q 151 40 213 -17 q 90 190 90 96 q 177 385 90 315 q 400 454 264 454 q 560 410 489 454 l 567 446 q 572 494 572 474 q 464 586 572 586 q 240 514 354 586 l 218 644 q 488 726 350 726 q 565 717 526 726 q 642 685 603 707 q 704 619 681 663 q 728 514 728 575 q 718 435 728 489 l 643 0 l 488 0 m 347 124 q 521 193 443 124 l 538 285 q 397 318 471 318 q 290 290 333 318 q 246 204 246 261 q 273 146 246 168 q 347 124 300 124 z "},"ã":{"ha":726,"x_min":90,"x_max":793,"o":"m 615 822 q 500 855 564 822 q 407 888 436 888 q 333 828 347 888 l 260 828 q 438 1010 290 1010 q 553 977 489 1010 q 646 944 617 944 q 719 1004 704 944 l 793 1004 q 615 822 760 822 m 488 0 l 499 57 q 306 -17 425 -17 q 151 40 213 -17 q 90 190 90 96 q 177 385 90 315 q 400 454 264 454 q 560 410 489 454 l 567 446 q 572 494 572 474 q 464 586 572 586 q 240 514 354 586 l 218 644 q 488 726 350 726 q 565 717 526 726 q 642 685 603 707 q 704 619 681 663 q 728 514 728 575 q 718 435 728 489 l 643 0 l 488 0 m 347 124 q 521 193 443 124 l 538 285 q 397 318 471 318 q 290 290 333 318 q 246 204 246 261 q 273 146 246 168 q 347 124 300 124 z "},"ä":{"ha":726,"x_min":90,"x_max":735,"o":"m 383 821 q 328 843 350 821 q 307 899 307 865 q 338 974 307 942 q 410 1006 369 1006 q 467 984 446 1006 q 488 929 488 963 q 456 853 488 885 q 383 821 425 821 m 631 821 q 574 843 596 821 q 553 899 553 865 q 584 974 553 943 q 657 1006 615 1006 q 713 984 692 1006 q 735 929 735 963 q 702 853 735 886 q 631 821 669 821 m 488 0 l 499 57 q 306 -17 425 -17 q 151 40 213 -17 q 90 190 90 96 q 177 385 90 315 q 400 454 264 454 q 560 410 489 454 l 567 446 q 572 494 572 474 q 464 586 572 586 q 240 514 354 586 l 218 644 q 488 726 350 726 q 565 717 526 726 q 642 685 603 707 q 704 619 681 663 q 728 514 728 575 q 718 435 728 489 l 643 0 l 488 0 m 347 124 q 521 193 443 124 l 538 285 q 397 318 471 318 q 290 290 333 318 q 246 204 246 261 q 273 146 246 168 q 347 124 300 124 z "},"å":{"ha":726,"x_min":90,"x_max":728,"o":"m 503 790 q 402 833 442 790 q 363 938 363 876 q 424 1077 363 1018 q 564 1136 485 1136 q 663 1094 624 1136 q 703 990 703 1051 q 642 850 703 910 q 503 790 581 790 m 522 901 q 571 922 550 901 q 592 975 592 943 q 578 1012 592 997 q 544 1026 565 1026 q 496 1006 517 1026 q 475 953 475 985 q 488 916 475 931 q 522 901 501 901 m 488 0 l 499 57 q 306 -17 425 -17 q 151 40 213 -17 q 90 190 90 96 q 177 385 90 315 q 400 454 264 454 q 560 410 489 454 l 567 446 q 572 494 572 474 q 464 586 572 586 q 240 514 354 586 l 218 644 q 488 726 350 726 q 565 717 526 726 q 642 685 603 707 q 704 619 681 663 q 728 514 728 575 q 718 435 728 489 l 643 0 l 488 0 m 347 124 q 521 193 443 124 l 538 285 q 397 318 471 318 q 290 290 333 318 q 246 204 246 261 q 273 146 246 168 q 347 124 300 124 z "},"æ":{"ha":1131,"x_min":92,"x_max":1153,"o":"m 293 -17 q 149 38 207 -17 q 92 190 92 93 q 179 388 92 319 q 393 457 267 457 q 542 418 478 457 l 549 458 q 551 494 551 486 q 525 563 551 539 q 451 586 499 586 q 235 514 340 586 l 214 644 q 476 726 340 726 q 581 701 532 726 q 658 631 631 675 q 896 726 746 726 q 1084 657 1015 726 q 1153 451 1153 588 q 1126 293 1153 375 l 672 293 q 671 276 671 286 q 710 165 671 206 q 814 125 750 125 q 974 194 903 125 l 1053 89 q 793 -17 944 -17 q 560 108 624 -17 q 293 -17 443 -17 m 693 429 l 997 429 q 999 468 1000 453 q 960 556 993 526 q 871 586 926 586 q 760 547 807 586 q 693 429 713 507 m 346 124 q 501 196 429 124 l 510 242 q 513 263 511 249 q 517 286 515 278 q 394 318 465 318 q 288 290 331 318 q 246 204 246 261 q 272 146 246 168 q 346 124 297 124 z "},"ç":{"ha":697,"x_min":115,"x_max":728,"o":"m 285 -336 q 157 -278 193 -336 l 239 -224 q 286 -246 250 -246 q 342 -228 321 -246 q 364 -179 364 -210 q 347 -144 364 -158 q 303 -131 331 -131 q 246 -147 271 -131 l 221 -107 l 315 -10 q 169 89 222 10 q 115 285 115 168 q 218 603 115 479 q 485 726 321 726 q 645 674 581 726 q 728 533 710 621 l 574 482 q 464 575 554 575 q 327 496 379 575 q 275 303 275 417 q 305 182 275 228 q 389 136 335 136 q 535 240 488 136 l 675 192 q 558 38 635 88 q 399 -17 481 -11 l 358 -68 q 456 -97 424 -68 q 488 -169 488 -125 q 431 -289 488 -242 q 285 -336 375 -336 z "},"è":{"ha":726,"x_min":106,"x_max":749,"o":"m 436 806 l 232 1022 l 436 1022 l 588 806 l 436 806 m 389 -17 q 183 63 260 -17 q 106 285 106 143 q 210 596 106 465 q 486 726 315 726 q 680 652 611 726 q 749 447 749 578 q 722 293 749 369 l 267 293 l 267 278 q 307 166 267 207 q 408 125 347 125 q 569 194 497 125 l 649 89 q 389 -17 540 -17 m 290 429 l 594 429 q 594 471 597 453 q 469 586 581 586 q 354 544 401 586 q 290 429 307 501 z "},"é":{"ha":726,"x_min":106,"x_max":840,"o":"m 560 806 l 410 806 l 638 1022 l 840 1022 l 560 806 m 389 -17 q 183 63 260 -17 q 106 285 106 143 q 210 596 106 465 q 486 726 315 726 q 680 652 611 726 q 749 447 749 578 q 722 293 749 369 l 267 293 l 267 278 q 307 166 267 207 q 408 125 347 125 q 569 194 497 125 l 649 89 q 389 -17 540 -17 m 290 429 l 594 429 q 594 471 597 453 q 469 586 581 586 q 354 544 401 586 q 290 429 307 501 z "},"ê":{"ha":726,"x_min":106,"x_max":767,"o":"m 625 806 l 521 913 l 379 806 l 239 806 l 464 1022 l 617 1022 l 767 806 l 625 806 m 389 -17 q 183 63 260 -17 q 106 285 106 143 q 210 596 106 465 q 486 726 315 726 q 680 652 611 726 q 749 447 749 578 q 722 293 749 369 l 267 293 l 267 278 q 307 166 267 207 q 408 125 347 125 q 569 194 497 125 l 649 89 q 389 -17 540 -17 m 290 429 l 594 429 q 594 471 597 453 q 469 586 581 586 q 354 544 401 586 q 290 429 307 501 z "},"ë":{"ha":726,"x_min":106,"x_max":749,"o":"m 383 821 q 328 843 350 821 q 307 899 307 865 q 338 974 307 942 q 410 1006 369 1006 q 467 984 446 1006 q 488 929 488 963 q 456 853 488 885 q 383 821 425 821 m 631 821 q 574 843 596 821 q 553 899 553 865 q 584 974 553 943 q 657 1006 615 1006 q 713 984 692 1006 q 735 929 735 963 q 702 853 735 886 q 631 821 669 821 m 389 -17 q 183 63 260 -17 q 106 285 106 143 q 210 596 106 465 q 486 726 315 726 q 680 652 611 726 q 749 447 749 578 q 722 293 749 369 l 267 293 l 267 278 q 307 166 267 207 q 408 125 347 125 q 569 194 497 125 l 649 89 q 389 -17 540 -17 m 290 429 l 594 429 q 594 471 597 453 q 469 586 581 586 q 354 544 401 586 q 290 429 307 501 z "},"ì":{"ha":356,"x_min":49,"x_max":404,"o":"m 253 799 l 49 1015 l 253 1015 l 404 799 l 253 799 m 100 0 l 225 710 l 382 710 l 257 0 l 100 0 z "},"í":{"ha":356,"x_min":100,"x_max":657,"o":"m 376 799 l 226 799 l 454 1015 l 657 1015 l 376 799 m 100 0 l 225 710 l 382 710 l 257 0 l 100 0 z "},"î":{"ha":356,"x_min":56,"x_max":583,"o":"m 442 799 l 338 906 l 196 799 l 56 799 l 281 1015 l 433 1015 l 583 799 l 442 799 m 100 0 l 225 710 l 382 710 l 257 0 l 100 0 z "},"ï":{"ha":356,"x_min":100,"x_max":551,"o":"m 200 814 q 145 836 167 814 q 124 892 124 858 q 155 967 124 936 q 226 999 186 999 q 283 977 263 999 q 304 922 304 956 q 273 846 304 878 q 200 814 242 814 m 447 814 q 391 836 413 814 q 369 892 369 858 q 401 967 369 936 q 474 999 432 999 q 530 977 508 999 q 551 922 551 956 q 519 846 551 878 q 447 814 486 814 m 100 0 l 225 710 l 382 710 l 257 0 l 100 0 z "},"ð":{"ha":743,"x_min":108,"x_max":760,"o":"m 376 -17 q 181 60 254 -17 q 108 263 108 138 q 210 526 108 418 q 457 633 313 633 q 607 572 558 633 q 538 765 600 699 l 440 678 l 372 760 l 449 831 q 319 860 390 857 l 344 989 q 564 935 472 986 l 656 1019 l 724 936 l 646 865 q 760 485 760 739 q 660 122 760 260 q 376 -17 560 -17 m 396 136 q 526 194 469 136 q 582 339 582 253 q 548 442 582 403 q 456 482 514 482 q 324 423 379 482 q 269 276 269 364 q 304 175 269 214 q 396 136 339 136 z "},"ñ":{"ha":768,"x_min":100,"x_max":822,"o":"m 644 822 q 531 855 594 822 q 436 888 467 888 q 363 828 376 888 l 289 828 q 467 1010 319 1010 q 581 977 517 1010 q 675 944 644 944 q 749 1004 733 944 l 822 1004 q 644 822 789 822 m 100 0 l 225 710 l 383 710 l 371 638 q 549 726 442 726 q 702 665 649 726 q 756 503 756 604 q 744 403 756 454 l 674 0 l 515 0 l 586 401 q 593 468 593 433 q 493 578 593 578 q 390 535 438 578 q 331 414 343 492 l 257 0 l 100 0 z "},"ò":{"ha":743,"x_min":115,"x_max":753,"o":"m 436 806 l 232 1022 l 436 1022 l 588 806 l 436 806 m 389 -17 q 184 64 253 -17 q 115 289 115 144 q 217 600 115 474 q 486 726 319 726 q 683 643 613 726 q 753 428 753 560 q 652 110 753 238 q 389 -17 551 -17 m 400 136 q 540 215 486 136 q 594 404 594 293 q 563 529 594 483 q 467 575 531 575 q 326 496 381 575 q 272 308 272 417 q 400 136 272 136 z "},"ó":{"ha":743,"x_min":115,"x_max":840,"o":"m 560 806 l 410 806 l 638 1022 l 840 1022 l 560 806 m 389 -17 q 184 64 253 -17 q 115 289 115 144 q 217 600 115 474 q 486 726 319 726 q 683 643 613 726 q 753 428 753 560 q 652 110 753 238 q 389 -17 551 -17 m 400 136 q 540 215 486 136 q 594 404 594 293 q 563 529 594 483 q 467 575 531 575 q 326 496 381 575 q 272 308 272 417 q 400 136 272 136 z "},"ô":{"ha":743,"x_min":115,"x_max":767,"o":"m 625 806 l 521 913 l 379 806 l 239 806 l 464 1022 l 617 1022 l 767 806 l 625 806 m 389 -17 q 184 64 253 -17 q 115 289 115 144 q 217 600 115 474 q 486 726 319 726 q 683 643 613 726 q 753 428 753 560 q 652 110 753 238 q 389 -17 551 -17 m 400 136 q 540 215 486 136 q 594 404 594 293 q 563 529 594 483 q 467 575 531 575 q 326 496 381 575 q 272 308 272 417 q 400 136 272 136 z "},"õ":{"ha":743,"x_min":115,"x_max":793,"o":"m 615 822 q 500 855 564 822 q 407 888 436 888 q 333 828 347 888 l 260 828 q 438 1010 290 1010 q 553 977 489 1010 q 646 944 617 944 q 719 1004 704 944 l 793 1004 q 615 822 760 822 m 389 -17 q 184 64 253 -17 q 115 289 115 144 q 217 600 115 474 q 486 726 319 726 q 683 643 613 726 q 753 428 753 560 q 652 110 753 238 q 389 -17 551 -17 m 400 136 q 540 215 486 136 q 594 404 594 293 q 563 529 594 483 q 467 575 531 575 q 326 496 381 575 q 272 308 272 417 q 400 136 272 136 z "},"ö":{"ha":743,"x_min":115,"x_max":753,"o":"m 383 821 q 328 843 350 821 q 307 899 307 865 q 338 974 307 942 q 410 1006 369 1006 q 467 984 446 1006 q 488 929 488 963 q 456 853 488 885 q 383 821 425 821 m 631 821 q 574 843 596 821 q 553 899 553 865 q 584 974 553 943 q 657 1006 615 1006 q 713 984 692 1006 q 735 929 735 963 q 702 853 735 886 q 631 821 669 821 m 389 -17 q 184 64 253 -17 q 115 289 115 144 q 217 600 115 474 q 486 726 319 726 q 683 643 613 726 q 753 428 753 560 q 652 110 753 238 q 389 -17 551 -17 m 400 136 q 540 215 486 136 q 594 404 594 293 q 563 529 594 483 q 467 575 531 575 q 326 496 381 575 q 272 308 272 417 q 400 136 272 136 z "},"÷":{"ha":840,"x_min":186,"x_max":814,"o":"m 569 667 q 555 653 569 667 q 499 639 540 639 q 429 667 457 639 q 401 735 401 694 q 429 803 401 775 q 499 831 457 831 q 569 803 540 831 q 597 735 597 775 q 569 667 597 694 m 186 399 l 186 554 l 814 554 l 814 399 l 186 399 m 569 150 q 555 136 569 150 q 499 122 540 122 q 429 150 457 122 q 401 218 401 178 q 429 286 401 258 q 499 314 457 314 q 569 286 540 314 q 597 218 597 258 q 569 150 597 178 z "},"ø":{"ha":743,"x_min":60,"x_max":808,"o":"m 60 -17 l 157 101 q 115 289 115 176 q 217 600 115 474 q 486 726 319 726 q 633 683 569 726 l 669 726 l 808 726 l 708 604 q 753 428 753 531 q 652 110 753 238 q 389 -17 551 -17 q 232 24 293 -17 l 199 -17 l 60 -17 m 278 250 l 531 556 q 467 575 503 575 q 326 496 381 575 q 272 308 272 417 q 278 250 272 274 m 400 136 q 540 215 486 136 q 594 404 594 293 q 589 458 594 436 l 339 154 q 400 136 364 136 z "},"ù":{"ha":768,"x_min":131,"x_max":797,"o":"m 450 806 l 246 1022 l 450 1022 l 601 806 l 450 806 m 515 0 l 526 67 q 328 -17 451 -17 q 188 40 244 -17 q 131 204 131 97 q 138 283 131 235 l 213 710 l 372 710 l 300 308 q 293 242 293 265 q 319 163 293 190 q 393 136 346 136 q 504 172 457 136 q 565 286 551 208 l 640 710 l 797 710 l 672 0 l 515 0 z "},"ú":{"ha":768,"x_min":131,"x_max":854,"o":"m 574 806 l 424 806 l 651 1022 l 854 1022 l 574 806 m 515 0 l 526 67 q 328 -17 451 -17 q 188 40 244 -17 q 131 204 131 97 q 138 283 131 235 l 213 710 l 372 710 l 300 308 q 293 242 293 265 q 319 163 293 190 q 393 136 346 136 q 504 172 457 136 q 565 286 551 208 l 640 710 l 797 710 l 672 0 l 515 0 z "},"û":{"ha":768,"x_min":131,"x_max":797,"o":"m 639 806 l 535 913 l 393 806 l 253 806 l 478 1022 l 631 1022 l 781 806 l 639 806 m 515 0 l 526 67 q 328 -17 451 -17 q 188 40 244 -17 q 131 204 131 97 q 138 283 131 235 l 213 710 l 372 710 l 300 308 q 293 242 293 265 q 319 163 293 190 q 393 136 346 136 q 504 172 457 136 q 565 286 551 208 l 640 710 l 797 710 l 672 0 l 515 0 z "},"ü":{"ha":768,"x_min":131,"x_max":797,"o":"m 397 821 q 342 843 364 821 q 321 899 321 865 q 352 974 321 942 q 424 1006 383 1006 q 481 984 460 1006 q 501 929 501 963 q 470 853 501 885 q 397 821 439 821 m 644 821 q 588 843 610 821 q 567 899 567 865 q 598 974 567 943 q 671 1006 629 1006 q 727 984 706 1006 q 749 929 749 963 q 716 853 749 886 q 644 821 683 821 m 515 0 l 526 67 q 328 -17 451 -17 q 188 40 244 -17 q 131 204 131 97 q 138 283 131 235 l 213 710 l 372 710 l 300 308 q 293 242 293 265 q 319 163 293 190 q 393 136 346 136 q 504 172 457 136 q 565 286 551 208 l 640 710 l 797 710 l 672 0 l 515 0 z "},"ý":{"ha":731,"x_min":133,"x_max":843,"o":"m 563 806 l 413 806 l 640 1022 l 843 1022 l 563 806 m 133 -269 l 288 17 l 156 710 l 314 710 l 392 274 q 401 213 399 235 q 431 274 407 229 l 665 710 l 836 710 l 306 -269 l 133 -269 z "},"þ":{"ha":756,"x_min":50,"x_max":768,"o":"m 418 -17 q 267 57 315 -17 l 218 -222 l 50 -279 l 265 943 l 433 1000 l 371 651 q 543 726 443 726 q 705 647 642 726 q 768 433 768 567 q 665 104 768 225 q 418 -17 563 -17 m 414 136 q 557 213 504 136 q 610 415 610 289 q 578 532 610 489 q 486 575 547 575 q 407 553 447 575 q 343 499 367 532 l 293 207 q 414 136 328 136 z "},"ÿ":{"ha":731,"x_min":133,"x_max":836,"o":"m 386 821 q 331 843 353 821 q 310 899 310 865 q 341 974 310 942 q 413 1006 372 1006 q 469 984 449 1006 q 490 929 490 963 q 459 853 490 885 q 386 821 428 821 m 633 821 q 577 843 599 821 q 556 899 556 865 q 587 974 556 943 q 660 1006 618 1006 q 716 984 694 1006 q 738 929 738 963 q 705 853 738 886 q 633 821 672 821 m 133 -269 l 288 17 l 156 710 l 314 710 l 392 274 q 401 213 399 235 q 431 274 407 229 l 665 710 l 836 710 l 306 -269 l 133 -269 z "},"Ā":{"ha":935,"x_min":42,"x_max":900,"o":"m 438 1061 l 460 1193 l 900 1193 l 878 1061 l 438 1061 m 42 0 l 561 972 l 718 972 l 897 0 l 729 0 l 692 214 l 331 214 l 218 0 l 42 0 m 407 364 l 667 364 l 615 664 q 609 702 614 669 q 603 744 604 735 q 565 667 585 700 l 407 364 z "},"ā":{"ha":726,"x_min":90,"x_max":747,"o":"m 285 821 l 307 953 l 747 953 l 725 821 l 285 821 m 488 0 l 499 57 q 306 -17 425 -17 q 151 40 213 -17 q 90 190 90 96 q 177 385 90 315 q 400 454 264 454 q 560 410 489 454 l 567 446 q 572 494 572 474 q 464 586 572 586 q 240 514 354 586 l 218 644 q 488 726 350 726 q 565 717 526 726 q 642 685 603 707 q 704 619 681 663 q 728 514 728 575 q 718 435 728 489 l 643 0 l 488 0 m 347 124 q 521 193 443 124 l 538 285 q 397 318 471 318 q 290 290 333 318 q 246 204 246 261 q 273 146 246 168 q 347 124 300 124 z "},"Ă":{"ha":935,"x_min":42,"x_max":946,"o":"m 656 1043 q 494 1095 549 1043 q 440 1228 440 1147 q 444 1276 440 1251 l 567 1276 q 565 1254 565 1269 q 592 1188 565 1213 q 674 1163 619 1163 q 774 1195 733 1163 q 822 1276 814 1228 l 946 1276 q 853 1110 928 1176 q 656 1043 778 1043 m 42 0 l 561 972 l 718 972 l 897 0 l 729 0 l 692 214 l 331 214 l 218 0 l 42 0 m 407 364 l 667 364 l 615 664 q 609 702 614 669 q 603 744 604 735 q 565 667 585 700 l 407 364 z "},"ă":{"ha":726,"x_min":90,"x_max":793,"o":"m 503 803 q 342 855 396 803 q 288 988 288 907 q 292 1036 288 1011 l 414 1036 q 413 1014 413 1029 q 440 947 413 972 q 521 922 467 922 q 621 955 581 922 q 669 1036 661 988 l 793 1036 q 700 869 775 936 q 503 803 625 803 m 488 0 l 499 57 q 306 -17 425 -17 q 151 40 213 -17 q 90 190 90 96 q 177 385 90 315 q 400 454 264 454 q 560 410 489 454 l 567 446 q 572 494 572 474 q 464 586 572 586 q 240 514 354 586 l 218 644 q 488 726 350 726 q 565 717 526 726 q 642 685 603 707 q 704 619 681 663 q 728 514 728 575 q 718 435 728 489 l 643 0 l 488 0 m 347 124 q 521 193 443 124 l 538 285 q 397 318 471 318 q 290 290 333 318 q 246 204 246 261 q 273 146 246 168 q 347 124 300 124 z "},"Ą":{"ha":935,"x_min":42,"x_max":897,"o":"m 679 -336 q 579 -303 617 -336 q 542 -214 542 -269 q 729 0 542 -75 l 692 214 l 331 214 l 218 0 l 42 0 l 561 972 l 718 972 l 897 0 q 737 -68 801 -10 q 672 -190 672 -126 q 718 -240 672 -240 q 782 -212 751 -240 l 843 -268 q 679 -336 775 -336 m 407 364 l 667 364 l 615 664 q 609 702 614 669 q 603 744 604 735 q 565 667 585 700 l 407 364 z "},"ą":{"ha":726,"x_min":90,"x_max":728,"o":"m 440 -336 q 340 -303 378 -336 q 303 -214 303 -269 q 488 0 303 -79 l 499 57 q 306 -17 425 -17 q 151 40 213 -17 q 90 190 90 96 q 177 385 90 315 q 400 454 264 454 q 560 410 489 454 l 567 446 q 572 494 572 474 q 464 586 572 586 q 240 514 354 586 l 218 644 q 488 726 350 726 q 565 717 526 726 q 642 685 603 707 q 704 619 681 663 q 728 514 728 575 q 718 435 728 489 l 643 0 q 494 -79 556 -28 q 433 -190 433 -131 q 479 -240 433 -240 q 542 -212 514 -240 l 604 -268 q 440 -336 533 -336 m 347 124 q 521 193 443 124 l 538 285 q 397 318 471 318 q 290 290 333 318 q 246 204 246 261 q 273 146 246 168 q 347 124 300 124 z "},"Ć":{"ha":850,"x_min":150,"x_max":975,"o":"m 694 1046 l 544 1046 l 772 1263 l 975 1263 l 694 1046 m 485 -17 q 235 100 321 -17 q 150 392 150 217 q 206 682 150 547 q 374 902 263 817 q 629 988 485 988 q 824 928 749 988 q 929 785 899 869 l 783 719 q 619 831 731 831 q 456 762 526 831 q 352 598 385 693 q 319 403 319 503 q 364 221 319 297 q 497 144 408 144 q 700 267 624 144 l 843 204 q 485 -17 711 -17 z "},"ć":{"ha":699,"x_min":115,"x_max":832,"o":"m 551 806 l 401 806 l 629 1022 l 832 1022 l 551 806 m 382 -17 q 186 68 257 -17 q 115 292 115 153 q 216 602 115 478 q 481 726 317 726 q 643 674 576 726 q 729 533 710 621 l 575 482 q 461 575 554 575 q 328 496 379 575 q 276 303 276 417 q 306 182 276 228 q 392 136 335 136 q 536 240 490 136 l 676 192 q 560 39 639 94 q 382 -17 482 -17 z "},"Ĉ":{"ha":850,"x_min":150,"x_max":929,"o":"m 760 1046 l 656 1153 l 514 1046 l 374 1046 l 599 1263 l 751 1263 l 901 1046 l 760 1046 m 485 -17 q 235 100 321 -17 q 150 392 150 217 q 206 682 150 547 q 374 902 263 817 q 629 988 485 988 q 824 928 749 988 q 929 785 899 869 l 783 719 q 619 831 731 831 q 456 762 526 831 q 352 598 385 693 q 319 403 319 503 q 364 221 319 297 q 497 144 408 144 q 700 267 624 144 l 843 204 q 485 -17 711 -17 z "},"ĉ":{"ha":699,"x_min":115,"x_max":758,"o":"m 617 806 l 513 913 l 371 806 l 231 806 l 456 1022 l 608 1022 l 758 806 l 617 806 m 382 -17 q 186 68 257 -17 q 115 292 115 153 q 216 602 115 478 q 481 726 317 726 q 643 674 576 726 q 729 533 710 621 l 575 482 q 461 575 554 575 q 328 496 379 575 q 276 303 276 417 q 306 182 276 228 q 392 136 335 136 q 536 240 490 136 l 676 192 q 560 39 639 94 q 382 -17 482 -17 z "},"Ċ":{"ha":850,"x_min":150,"x_max":929,"o":"m 640 1061 q 588 1083 608 1061 q 567 1139 567 1106 q 599 1215 567 1183 q 674 1246 631 1246 q 728 1224 707 1246 q 749 1169 749 1203 q 716 1093 749 1125 q 640 1061 683 1061 m 485 -17 q 235 100 321 -17 q 150 392 150 217 q 206 682 150 547 q 374 902 263 817 q 629 988 485 988 q 824 928 749 988 q 929 785 899 869 l 783 719 q 619 831 731 831 q 456 762 526 831 q 352 598 385 693 q 319 403 319 503 q 364 221 319 297 q 497 144 408 144 q 700 267 624 144 l 843 204 q 485 -17 711 -17 z "},"ċ":{"ha":699,"x_min":115,"x_max":729,"o":"m 497 821 q 444 843 465 821 q 424 899 424 865 q 456 974 424 943 q 531 1006 488 1006 q 585 984 564 1006 q 606 929 606 963 q 573 853 606 885 q 497 821 540 821 m 382 -17 q 186 68 257 -17 q 115 292 115 153 q 216 602 115 478 q 481 726 317 726 q 643 674 576 726 q 729 533 710 621 l 575 482 q 461 575 554 575 q 328 496 379 575 q 276 303 276 417 q 306 182 276 228 q 392 136 335 136 q 536 240 490 136 l 676 192 q 560 39 639 94 q 382 -17 482 -17 z "},"Č":{"ha":850,"x_min":150,"x_max":939,"o":"m 713 1046 l 561 1046 l 411 1263 l 551 1263 l 657 1156 l 797 1263 l 939 1263 l 713 1046 m 485 -17 q 235 100 321 -17 q 150 392 150 217 q 206 682 150 547 q 374 902 263 817 q 629 988 485 988 q 824 928 749 988 q 929 785 899 869 l 783 719 q 619 831 731 831 q 456 762 526 831 q 352 598 385 693 q 319 403 319 503 q 364 221 319 297 q 497 144 408 144 q 700 267 624 144 l 843 204 q 485 -17 711 -17 z "},"č":{"ha":699,"x_min":115,"x_max":796,"o":"m 569 806 l 418 806 l 268 1022 l 408 1022 l 514 915 l 654 1022 l 796 1022 l 569 806 m 382 -17 q 186 68 257 -17 q 115 292 115 153 q 216 602 115 478 q 481 726 317 726 q 643 674 576 726 q 729 533 710 621 l 575 482 q 461 575 554 575 q 328 496 379 575 q 276 303 276 417 q 306 182 276 228 q 392 136 335 136 q 536 240 490 136 l 676 192 q 560 39 639 94 q 382 -17 482 -17 z "},"Ď":{"ha":928,"x_min":104,"x_max":947,"o":"m 661 1039 l 510 1039 l 360 1256 l 500 1256 l 606 1149 l 746 1256 l 888 1256 l 661 1039 m 275 972 l 563 972 q 850 848 753 972 q 947 539 947 724 q 931 389 947 463 q 874 244 914 315 q 776 119 833 172 q 628 33 718 65 q 429 0 539 0 l 104 0 l 275 972 m 433 156 q 586 190 519 156 q 692 280 653 224 q 751 400 731 336 q 771 532 771 464 q 714 738 771 658 q 544 817 657 817 l 410 817 l 293 156 l 433 156 z "},"ď":{"ha":1018,"x_min":115,"x_max":1146,"o":"m 344 -17 q 177 65 239 -17 q 115 279 115 146 q 218 605 115 483 q 469 726 321 726 q 617 658 569 726 l 668 947 l 836 1003 l 660 0 l 504 0 l 515 63 q 344 -17 451 -17 m 1146 989 l 1143 974 q 947 640 1107 778 l 906 678 q 958 806 931 717 q 1001 989 985 894 l 1146 989 m 396 136 q 539 207 483 136 l 590 504 q 475 575 560 575 q 328 497 382 575 q 275 297 275 418 q 306 180 275 224 q 396 136 336 136 z "},"Đ":{"ha":932,"x_min":96,"x_max":951,"o":"m 108 0 l 181 410 l 96 410 l 124 563 l 207 563 l 279 972 l 567 972 q 853 849 756 972 q 951 539 951 726 q 923 353 951 443 q 837 181 894 263 q 674 50 779 100 q 433 0 569 0 l 108 0 m 297 156 l 438 156 q 591 190 524 156 q 697 280 658 224 q 756 401 736 336 q 775 532 775 465 q 717 738 775 658 q 549 817 660 817 l 414 817 l 369 563 l 564 563 l 536 410 l 343 410 l 297 156 z "},"đ":{"ha":754,"x_min":114,"x_max":896,"o":"m 788 751 l 656 0 l 500 0 l 511 54 q 344 -17 449 -17 q 176 58 238 -17 q 114 261 114 133 q 216 563 114 444 q 467 682 318 682 q 608 614 564 682 l 633 751 l 471 751 l 492 878 l 656 878 l 665 931 l 832 1003 l 810 878 l 896 878 l 874 751 l 788 751 m 393 136 q 536 206 482 136 l 582 460 q 540 508 571 488 q 463 529 508 529 q 324 463 375 529 q 272 290 272 396 q 303 180 272 224 q 393 136 335 136 z "},"Ē":{"ha":803,"x_min":104,"x_max":886,"o":"m 378 1054 l 400 1186 l 840 1186 l 818 1054 l 378 1054 m 104 0 l 275 972 l 886 972 l 860 817 l 415 817 l 374 579 l 642 579 l 614 425 l 346 425 l 299 156 l 772 156 l 744 0 l 104 0 z "},"ē":{"ha":726,"x_min":106,"x_max":749,"o":"m 285 821 l 307 953 l 747 953 l 725 821 l 285 821 m 389 -17 q 183 63 260 -17 q 106 285 106 143 q 210 596 106 465 q 486 726 315 726 q 680 652 611 726 q 749 447 749 578 q 722 293 749 369 l 267 293 l 267 278 q 307 166 267 207 q 408 125 347 125 q 569 194 497 125 l 649 89 q 389 -17 540 -17 m 290 429 l 594 429 q 594 471 597 453 q 469 586 581 586 q 354 544 401 586 q 290 429 307 501 z "},"Ĕ":{"ha":803,"x_min":104,"x_max":886,"o":"m 596 1036 q 435 1088 489 1036 q 381 1221 381 1140 q 385 1269 381 1244 l 507 1269 q 506 1247 506 1263 q 533 1181 506 1206 q 614 1156 560 1156 q 714 1188 674 1156 q 763 1269 754 1221 l 886 1269 q 793 1103 868 1169 q 596 1036 718 1036 m 104 0 l 275 972 l 886 972 l 860 817 l 415 817 l 374 579 l 642 579 l 614 425 l 346 425 l 299 156 l 772 156 l 744 0 l 104 0 z "},"ĕ":{"ha":726,"x_min":106,"x_max":793,"o":"m 503 803 q 342 855 396 803 q 288 988 288 907 q 292 1036 288 1011 l 414 1036 q 413 1014 413 1029 q 440 947 413 972 q 521 922 467 922 q 621 955 581 922 q 669 1036 661 988 l 793 1036 q 700 869 775 936 q 503 803 625 803 m 389 -17 q 183 63 260 -17 q 106 285 106 143 q 210 596 106 465 q 486 726 315 726 q 680 652 611 726 q 749 447 749 578 q 722 293 749 369 l 267 293 l 267 278 q 307 166 267 207 q 408 125 347 125 q 569 194 497 125 l 649 89 q 389 -17 540 -17 m 290 429 l 594 429 q 594 471 597 453 q 469 586 581 586 q 354 544 401 586 q 290 429 307 501 z "},"Ė":{"ha":803,"x_min":104,"x_max":886,"o":"m 599 1054 q 546 1076 567 1054 q 525 1132 525 1099 q 557 1208 525 1176 q 632 1239 589 1239 q 686 1217 665 1239 q 707 1163 707 1196 q 674 1086 707 1118 q 599 1054 642 1054 m 104 0 l 275 972 l 886 972 l 860 817 l 415 817 l 374 579 l 642 579 l 614 425 l 346 425 l 299 156 l 772 156 l 744 0 l 104 0 z "},"ė":{"ha":726,"x_min":106,"x_max":749,"o":"m 506 821 q 453 843 474 821 q 432 899 432 865 q 464 974 432 943 q 539 1006 496 1006 q 593 984 572 1006 q 614 929 614 963 q 581 853 614 885 q 506 821 549 821 m 389 -17 q 183 63 260 -17 q 106 285 106 143 q 210 596 106 465 q 486 726 315 726 q 680 652 611 726 q 749 447 749 578 q 722 293 749 369 l 267 293 l 267 278 q 307 166 267 207 q 408 125 347 125 q 569 194 497 125 l 649 89 q 389 -17 540 -17 m 290 429 l 594 429 q 594 471 597 453 q 469 586 581 586 q 354 544 401 586 q 290 429 307 501 z "},"Ę":{"ha":803,"x_min":104,"x_max":886,"o":"m 493 -336 q 392 -303 429 -336 q 356 -214 356 -271 q 539 0 356 -75 l 104 0 l 275 972 l 886 972 l 860 815 l 407 815 l 365 581 l 642 581 l 614 424 l 338 424 l 292 157 l 772 157 l 744 0 l 708 0 q 555 -62 624 0 q 486 -190 486 -125 q 532 -240 486 -240 q 594 -212 564 -240 l 657 -268 q 493 -336 586 -336 z "},"ę":{"ha":726,"x_min":106,"x_max":749,"o":"m 342 -336 q 242 -303 279 -336 q 204 -214 204 -269 q 360 -17 204 -92 q 318 -11 332 -14 q 163 88 219 11 q 106 285 106 165 q 210 596 106 465 q 489 726 315 726 q 681 654 614 726 q 749 447 749 582 q 722 293 749 369 l 267 293 l 267 278 q 307 167 267 208 q 408 125 347 125 q 569 194 496 125 l 649 89 q 499 -10 607 46 q 435 -44 456 -32 q 387 -79 415 -57 q 347 -128 358 -101 q 335 -190 335 -156 q 381 -240 335 -240 q 444 -212 414 -240 l 506 -268 q 342 -336 435 -336 m 289 429 l 593 429 q 594 471 594 436 q 469 586 581 586 q 353 544 400 586 q 289 429 307 503 z "},"Ě":{"ha":803,"x_min":104,"x_max":897,"o":"m 671 1039 l 519 1039 l 369 1256 l 510 1256 l 615 1149 l 756 1256 l 897 1256 l 671 1039 m 104 0 l 275 972 l 886 972 l 860 817 l 415 817 l 374 579 l 642 579 l 614 425 l 346 425 l 299 156 l 772 156 l 744 0 l 104 0 z "},"ě":{"ha":726,"x_min":106,"x_max":804,"o":"m 578 806 l 426 806 l 276 1022 l 417 1022 l 522 915 l 663 1022 l 804 1022 l 578 806 m 389 -17 q 183 63 260 -17 q 106 285 106 143 q 210 596 106 465 q 486 726 315 726 q 680 652 611 726 q 749 447 749 578 q 722 293 749 369 l 267 293 l 267 278 q 307 166 267 207 q 408 125 347 125 q 569 194 497 125 l 649 89 q 389 -17 540 -17 m 290 429 l 594 429 q 594 471 597 453 q 469 586 581 586 q 354 544 401 586 q 290 429 307 501 z "},"Ĝ":{"ha":904,"x_min":150,"x_max":939,"o":"m 758 1046 l 654 1153 l 513 1046 l 372 1046 l 597 1263 l 750 1263 l 900 1046 l 758 1046 m 499 -17 q 236 103 322 -17 q 150 403 150 222 q 181 621 150 517 q 272 808 213 725 q 423 940 331 890 q 629 989 515 989 q 939 792 846 989 l 792 713 q 614 832 732 832 q 395 703 476 832 q 314 407 314 575 q 361 215 314 289 q 507 140 408 140 q 644 188 588 140 q 719 317 700 236 l 725 344 l 554 344 l 582 492 l 928 492 l 918 440 q 769 91 881 199 q 499 -17 658 -17 z "},"ĝ":{"ha":754,"x_min":115,"x_max":786,"o":"m 615 806 l 511 913 l 369 806 l 229 806 l 454 1022 l 607 1022 l 757 806 l 615 806 m 224 -151 q 422 -104 357 -143 q 501 7 486 -65 l 510 56 q 344 -17 450 -17 q 177 63 239 -17 q 115 275 115 143 q 216 600 115 474 q 465 726 317 726 q 615 654 565 726 l 625 710 l 786 710 l 664 26 q 541 -204 635 -137 q 278 -283 447 -271 l 224 -151 m 394 136 q 536 208 482 136 l 589 504 q 544 553 575 532 q 468 575 513 575 q 326 495 378 575 q 274 296 274 415 q 305 181 274 226 q 394 136 336 136 z "},"Ğ":{"ha":904,"x_min":150,"x_max":939,"o":"m 636 1043 q 475 1095 529 1043 q 421 1228 421 1147 q 425 1276 421 1251 l 547 1276 q 546 1254 546 1269 q 573 1188 546 1213 q 654 1163 600 1163 q 754 1195 714 1163 q 803 1276 794 1228 l 926 1276 q 833 1110 908 1176 q 636 1043 758 1043 m 499 -17 q 236 103 322 -17 q 150 403 150 222 q 181 621 150 517 q 272 808 213 725 q 423 940 331 890 q 629 989 515 989 q 939 792 846 989 l 792 713 q 614 832 732 832 q 395 703 476 832 q 314 407 314 575 q 361 215 314 289 q 507 140 408 140 q 644 188 588 140 q 719 317 700 236 l 725 344 l 554 344 l 582 492 l 928 492 l 918 440 q 769 91 881 199 q 499 -17 658 -17 z "},"ğ":{"ha":754,"x_min":115,"x_max":786,"o":"m 493 803 q 332 855 386 803 q 278 988 278 907 q 282 1036 278 1011 l 404 1036 q 403 1014 403 1029 q 430 947 403 972 q 511 922 457 922 q 611 955 571 922 q 660 1036 651 988 l 783 1036 q 690 869 765 936 q 493 803 615 803 m 224 -151 q 422 -104 357 -143 q 501 7 486 -65 l 510 56 q 344 -17 450 -17 q 177 63 239 -17 q 115 275 115 143 q 216 600 115 474 q 465 726 317 726 q 615 654 565 726 l 625 710 l 786 710 l 664 26 q 541 -204 635 -137 q 278 -283 447 -271 l 224 -151 m 394 136 q 536 208 482 136 l 589 504 q 544 553 575 532 q 468 575 513 575 q 326 495 378 575 q 274 296 274 415 q 305 181 274 226 q 394 136 336 136 z "},"Ġ":{"ha":904,"x_min":150,"x_max":939,"o":"m 639 1061 q 586 1083 607 1061 q 565 1139 565 1106 q 597 1215 565 1183 q 672 1246 629 1246 q 726 1224 706 1246 q 747 1169 747 1203 q 715 1093 747 1125 q 639 1061 682 1061 m 499 -17 q 236 103 322 -17 q 150 403 150 222 q 181 621 150 517 q 272 808 213 725 q 423 940 331 890 q 629 989 515 989 q 939 792 846 989 l 792 713 q 614 832 732 832 q 395 703 476 832 q 314 407 314 575 q 361 215 314 289 q 507 140 408 140 q 644 188 588 140 q 719 317 700 236 l 725 344 l 554 344 l 582 492 l 928 492 l 918 440 q 769 91 881 199 q 499 -17 658 -17 z "},"ġ":{"ha":754,"x_min":115,"x_max":786,"o":"m 496 821 q 443 843 464 821 q 422 899 422 865 q 454 974 422 943 q 529 1006 486 1006 q 583 984 563 1006 q 604 929 604 963 q 572 853 604 885 q 496 821 539 821 m 224 -151 q 422 -104 357 -143 q 501 7 486 -65 l 510 56 q 344 -17 450 -17 q 177 63 239 -17 q 115 275 115 143 q 216 600 115 474 q 465 726 317 726 q 615 654 565 726 l 625 710 l 786 710 l 664 26 q 541 -204 635 -137 q 278 -283 447 -271 l 224 -151 m 394 136 q 536 208 482 136 l 589 504 q 544 553 575 532 q 468 575 513 575 q 326 495 378 575 q 274 296 274 415 q 305 181 274 226 q 394 136 336 136 z "},"Ģ":{"ha":904,"x_min":150,"x_max":939,"o":"m 499 -17 q 236 103 322 -17 q 150 403 150 222 q 181 621 150 517 q 272 808 213 725 q 423 940 331 890 q 629 989 515 989 q 939 792 846 989 l 792 713 q 614 832 732 832 q 395 703 476 832 q 314 407 314 575 q 361 215 314 289 q 507 140 408 140 q 644 188 588 140 q 719 317 700 236 l 725 344 l 554 344 l 582 492 l 928 492 l 918 440 q 769 91 881 199 q 499 -17 658 -17 m 411 -378 l 367 -346 q 449 -243 428 -293 q 398 -219 417 -240 q 379 -165 379 -199 q 409 -88 379 -119 q 479 -57 439 -57 q 542 -81 517 -57 q 567 -149 567 -106 q 411 -378 567 -278 z "},"ģ":{"ha":754,"x_min":115,"x_max":786,"o":"m 513 821 q 449 845 475 821 q 424 915 424 869 q 579 1142 424 1042 l 624 1110 q 543 1007 561 1050 q 593 983 574 1004 q 613 929 613 963 q 583 851 613 882 q 513 821 554 821 m 224 -151 q 422 -104 357 -143 q 501 7 486 -65 l 510 56 q 344 -17 450 -17 q 177 63 239 -17 q 115 275 115 143 q 216 600 115 474 q 465 726 317 726 q 615 654 565 726 l 625 710 l 786 710 l 664 26 q 541 -204 635 -137 q 278 -283 447 -271 l 224 -151 m 394 136 q 536 208 482 136 l 589 504 q 544 553 575 532 q 468 575 513 575 q 326 495 378 575 q 274 296 274 415 q 305 181 274 226 q 394 136 336 136 z "},"Ĥ":{"ha":943,"x_min":104,"x_max":1011,"o":"m 765 1042 l 661 1149 l 519 1042 l 379 1042 l 604 1258 l 757 1258 l 907 1042 l 765 1042 m 104 0 l 275 972 l 442 972 l 372 579 l 775 579 l 844 972 l 1011 972 l 840 0 l 674 0 l 747 424 l 346 424 l 271 0 l 104 0 z "},"ĥ":{"ha":768,"x_min":100,"x_max":824,"o":"m 682 1063 l 578 1169 l 436 1063 l 296 1063 l 521 1279 l 674 1279 l 824 1063 l 682 1063 m 100 0 l 265 947 l 435 1003 l 369 636 q 550 726 440 726 q 703 667 651 726 q 756 507 756 607 q 744 403 756 472 l 672 0 l 515 0 l 588 403 q 594 469 594 451 q 494 578 594 578 q 391 538 436 578 q 331 415 346 499 l 257 0 l 100 0 z "},"Ħ":{"ha":946,"x_min":106,"x_max":1103,"o":"m 675 0 l 749 424 l 347 424 l 272 0 l 106 0 l 228 703 l 119 703 l 146 858 l 256 858 l 276 972 l 443 972 l 424 858 l 825 858 l 846 972 l 1013 972 l 993 858 l 1103 858 l 1076 703 l 965 703 l 842 0 l 675 0 m 776 579 l 797 703 l 396 703 l 374 579 l 776 579 z "},"ħ":{"ha":761,"x_min":100,"x_max":747,"o":"m 515 0 l 579 360 q 586 426 586 401 q 486 535 586 535 q 383 494 428 535 q 324 374 338 454 l 257 0 l 100 0 l 232 751 l 154 751 l 175 878 l 254 878 l 265 947 l 435 1003 l 413 878 l 593 878 l 571 751 l 390 751 l 361 593 q 542 683 436 683 q 692 626 636 683 q 747 465 747 569 q 736 360 747 418 l 672 0 l 515 0 z "},"Ĩ":{"ha":374,"x_min":104,"x_max":661,"o":"m 483 1063 q 369 1095 433 1063 q 275 1128 306 1128 q 201 1068 215 1128 l 128 1068 q 306 1250 158 1250 q 419 1217 356 1250 q 514 1185 483 1185 q 588 1244 572 1185 l 661 1244 q 483 1063 628 1063 m 104 0 l 275 972 l 442 972 l 271 0 l 104 0 z "},"ĩ":{"ha":356,"x_min":76,"x_max":610,"o":"m 432 815 q 317 848 381 815 q 224 881 253 881 q 150 821 164 881 l 76 821 q 254 1003 107 1003 q 369 970 306 1003 q 463 938 433 938 q 536 997 521 938 l 610 997 q 432 815 576 815 m 100 0 l 225 710 l 382 710 l 257 0 l 100 0 z "},"Ī":{"ha":374,"x_min":104,"x_max":615,"o":"m 153 1061 l 175 1193 l 615 1193 l 593 1061 l 153 1061 m 104 0 l 275 972 l 442 972 l 271 0 l 104 0 z "},"ī":{"ha":356,"x_min":100,"x_max":564,"o":"m 101 814 l 124 946 l 564 946 l 542 814 l 101 814 m 100 0 l 225 710 l 382 710 l 257 0 l 100 0 z "},"Ĭ":{"ha":374,"x_min":104,"x_max":661,"o":"m 371 1043 q 210 1095 264 1043 q 156 1228 156 1147 q 160 1276 156 1251 l 282 1276 q 281 1254 281 1269 q 308 1188 281 1213 q 389 1163 335 1163 q 489 1195 449 1163 q 538 1276 529 1228 l 661 1276 q 568 1110 643 1176 q 371 1043 493 1043 m 104 0 l 275 972 l 442 972 l 271 0 l 104 0 z "},"ĭ":{"ha":356,"x_min":100,"x_max":610,"o":"m 319 796 q 158 848 213 796 q 104 981 104 900 q 108 1029 104 1004 l 231 1029 q 229 1007 229 1022 q 256 940 229 965 q 338 915 283 915 q 438 948 397 915 q 486 1029 478 981 l 610 1029 q 517 863 592 929 q 319 796 442 796 m 100 0 l 225 710 l 382 710 l 257 0 l 100 0 z "},"Į":{"ha":374,"x_min":-79,"x_max":442,"o":"m 58 -336 q -42 -303 -6 -336 q -79 -214 -79 -271 q 104 0 -79 -74 l 275 972 l 442 972 l 271 0 q 120 -67 190 -8 q 50 -189 50 -125 q 63 -227 50 -214 q 97 -240 76 -240 q 160 -212 132 -240 l 222 -268 q 58 -336 151 -336 z "},"į":{"ha":357,"x_min":-85,"x_max":429,"o":"m 322 810 q 267 833 289 810 q 246 889 246 856 q 278 965 246 932 q 350 997 310 997 q 407 975 385 997 q 429 919 429 953 q 397 842 429 875 q 322 810 364 810 m 54 -336 q -47 -303 -10 -336 q -85 -214 -85 -269 q 100 0 -85 -74 l 225 710 l 383 710 l 258 0 q 101 -81 156 -26 q 46 -189 46 -136 q 93 -240 46 -240 q 156 -212 128 -240 l 218 -268 q 54 -336 147 -336 z "},"İ":{"ha":374,"x_min":104,"x_max":482,"o":"m 374 1061 q 321 1083 342 1061 q 300 1139 300 1106 q 332 1215 300 1183 q 407 1246 364 1246 q 461 1224 440 1246 q 482 1169 482 1203 q 449 1093 482 1125 q 374 1061 417 1061 m 104 0 l 275 972 l 442 972 l 271 0 l 104 0 z "},"ı":{"ha":356,"x_min":100,"x_max":382,"o":"m 100 0 l 225 710 l 382 710 l 257 0 l 100 0 z "},"Ĳ":{"ha":1092,"x_min":104,"x_max":1160,"o":"m 104 0 l 275 972 l 442 972 l 271 0 l 104 0 m 714 -17 q 522 38 599 -17 q 417 186 444 92 l 563 250 q 708 142 606 142 q 878 322 846 142 l 992 972 l 1160 972 l 1039 289 q 985 132 1022 196 q 899 38 949 68 q 806 -5 850 7 q 714 -17 761 -17 z "},"ĳ":{"ha":767,"x_min":100,"x_max":836,"o":"m 322 810 q 267 832 289 810 q 244 888 244 854 q 276 965 244 932 q 347 997 308 997 q 406 975 383 997 q 428 919 428 953 q 396 842 428 875 q 322 810 364 810 m 729 810 q 674 832 696 810 q 651 888 651 854 q 683 965 651 932 q 756 997 715 997 q 814 975 792 997 q 836 919 836 953 q 803 842 836 875 q 729 810 771 810 m 100 0 l 225 710 l 383 710 l 258 0 l 100 0 m 356 -306 l 301 -174 q 449 -122 403 -158 q 507 -11 494 -86 l 633 710 l 792 710 l 667 1 q 575 -208 642 -139 q 356 -306 508 -278 z "},"Ĵ":{"ha":732,"x_min":57,"x_max":992,"o":"m 850 1044 l 746 1151 l 604 1044 l 464 1044 l 689 1261 l 842 1261 l 992 1044 l 850 1044 m 354 -17 q 162 38 239 -17 q 57 186 85 92 l 203 250 q 349 142 246 142 q 518 322 486 142 l 632 972 l 800 972 l 679 289 q 626 132 663 196 q 540 38 589 68 q 446 -5 490 7 q 354 -17 401 -17 z "},"ĵ":{"ha":358,"x_min":-107,"x_max":589,"o":"m 447 806 l 343 913 l 201 806 l 61 806 l 286 1022 l 439 1022 l 589 806 l 447 806 m -53 -299 l -107 -171 q 45 -119 0 -151 q 101 -25 90 -87 l 232 710 l 386 710 l 260 -6 q 159 -204 238 -135 q -53 -299 81 -274 z "},"Ķ":{"ha":918,"x_min":104,"x_max":992,"o":"m 693 0 l 526 485 l 318 265 l 271 0 l 104 0 l 275 972 l 442 972 l 363 521 l 792 972 l 992 972 l 650 614 l 869 0 l 693 0 m 393 -375 l 349 -343 q 431 -240 410 -290 q 380 -217 399 -237 q 361 -162 361 -196 q 391 -85 361 -117 q 461 -54 421 -54 q 524 -78 499 -54 q 549 -146 549 -103 q 393 -375 549 -275 z "},"ķ":{"ha":728,"x_min":100,"x_max":775,"o":"m 532 497 l 693 0 l 525 0 l 404 386 l 310 301 l 257 0 l 100 0 l 265 947 l 435 1003 l 347 507 l 572 710 l 775 710 l 532 497 m 292 -378 l 247 -346 q 329 -243 308 -293 q 278 -219 297 -240 q 260 -165 260 -199 q 290 -88 260 -119 q 360 -57 319 -57 q 422 -81 397 -57 q 447 -149 447 -106 q 292 -378 447 -278 z "},"ĸ":{"ha":713,"x_min":100,"x_max":778,"o":"m 511 0 l 403 317 l 289 197 l 254 0 l 100 0 l 225 710 l 379 710 l 326 407 l 610 710 l 778 710 l 526 446 l 681 0 l 511 0 z "},"Ĺ":{"ha":735,"x_min":104,"x_max":747,"o":"m 426 1046 l 276 1046 l 504 1263 l 707 1263 l 426 1046 m 104 0 l 275 972 l 442 972 l 299 157 l 747 157 l 719 0 l 104 0 z "},"ĺ":{"ha":367,"x_min":101,"x_max":656,"o":"m 375 1050 l 225 1050 l 453 1267 l 656 1267 l 375 1050 m 101 0 l 268 947 l 436 1003 l 258 0 l 101 0 z "},"Ļ":{"ha":735,"x_min":104,"x_max":747,"o":"m 104 0 l 275 972 l 442 972 l 299 157 l 747 157 l 719 0 l 104 0 m 332 -378 l 288 -346 q 369 -243 349 -293 q 319 -219 338 -240 q 300 -165 300 -199 q 330 -88 300 -119 q 400 -57 360 -57 q 463 -81 438 -57 q 488 -149 488 -106 q 332 -378 488 -278 z "},"ļ":{"ha":367,"x_min":56,"x_max":436,"o":"m 101 0 l 268 947 l 436 1003 l 258 0 l 101 0 m 100 -378 l 56 -346 q 138 -243 117 -293 q 87 -219 106 -240 q 68 -165 68 -199 q 98 -88 68 -119 q 168 -57 128 -57 q 231 -81 206 -57 q 256 -149 256 -106 q 100 -378 256 -278 z "},"Ľ":{"ha":735,"x_min":104,"x_max":747,"o":"m 444 1046 l 293 1046 l 143 1263 l 283 1263 l 389 1156 l 529 1263 l 671 1263 l 444 1046 m 104 0 l 275 972 l 442 972 l 299 157 l 747 157 l 719 0 l 104 0 z "},"ľ":{"ha":599,"x_min":101,"x_max":726,"o":"m 101 0 l 268 947 l 436 1003 l 258 0 l 101 0 m 726 989 l 724 974 q 528 640 688 778 l 486 678 q 538 806 511 717 q 582 989 565 894 l 726 989 z "},"Ŀ":{"ha":735,"x_min":104,"x_max":747,"o":"m 372 1061 q 319 1083 340 1061 q 299 1139 299 1106 q 331 1215 299 1183 q 406 1246 363 1246 q 460 1224 439 1246 q 481 1169 481 1203 q 448 1093 481 1125 q 372 1061 415 1061 m 104 0 l 275 972 l 442 972 l 299 157 l 747 157 l 719 0 l 104 0 z "},"ŀ":{"ha":708,"x_min":101,"x_max":704,"o":"m 101 0 l 268 947 l 436 1003 l 258 0 l 101 0 m 596 344 q 543 367 564 344 q 522 422 522 389 q 554 498 522 467 q 629 529 586 529 q 683 508 663 529 q 704 453 704 486 q 672 376 704 408 q 596 344 639 344 z "},"Ł":{"ha":735,"x_min":56,"x_max":747,"o":"m 104 0 l 158 313 l 56 240 l 92 424 l 190 492 l 275 972 l 442 972 l 381 625 l 578 761 l 542 578 l 349 444 l 297 157 l 747 157 l 719 0 l 104 0 z "},"ł":{"ha":367,"x_min":67,"x_max":453,"o":"m 94 407 l 183 468 l 268 947 l 436 1003 l 364 590 l 453 653 l 425 497 l 336 436 l 258 0 l 101 0 l 156 311 l 67 251 l 94 407 z "},"Ń":{"ha":942,"x_min":104,"x_max":1010,"o":"m 706 1042 l 556 1042 l 783 1258 l 986 1258 l 706 1042 m 104 0 l 275 972 l 429 972 l 704 365 q 731 296 726 318 q 739 365 733 329 l 846 972 l 1010 972 l 839 0 l 689 0 l 414 599 q 383 678 399 631 q 374 597 383 671 l 268 0 l 104 0 z "},"ń":{"ha":768,"x_min":100,"x_max":869,"o":"m 589 806 l 439 806 l 667 1022 l 869 1022 l 589 806 m 100 0 l 225 710 l 383 710 l 371 638 q 549 726 442 726 q 702 665 649 726 q 756 503 756 604 q 744 403 756 454 l 674 0 l 515 0 l 586 401 q 593 468 593 433 q 493 578 593 578 q 390 535 438 578 q 331 414 343 492 l 257 0 l 100 0 z "},"Ņ":{"ha":942,"x_min":104,"x_max":1010,"o":"m 104 0 l 275 972 l 429 972 l 704 365 q 731 296 726 318 q 739 365 733 329 l 846 972 l 1010 972 l 839 0 l 689 0 l 414 599 q 383 678 399 631 q 374 597 383 671 l 268 0 l 104 0 m 396 -375 l 351 -343 q 433 -240 413 -290 q 383 -217 401 -237 q 364 -162 364 -196 q 394 -85 364 -117 q 464 -54 424 -54 q 526 -78 501 -54 q 551 -146 551 -103 q 396 -375 551 -275 z "},"ņ":{"ha":768,"x_min":100,"x_max":756,"o":"m 100 0 l 225 710 l 383 710 l 371 638 q 549 726 442 726 q 702 665 649 726 q 756 503 756 604 q 744 403 756 454 l 674 0 l 515 0 l 586 401 q 593 468 593 433 q 493 578 593 578 q 390 535 438 578 q 331 414 343 492 l 257 0 l 100 0 m 317 -357 l 272 -325 q 354 -222 333 -272 q 303 -199 322 -219 q 285 -144 285 -178 q 315 -67 285 -99 q 385 -36 344 -36 q 447 -60 422 -36 q 472 -128 472 -85 q 317 -357 472 -257 z "},"Ň":{"ha":942,"x_min":104,"x_max":1010,"o":"m 724 1042 l 572 1042 l 422 1258 l 563 1258 l 668 1151 l 808 1258 l 950 1258 l 724 1042 m 104 0 l 275 972 l 429 972 l 704 365 q 731 296 726 318 q 739 365 733 329 l 846 972 l 1010 972 l 839 0 l 689 0 l 414 599 q 383 678 399 631 q 374 597 383 671 l 268 0 l 104 0 z "},"ň":{"ha":768,"x_min":100,"x_max":833,"o":"m 607 806 l 456 806 l 306 1022 l 446 1022 l 551 915 l 692 1022 l 833 1022 l 607 806 m 100 0 l 225 710 l 383 710 l 371 638 q 549 726 442 726 q 702 665 649 726 q 756 503 756 604 q 744 403 756 454 l 674 0 l 515 0 l 586 401 q 593 468 593 433 q 493 578 593 578 q 390 535 438 578 q 331 414 343 492 l 257 0 l 100 0 z "},"ŉ":{"ha":1079,"x_min":168,"x_max":1068,"o":"m 221 596 l 168 640 q 226 701 193 661 q 274 776 260 740 q 208 863 208 793 q 245 952 208 915 q 332 989 282 989 q 397 962 371 989 q 424 888 424 935 q 365 724 424 804 q 221 596 306 644 m 411 0 l 536 710 l 694 710 l 682 638 q 861 726 753 726 q 1015 665 961 726 q 1068 503 1068 604 q 1057 403 1068 467 l 985 0 l 828 0 l 899 401 q 906 468 906 450 q 806 578 906 578 q 703 535 750 578 q 642 414 656 492 l 569 0 l 411 0 z "},"Ŋ":{"ha":931,"x_min":104,"x_max":1000,"o":"m 503 -339 l 446 -210 q 603 -156 558 -187 q 660 -60 649 -125 l 674 22 l 408 599 q 379 678 393 629 q 368 597 375 631 l 263 0 l 104 0 l 275 972 l 425 972 l 700 365 q 725 296 715 331 q 730 334 726 308 q 733 365 733 360 l 840 972 l 1000 972 l 822 -32 q 718 -244 799 -175 q 503 -339 638 -314 z "},"ŋ":{"ha":767,"x_min":100,"x_max":756,"o":"m 306 -197 q 451 -146 407 -182 q 510 -35 496 -110 l 588 400 q 594 468 594 444 q 494 578 594 578 q 390 535 436 578 q 331 415 343 492 l 257 0 l 100 0 l 225 710 l 383 710 l 372 639 q 550 726 443 726 q 699 669 642 726 q 756 503 756 613 q 747 417 756 463 l 669 -24 q 574 -239 643 -175 q 360 -329 504 -303 l 306 -197 z "},"Ō":{"ha":958,"x_min":150,"x_max":979,"o":"m 417 1061 l 439 1193 l 879 1193 l 857 1061 l 417 1061 m 510 -17 q 344 18 415 -17 q 231 113 272 53 q 170 246 190 174 q 150 403 150 318 q 181 619 150 515 q 271 807 213 724 q 422 940 329 890 q 626 989 514 989 q 826 928 743 989 q 944 776 908 867 q 979 575 979 685 q 925 286 979 419 q 762 68 871 153 q 510 -17 653 -17 m 510 140 q 732 269 649 140 q 815 575 815 397 q 766 756 815 681 q 617 832 717 832 q 453 766 524 832 q 348 604 382 700 q 314 403 314 508 q 362 217 314 293 q 510 140 410 140 z "},"ō":{"ha":743,"x_min":115,"x_max":753,"o":"m 285 821 l 307 953 l 747 953 l 725 821 l 285 821 m 389 -17 q 184 64 253 -17 q 115 289 115 144 q 217 600 115 474 q 486 726 319 726 q 683 643 613 726 q 753 428 753 560 q 652 110 753 238 q 389 -17 551 -17 m 400 136 q 540 215 486 136 q 594 404 594 293 q 563 529 594 483 q 467 575 531 575 q 326 496 381 575 q 272 308 272 417 q 400 136 272 136 z "},"Ŏ":{"ha":958,"x_min":150,"x_max":979,"o":"m 635 1043 q 474 1095 528 1043 q 419 1228 419 1147 q 424 1276 419 1251 l 546 1276 q 544 1254 544 1269 q 572 1188 544 1213 q 653 1163 599 1163 q 753 1195 713 1163 q 801 1276 793 1228 l 925 1276 q 832 1110 907 1176 q 635 1043 757 1043 m 510 -17 q 344 18 415 -17 q 231 113 272 53 q 170 246 190 174 q 150 403 150 318 q 181 619 150 515 q 271 807 213 724 q 422 940 329 890 q 626 989 514 989 q 826 928 743 989 q 944 776 908 867 q 979 575 979 685 q 925 286 979 419 q 762 68 871 153 q 510 -17 653 -17 m 510 140 q 732 269 649 140 q 815 575 815 397 q 766 756 815 681 q 617 832 717 832 q 453 766 524 832 q 348 604 382 700 q 314 403 314 508 q 362 217 314 293 q 510 140 410 140 z "},"ŏ":{"ha":743,"x_min":115,"x_max":793,"o":"m 503 803 q 342 855 396 803 q 288 988 288 907 q 292 1036 288 1011 l 414 1036 q 413 1014 413 1029 q 440 947 413 972 q 521 922 467 922 q 621 955 581 922 q 669 1036 661 988 l 793 1036 q 700 869 775 936 q 503 803 625 803 m 389 -17 q 184 64 253 -17 q 115 289 115 144 q 217 600 115 474 q 486 726 319 726 q 683 643 613 726 q 753 428 753 560 q 652 110 753 238 q 389 -17 551 -17 m 400 136 q 540 215 486 136 q 594 404 594 293 q 563 529 594 483 q 467 575 531 575 q 326 496 381 575 q 272 308 272 417 q 400 136 272 136 z "},"Ő":{"ha":958,"x_min":150,"x_max":1125,"o":"m 414 1046 l 640 1263 l 839 1263 l 564 1046 l 414 1046 m 700 1046 l 926 1263 l 1125 1263 l 850 1046 l 700 1046 m 510 -17 q 344 18 415 -17 q 231 113 272 53 q 170 246 190 174 q 150 403 150 318 q 181 619 150 515 q 271 807 213 724 q 422 940 329 890 q 626 989 514 989 q 826 928 743 989 q 944 776 908 867 q 979 575 979 685 q 925 286 979 419 q 762 68 871 153 q 510 -17 653 -17 m 510 140 q 732 269 649 140 q 815 575 815 397 q 766 756 815 681 q 617 832 717 832 q 453 766 524 832 q 348 604 382 700 q 314 403 314 508 q 362 217 314 293 q 510 140 410 140 z "},"ő":{"ha":743,"x_min":115,"x_max":993,"o":"m 282 806 l 508 1022 l 707 1022 l 432 806 l 282 806 m 568 806 l 794 1022 l 993 1022 l 718 806 l 568 806 m 389 -17 q 184 64 253 -17 q 115 289 115 144 q 217 600 115 474 q 486 726 319 726 q 683 643 613 726 q 753 428 753 560 q 652 110 753 238 q 389 -17 551 -17 m 400 136 q 540 215 486 136 q 594 404 594 293 q 563 529 594 483 q 467 575 531 575 q 326 496 381 575 q 272 308 272 417 q 400 136 272 136 z "},"Œ":{"ha":1293,"x_min":149,"x_max":1376,"o":"m 510 -17 q 342 19 414 -17 q 228 115 269 54 q 168 246 188 175 q 149 397 149 317 q 201 683 149 551 q 365 902 254 815 q 626 989 476 989 q 813 939 738 989 l 818 972 l 1376 972 l 1350 817 l 958 817 l 917 579 l 1132 579 l 1104 425 l 889 425 l 843 156 l 1263 156 l 1235 0 l 647 0 l 649 8 q 510 -17 589 -17 m 508 140 q 686 215 610 140 l 776 733 q 615 832 722 832 q 451 767 522 832 q 347 606 381 701 q 313 404 313 510 q 360 217 313 293 q 508 140 408 140 z "},"œ":{"ha":1189,"x_min":115,"x_max":1213,"o":"m 383 -17 q 183 64 251 -17 q 115 285 115 144 q 218 599 115 471 q 483 726 321 726 q 700 619 632 726 q 942 726 800 726 q 1140 656 1067 726 q 1213 458 1213 586 q 1188 293 1213 367 l 732 293 l 732 278 q 772 166 732 207 q 874 125 813 125 q 1035 194 963 125 l 1111 92 q 843 -17 1000 -17 q 635 92 706 -17 q 383 -17 531 -17 m 756 429 l 1060 429 q 1058 475 1063 458 q 935 586 1046 586 q 819 544 865 586 q 756 429 772 503 m 394 136 q 540 215 485 136 q 594 404 594 293 q 564 529 594 483 q 474 575 533 575 q 328 496 383 575 q 272 308 272 417 q 303 182 272 228 q 394 136 335 136 z "},"Ŕ":{"ha":896,"x_min":104,"x_max":953,"o":"m 660 1046 l 510 1046 l 738 1263 l 940 1263 l 660 1046 m 953 694 q 940 604 953 649 q 900 516 928 560 q 822 439 872 472 q 706 392 772 406 l 817 0 l 639 0 l 532 382 l 338 382 l 271 0 l 104 0 l 275 972 l 672 972 q 885 891 818 972 q 953 694 953 810 m 613 536 q 746 582 707 536 q 785 689 785 628 q 753 781 785 744 q 654 817 722 817 l 414 817 l 365 536 l 613 536 z "},"ŕ":{"ha":549,"x_min":96,"x_max":782,"o":"m 501 806 l 351 806 l 579 1022 l 782 1022 l 501 806 m 96 0 l 221 710 l 379 710 l 365 635 q 526 728 428 728 q 639 679 590 728 l 592 531 q 488 571 546 571 q 388 530 435 571 q 324 397 340 489 l 254 0 l 96 0 z "},"Ŗ":{"ha":896,"x_min":104,"x_max":953,"o":"m 953 694 q 940 604 953 649 q 900 516 928 560 q 822 439 872 472 q 706 392 772 406 l 817 0 l 639 0 l 532 382 l 338 382 l 271 0 l 104 0 l 275 972 l 672 972 q 885 891 818 972 q 953 694 953 810 m 613 536 q 746 582 707 536 q 785 689 785 628 q 753 781 785 744 q 654 817 722 817 l 414 817 l 365 536 l 613 536 m 372 -378 l 328 -346 q 410 -243 389 -293 q 359 -219 378 -240 q 340 -165 340 -199 q 370 -88 340 -119 q 440 -57 400 -57 q 503 -81 478 -57 q 528 -149 528 -106 q 372 -378 528 -278 z "},"ŗ":{"ha":549,"x_min":51,"x_max":639,"o":"m 96 0 l 221 710 l 379 710 l 365 635 q 526 728 428 728 q 639 679 590 728 l 592 531 q 488 571 546 571 q 388 530 435 571 q 324 397 340 489 l 254 0 l 96 0 m 96 -378 l 51 -346 q 133 -243 113 -293 q 83 -219 101 -240 q 64 -165 64 -199 q 94 -88 64 -119 q 164 -57 124 -57 q 226 -81 201 -57 q 251 -149 251 -106 q 96 -378 251 -278 z "},"Ř":{"ha":896,"x_min":104,"x_max":953,"o":"m 678 1046 l 526 1046 l 376 1263 l 517 1263 l 622 1156 l 763 1263 l 904 1263 l 678 1046 m 953 694 q 940 604 953 649 q 900 516 928 560 q 822 439 872 472 q 706 392 772 406 l 817 0 l 639 0 l 532 382 l 338 382 l 271 0 l 104 0 l 275 972 l 672 972 q 885 891 818 972 q 953 694 953 810 m 613 536 q 746 582 707 536 q 785 689 785 628 q 753 781 785 744 q 654 817 722 817 l 414 817 l 365 536 l 613 536 z "},"ř":{"ha":549,"x_min":96,"x_max":746,"o":"m 519 806 l 368 806 l 218 1022 l 358 1022 l 464 915 l 604 1022 l 746 1022 l 519 806 m 96 0 l 221 710 l 379 710 l 365 635 q 526 728 428 728 q 639 679 590 728 l 592 531 q 488 571 546 571 q 388 530 435 571 q 324 397 340 489 l 254 0 l 96 0 z "},"Ś":{"ha":806,"x_min":106,"x_max":886,"o":"m 606 1046 l 456 1046 l 683 1263 l 886 1263 l 606 1046 m 676 732 q 625 808 663 778 q 528 838 588 838 q 418 806 458 838 q 378 725 378 774 q 420 652 378 683 q 522 595 463 621 q 642 537 582 569 q 745 442 703 504 q 788 292 788 379 q 687 67 788 150 q 422 -17 586 -17 q 217 52 299 -17 q 106 233 136 121 l 258 289 q 444 140 308 140 q 567 176 521 140 q 614 276 614 213 q 572 365 614 328 q 472 427 531 401 q 353 484 413 453 q 251 574 293 515 q 210 715 210 632 q 299 912 210 835 q 539 989 389 989 q 736 928 664 989 q 826 783 808 868 l 676 732 z "},"ś":{"ha":639,"x_min":76,"x_max":779,"o":"m 499 806 l 349 806 l 576 1022 l 779 1022 l 499 806 m 333 -17 q 178 19 249 -17 q 76 113 108 54 l 192 201 q 349 119 254 119 q 429 140 396 119 q 463 197 463 160 q 431 250 463 226 q 355 294 400 274 q 265 340 310 315 q 188 408 219 365 q 157 508 157 451 q 233 667 157 608 q 428 726 308 726 q 569 693 507 726 q 663 614 631 660 l 544 526 q 413 593 496 593 q 338 573 367 593 q 310 519 310 553 q 342 473 310 494 q 419 431 374 451 q 510 384 464 410 q 588 314 556 358 q 619 211 619 269 q 542 44 619 106 q 333 -17 465 -17 z "},"Ŝ":{"ha":806,"x_min":106,"x_max":826,"o":"m 671 1046 l 567 1153 l 425 1046 l 285 1046 l 510 1263 l 663 1263 l 813 1046 l 671 1046 m 676 732 q 625 808 663 778 q 528 838 588 838 q 418 806 458 838 q 378 725 378 774 q 420 652 378 683 q 522 595 463 621 q 642 537 582 569 q 745 442 703 504 q 788 292 788 379 q 687 67 788 150 q 422 -17 586 -17 q 217 52 299 -17 q 106 233 136 121 l 258 289 q 444 140 308 140 q 567 176 521 140 q 614 276 614 213 q 572 365 614 328 q 472 427 531 401 q 353 484 413 453 q 251 574 293 515 q 210 715 210 632 q 299 912 210 835 q 539 989 389 989 q 736 928 664 989 q 826 783 808 868 l 676 732 z "},"ŝ":{"ha":639,"x_min":76,"x_max":706,"o":"m 564 806 l 460 913 l 318 806 l 178 806 l 403 1022 l 556 1022 l 706 806 l 564 806 m 333 -17 q 178 19 249 -17 q 76 113 108 54 l 192 201 q 349 119 254 119 q 429 140 396 119 q 463 197 463 160 q 431 250 463 226 q 355 294 400 274 q 265 340 310 315 q 188 408 219 365 q 157 508 157 451 q 233 667 157 608 q 428 726 308 726 q 569 693 507 726 q 663 614 631 660 l 544 526 q 413 593 496 593 q 338 573 367 593 q 310 519 310 553 q 342 473 310 494 q 419 431 374 451 q 510 384 464 410 q 588 314 556 358 q 619 211 619 269 q 542 44 619 106 q 333 -17 465 -17 z "},"Ş":{"ha":806,"x_min":106,"x_max":826,"o":"m 343 -336 q 213 -275 250 -336 l 293 -221 q 343 -246 308 -246 q 398 -228 376 -246 q 419 -181 419 -210 q 403 -144 419 -158 q 360 -131 388 -131 q 301 -147 326 -131 l 276 -107 l 367 -14 q 199 69 265 3 q 106 233 133 135 l 258 289 q 444 140 308 140 q 567 176 521 140 q 614 276 614 213 q 572 365 614 328 q 472 427 531 401 q 353 484 413 453 q 251 574 293 515 q 210 715 210 632 q 299 912 210 835 q 539 989 389 989 q 736 928 664 989 q 826 783 808 868 l 676 732 q 625 808 663 778 q 528 838 588 838 q 418 806 458 838 q 378 725 378 774 q 420 652 378 683 q 522 595 463 621 q 642 537 582 569 q 745 442 703 504 q 788 292 788 379 q 696 75 788 158 q 454 -17 604 -8 l 414 -68 q 511 -97 479 -68 q 543 -171 543 -125 q 488 -290 543 -243 q 343 -336 433 -336 z "},"ş":{"ha":639,"x_min":76,"x_max":663,"o":"m 242 -336 q 111 -275 147 -336 l 190 -221 q 242 -246 206 -246 q 296 -228 275 -246 q 317 -181 317 -210 q 301 -144 317 -158 q 257 -131 285 -131 q 199 -147 224 -131 l 174 -107 l 268 -11 q 152 34 203 1 q 76 113 101 67 l 192 201 q 349 119 254 119 q 429 140 396 119 q 463 197 463 160 q 431 250 463 226 q 355 294 400 274 q 265 340 310 315 q 188 408 219 365 q 157 508 157 451 q 233 667 157 608 q 428 726 308 726 q 569 693 507 726 q 663 614 631 660 l 544 526 q 413 593 496 593 q 338 573 367 593 q 310 519 310 553 q 342 473 310 494 q 419 431 374 451 q 510 384 464 410 q 588 314 556 358 q 619 211 619 269 q 547 49 619 110 q 351 -17 475 -12 l 311 -68 q 409 -97 376 -68 q 442 -171 442 -125 q 386 -290 442 -243 q 242 -336 331 -336 z "},"Š":{"ha":806,"x_min":106,"x_max":850,"o":"m 624 1046 l 472 1046 l 322 1263 l 463 1263 l 568 1156 l 708 1263 l 850 1263 l 624 1046 m 676 732 q 625 808 663 778 q 528 838 588 838 q 418 806 458 838 q 378 725 378 774 q 420 652 378 683 q 522 595 463 621 q 642 537 582 569 q 745 442 703 504 q 788 292 788 379 q 687 67 788 150 q 422 -17 586 -17 q 217 52 299 -17 q 106 233 136 121 l 258 289 q 444 140 308 140 q 567 176 521 140 q 614 276 614 213 q 572 365 614 328 q 472 427 531 401 q 353 484 413 453 q 251 574 293 515 q 210 715 210 632 q 299 912 210 835 q 539 989 389 989 q 736 928 664 989 q 826 783 808 868 l 676 732 z "},"š":{"ha":639,"x_min":76,"x_max":743,"o":"m 517 806 l 365 806 l 215 1022 l 356 1022 l 461 915 l 601 1022 l 743 1022 l 517 806 m 333 -17 q 178 19 249 -17 q 76 113 108 54 l 192 201 q 349 119 254 119 q 429 140 396 119 q 463 197 463 160 q 431 250 463 226 q 355 294 400 274 q 265 340 310 315 q 188 408 219 365 q 157 508 157 451 q 233 667 157 608 q 428 726 308 726 q 569 693 507 726 q 663 614 631 660 l 544 526 q 413 593 496 593 q 338 573 367 593 q 310 519 310 553 q 342 473 310 494 q 419 431 374 451 q 510 384 464 410 q 588 314 556 358 q 619 211 619 269 q 542 44 619 106 q 333 -17 465 -17 z "},"Ţ":{"ha":789,"x_min":188,"x_max":910,"o":"m 318 -336 q 188 -275 225 -336 l 267 -221 q 318 -246 282 -246 q 372 -228 351 -246 q 393 -181 393 -210 q 333 -131 393 -131 q 275 -147 303 -131 l 250 -107 l 353 0 l 311 0 l 456 815 l 196 815 l 222 972 l 910 972 l 883 815 l 622 815 l 478 0 l 439 0 l 388 -68 q 485 -97 453 -68 q 518 -171 518 -125 q 463 -290 518 -243 q 318 -336 407 -336 z "},"ţ":{"ha":506,"x_min":90,"x_max":572,"o":"m 221 -336 q 90 -275 126 -336 l 169 -221 q 219 -246 185 -246 q 275 -228 254 -246 q 296 -181 296 -210 q 235 -131 296 -131 q 178 -147 203 -131 l 153 -107 l 249 -8 q 163 118 163 19 q 172 208 163 161 l 235 569 l 124 569 l 149 710 l 260 710 l 301 947 l 468 1003 l 417 710 l 572 710 l 549 569 l 393 569 l 332 224 q 324 168 324 186 q 375 124 324 124 q 482 153 419 124 l 449 14 q 331 -17 404 -10 l 290 -68 q 388 -97 356 -68 q 419 -171 419 -125 q 365 -290 419 -243 q 221 -336 310 -336 z "},"Ť":{"ha":789,"x_min":196,"x_max":910,"o":"m 653 1042 l 501 1042 l 351 1258 l 492 1258 l 597 1151 l 738 1258 l 879 1258 l 653 1042 m 622 815 l 478 0 l 311 0 l 456 815 l 196 815 l 222 972 l 910 972 l 883 815 l 622 815 z "},"ť":{"ha":549,"x_min":124,"x_max":758,"o":"m 758 1167 l 756 1151 q 560 818 719 956 l 518 856 q 570 983 543 894 q 614 1167 597 1072 l 758 1167 m 303 -17 q 200 20 238 -17 q 163 117 163 57 q 172 208 163 161 l 235 569 l 124 569 l 149 710 l 260 710 l 301 947 l 468 1003 l 417 710 l 572 710 l 549 569 l 393 569 l 332 224 q 324 168 324 183 q 375 124 324 124 q 482 153 419 124 l 449 14 q 303 -17 388 -17 z "},"Ŧ":{"ha":789,"x_min":196,"x_max":910,"o":"m 311 0 l 376 367 l 219 367 l 246 519 l 403 519 l 456 815 l 196 815 l 222 972 l 910 972 l 883 815 l 622 815 l 571 519 l 726 519 l 700 367 l 543 367 l 478 0 l 311 0 z "},"ŧ":{"ha":533,"x_min":94,"x_max":592,"o":"m 321 -17 q 219 20 257 -17 q 181 117 181 57 q 190 208 181 150 l 204 286 l 94 286 l 118 426 l 229 426 l 254 569 l 142 569 l 167 710 l 278 710 l 319 947 l 488 1003 l 436 710 l 592 710 l 567 569 l 411 569 l 386 426 l 542 426 l 517 286 l 361 286 l 350 224 q 343 168 343 179 q 394 124 343 124 q 500 153 439 124 l 468 14 q 321 -17 407 -17 z "},"Ũ":{"ha":933,"x_min":161,"x_max":1007,"o":"m 756 1058 q 642 1091 706 1058 q 547 1124 578 1124 q 474 1064 488 1124 l 400 1064 q 578 1246 431 1246 q 692 1213 628 1246 q 786 1181 756 1181 q 860 1240 844 1181 l 933 1240 q 756 1058 900 1058 m 485 -17 q 251 60 342 -17 q 161 286 161 136 q 175 422 161 343 l 274 972 l 439 972 l 338 394 q 328 301 328 332 q 496 143 328 143 q 653 194 590 143 q 736 369 715 244 l 843 972 l 1007 972 l 900 357 q 759 67 864 150 q 485 -17 654 -17 z "},"ũ":{"ha":768,"x_min":131,"x_max":807,"o":"m 629 822 q 514 855 578 822 q 421 888 450 888 q 347 828 361 888 l 274 828 q 451 1010 304 1010 q 567 977 503 1010 q 660 944 631 944 q 733 1004 718 944 l 807 1004 q 629 822 774 822 m 515 0 l 526 67 q 328 -17 451 -17 q 188 40 244 -17 q 131 204 131 97 q 138 283 131 235 l 213 710 l 372 710 l 300 308 q 293 242 293 265 q 319 163 293 190 q 393 136 346 136 q 504 172 457 136 q 565 286 551 208 l 640 710 l 797 710 l 672 0 l 515 0 z "},"Ū":{"ha":933,"x_min":161,"x_max":1007,"o":"m 425 1057 l 447 1189 l 888 1189 l 865 1057 l 425 1057 m 485 -17 q 251 60 342 -17 q 161 286 161 136 q 175 422 161 343 l 274 972 l 439 972 l 338 394 q 328 301 328 332 q 496 143 328 143 q 653 194 590 143 q 736 369 715 244 l 843 972 l 1007 972 l 900 357 q 759 67 864 150 q 485 -17 654 -17 z "},"ū":{"ha":768,"x_min":131,"x_max":797,"o":"m 299 821 l 321 953 l 761 953 l 739 821 l 299 821 m 515 0 l 526 67 q 328 -17 451 -17 q 188 40 244 -17 q 131 204 131 97 q 138 283 131 235 l 213 710 l 372 710 l 300 308 q 293 242 293 265 q 319 163 293 190 q 393 136 346 136 q 504 172 457 136 q 565 286 551 208 l 640 710 l 797 710 l 672 0 l 515 0 z "},"Ŭ":{"ha":933,"x_min":161,"x_max":1007,"o":"m 643 1039 q 482 1091 536 1039 q 428 1224 428 1143 q 432 1272 428 1247 l 554 1272 q 553 1250 553 1265 q 580 1183 553 1208 q 661 1158 607 1158 q 761 1191 721 1158 q 810 1272 801 1224 l 933 1272 q 840 1106 915 1172 q 643 1039 765 1039 m 485 -17 q 251 60 342 -17 q 161 286 161 136 q 175 422 161 343 l 274 972 l 439 972 l 338 394 q 328 301 328 332 q 496 143 328 143 q 653 194 590 143 q 736 369 715 244 l 843 972 l 1007 972 l 900 357 q 759 67 864 150 q 485 -17 654 -17 z "},"ŭ":{"ha":768,"x_min":131,"x_max":807,"o":"m 517 803 q 356 855 410 803 q 301 988 301 907 q 306 1036 301 1011 l 428 1036 q 426 1014 426 1029 q 453 947 426 972 q 535 922 481 922 q 635 955 594 922 q 683 1036 675 988 l 807 1036 q 714 869 789 936 q 517 803 639 803 m 515 0 l 526 67 q 328 -17 451 -17 q 188 40 244 -17 q 131 204 131 97 q 138 283 131 235 l 213 710 l 372 710 l 300 308 q 293 242 293 265 q 319 163 293 190 q 393 136 346 136 q 504 172 457 136 q 565 286 551 208 l 640 710 l 797 710 l 672 0 l 515 0 z "},"Ů":{"ha":933,"x_min":161,"x_max":1007,"o":"m 643 1026 q 542 1069 582 1026 q 503 1174 503 1113 q 564 1313 503 1254 q 704 1372 625 1372 q 803 1330 764 1372 q 843 1226 843 1288 q 782 1086 843 1146 q 643 1026 721 1026 m 663 1138 q 711 1158 690 1138 q 732 1211 732 1179 q 719 1248 732 1233 q 685 1263 706 1263 q 636 1242 657 1263 q 615 1189 615 1221 q 628 1152 615 1167 q 663 1138 642 1138 m 485 -17 q 251 60 342 -17 q 161 286 161 136 q 175 422 161 343 l 274 972 l 439 972 l 338 394 q 328 301 328 332 q 496 143 328 143 q 653 194 590 143 q 736 369 715 244 l 843 972 l 1007 972 l 900 357 q 759 67 864 150 q 485 -17 654 -17 z "},"ů":{"ha":768,"x_min":131,"x_max":797,"o":"m 517 790 q 416 833 456 790 q 376 938 376 876 q 438 1077 376 1018 q 578 1136 499 1136 q 677 1094 638 1136 q 717 990 717 1051 q 656 850 717 910 q 517 790 594 790 m 536 901 q 585 922 564 901 q 606 975 606 943 q 592 1012 606 997 q 558 1026 579 1026 q 510 1006 531 1026 q 489 953 489 985 q 502 916 489 931 q 536 901 515 901 m 515 0 l 526 67 q 328 -17 451 -17 q 188 40 244 -17 q 131 204 131 97 q 138 283 131 235 l 213 710 l 372 710 l 300 308 q 293 242 293 265 q 319 163 293 190 q 393 136 346 136 q 504 172 457 136 q 565 286 551 208 l 640 710 l 797 710 l 672 0 l 515 0 z "},"Ű":{"ha":933,"x_min":161,"x_max":1133,"o":"m 422 1042 l 649 1258 l 847 1258 l 572 1042 l 422 1042 m 708 1042 l 935 1258 l 1133 1258 l 858 1042 l 708 1042 m 485 -17 q 251 60 342 -17 q 161 286 161 136 q 175 422 161 343 l 274 972 l 439 972 l 338 394 q 328 301 328 332 q 496 143 328 143 q 653 194 590 143 q 736 369 715 244 l 843 972 l 1007 972 l 900 357 q 759 67 864 150 q 485 -17 654 -17 z "},"ű":{"ha":768,"x_min":131,"x_max":1007,"o":"m 296 806 l 522 1022 l 721 1022 l 446 806 l 296 806 m 582 806 l 808 1022 l 1007 1022 l 732 806 l 582 806 m 515 0 l 526 67 q 328 -17 451 -17 q 188 40 244 -17 q 131 204 131 97 q 138 283 131 235 l 213 710 l 372 710 l 300 308 q 293 242 293 265 q 319 163 293 190 q 393 136 346 136 q 504 172 457 136 q 565 286 551 208 l 640 710 l 797 710 l 672 0 l 515 0 z "},"Ų":{"ha":933,"x_min":161,"x_max":1007,"o":"m 436 -336 q 336 -303 374 -336 q 299 -214 299 -269 q 451 -17 299 -87 q 410 -11 424 -14 q 229 82 297 7 q 161 286 161 157 q 175 422 161 343 l 274 972 l 439 972 l 338 394 q 328 301 328 332 q 496 143 328 143 q 653 194 590 143 q 736 369 715 244 l 843 972 l 1007 972 l 900 357 q 798 108 871 190 q 603 -12 725 25 q 474 -88 518 -37 q 429 -189 429 -139 q 475 -240 429 -240 q 538 -212 507 -240 l 600 -268 q 436 -336 532 -336 z "},"ų":{"ha":768,"x_min":131,"x_max":797,"o":"m 469 -336 q 369 -303 406 -336 q 332 -214 332 -271 q 515 0 332 -76 l 526 67 q 328 -17 451 -17 q 188 40 244 -17 q 131 204 131 97 q 138 283 131 235 l 213 710 l 372 710 l 300 308 q 293 242 293 265 q 319 163 293 190 q 393 136 346 136 q 504 172 457 136 q 565 286 551 208 l 640 710 l 797 710 l 672 0 q 515 -83 567 -31 q 463 -190 463 -136 q 508 -240 463 -240 q 571 -212 543 -240 l 633 -268 q 469 -336 563 -336 z "},"Ŵ":{"ha":1119,"x_min":217,"x_max":1247,"o":"m 861 1046 l 757 1153 l 615 1046 l 475 1046 l 700 1263 l 853 1263 l 1003 1046 l 861 1046 m 238 0 l 217 972 l 382 972 l 383 388 q 383 347 383 372 q 382 317 382 322 q 410 389 383 321 l 656 972 l 794 972 l 838 386 q 840 317 840 342 q 864 385 849 346 l 1075 972 l 1247 972 l 881 0 l 729 0 l 679 582 q 676 674 676 618 q 643 586 668 644 l 389 0 l 238 0 z "},"ŵ":{"ha":976,"x_min":163,"x_max":1064,"o":"m 753 806 l 649 913 l 507 806 l 367 806 l 592 1022 l 744 1022 l 894 806 l 753 806 m 229 0 l 163 710 l 314 710 l 336 317 q 338 233 338 290 q 371 317 349 267 l 539 710 l 682 710 l 717 317 q 721 233 721 275 q 735 272 725 243 q 751 317 746 301 l 908 710 l 1064 710 l 764 0 l 621 0 l 579 385 q 575 478 575 419 q 538 383 560 432 l 371 0 l 229 0 z "},"Ŷ":{"ha":890,"x_min":200,"x_max":1029,"o":"m 744 1042 l 640 1149 l 499 1042 l 358 1042 l 583 1258 l 736 1258 l 886 1042 l 744 1042 m 361 0 l 431 392 l 200 972 l 372 972 l 533 550 l 844 972 l 1029 972 l 594 386 l 526 0 l 361 0 z "},"ŷ":{"ha":731,"x_min":133,"x_max":836,"o":"m 628 806 l 524 913 l 382 806 l 242 806 l 467 1022 l 619 1022 l 769 806 l 628 806 m 133 -269 l 288 17 l 156 710 l 314 710 l 392 274 q 401 213 399 235 q 431 274 407 229 l 665 710 l 836 710 l 306 -269 l 133 -269 z "},"Ÿ":{"ha":890,"x_min":200,"x_max":1029,"o":"m 503 1057 q 448 1079 469 1057 q 426 1135 426 1101 q 458 1210 426 1178 q 529 1242 489 1242 q 586 1220 565 1242 q 607 1165 607 1199 q 576 1089 607 1121 q 503 1057 544 1057 m 750 1057 q 694 1079 715 1057 q 672 1135 672 1101 q 703 1210 672 1179 q 776 1242 735 1242 q 833 1220 811 1242 q 854 1165 854 1199 q 822 1090 854 1122 q 750 1057 789 1057 m 361 0 l 431 392 l 200 972 l 372 972 l 533 550 l 844 972 l 1029 972 l 594 386 l 526 0 l 361 0 z "},"Ź":{"ha":849,"x_min":65,"x_max":946,"o":"m 660 1046 l 510 1046 l 738 1263 l 940 1263 l 660 1046 m 65 0 l 86 125 l 699 818 l 239 818 l 265 972 l 946 972 l 924 847 l 311 156 l 803 156 l 775 0 l 65 0 z "},"ź":{"ha":693,"x_min":71,"x_max":824,"o":"m 543 806 l 393 806 l 621 1022 l 824 1022 l 543 806 m 71 0 l 92 121 l 508 567 l 196 567 l 221 710 l 743 710 l 722 592 l 304 143 l 642 143 l 617 0 l 71 0 z "},"Ż":{"ha":849,"x_min":65,"x_max":946,"o":"m 606 1061 q 553 1083 574 1061 q 532 1139 532 1106 q 564 1215 532 1183 q 639 1246 596 1246 q 693 1224 672 1246 q 714 1169 714 1203 q 681 1093 714 1125 q 606 1061 649 1061 m 65 0 l 86 125 l 699 818 l 239 818 l 265 972 l 946 972 l 924 847 l 311 156 l 803 156 l 775 0 l 65 0 z "},"ż":{"ha":693,"x_min":71,"x_max":743,"o":"m 489 821 q 436 843 457 821 q 415 899 415 865 q 447 974 415 943 q 522 1006 479 1006 q 576 984 556 1006 q 597 929 597 963 q 565 853 597 885 q 489 821 532 821 m 71 0 l 92 121 l 508 567 l 196 567 l 221 710 l 743 710 l 722 592 l 304 143 l 642 143 l 617 0 l 71 0 z "},"Ž":{"ha":849,"x_min":65,"x_max":946,"o":"m 678 1046 l 526 1046 l 376 1263 l 517 1263 l 622 1156 l 763 1263 l 904 1263 l 678 1046 m 65 0 l 86 125 l 699 818 l 239 818 l 265 972 l 946 972 l 924 847 l 311 156 l 803 156 l 775 0 l 65 0 z "},"ž":{"ha":693,"x_min":71,"x_max":788,"o":"m 561 806 l 410 806 l 260 1022 l 400 1022 l 506 915 l 646 1022 l 788 1022 l 561 806 m 71 0 l 92 121 l 508 567 l 196 567 l 221 710 l 743 710 l 722 592 l 304 143 l 642 143 l 617 0 l 71 0 z "},"ſ":{"ha":460,"x_min":135,"x_max":610,"o":"m 135 0 l 279 821 q 476 992 310 992 q 610 954 542 992 l 586 824 q 490 847 533 847 q 432 790 442 847 l 292 0 l 135 0 z "},"ƒ":{"ha":499,"x_min":-51,"x_max":640,"o":"m 3 -329 l -51 -203 q 98 -148 50 -185 q 158 -42 146 -111 l 267 567 l 169 567 l 194 710 l 290 710 l 311 821 q 504 989 340 989 q 640 954 581 989 l 617 824 q 524 847 560 847 q 461 790 469 847 l 446 710 l 597 710 l 572 567 l 421 567 l 319 -14 q 217 -229 293 -158 q 3 -329 140 -300 z "},"Ǎ":{"ha":935,"x_min":42,"x_max":957,"o":"m 731 1046 l 579 1046 l 429 1263 l 569 1263 l 675 1156 l 815 1263 l 957 1263 l 731 1046 m 42 0 l 561 972 l 718 972 l 897 0 l 729 0 l 692 214 l 331 214 l 218 0 l 42 0 m 407 364 l 667 364 l 615 664 q 609 702 614 669 q 603 744 604 735 q 565 667 585 700 l 407 364 z "},"ǎ":{"ha":726,"x_min":90,"x_max":804,"o":"m 578 806 l 426 806 l 276 1022 l 417 1022 l 522 915 l 663 1022 l 804 1022 l 578 806 m 488 0 l 499 57 q 306 -17 425 -17 q 151 40 213 -17 q 90 190 90 96 q 177 385 90 315 q 400 454 264 454 q 560 410 489 454 l 567 446 q 572 494 572 474 q 464 586 572 586 q 240 514 354 586 l 218 644 q 488 726 350 726 q 565 717 526 726 q 642 685 603 707 q 704 619 681 663 q 728 514 728 575 q 718 435 728 489 l 643 0 l 488 0 m 347 124 q 521 193 443 124 l 538 285 q 397 318 471 318 q 290 290 333 318 q 246 204 246 261 q 273 146 246 168 q 347 124 300 124 z "},"Ǐ":{"ha":374,"x_min":104,"x_max":672,"o":"m 446 1046 l 294 1046 l 144 1263 l 285 1263 l 390 1156 l 531 1263 l 672 1263 l 446 1046 m 104 0 l 275 972 l 442 972 l 271 0 l 104 0 z "},"ǐ":{"ha":356,"x_min":93,"x_max":621,"o":"m 394 799 l 243 799 l 93 1015 l 233 1015 l 339 908 l 479 1015 l 621 1015 l 394 799 m 100 0 l 225 710 l 382 710 l 257 0 l 100 0 z "},"Ǒ":{"ha":958,"x_min":150,"x_max":979,"o":"m 710 1046 l 558 1046 l 408 1263 l 549 1263 l 654 1156 l 794 1263 l 936 1263 l 710 1046 m 510 -17 q 344 18 415 -17 q 231 113 272 53 q 170 246 190 174 q 150 403 150 318 q 181 619 150 515 q 271 807 213 724 q 422 940 329 890 q 626 989 514 989 q 826 928 743 989 q 944 776 908 867 q 979 575 979 685 q 925 286 979 419 q 762 68 871 153 q 510 -17 653 -17 m 510 140 q 732 269 649 140 q 815 575 815 397 q 766 756 815 681 q 617 832 717 832 q 453 766 524 832 q 348 604 382 700 q 314 403 314 508 q 362 217 314 293 q 510 140 410 140 z "},"ǒ":{"ha":743,"x_min":115,"x_max":804,"o":"m 578 806 l 426 806 l 276 1022 l 417 1022 l 522 915 l 663 1022 l 804 1022 l 578 806 m 389 -17 q 184 64 253 -17 q 115 289 115 144 q 217 600 115 474 q 486 726 319 726 q 683 643 613 726 q 753 428 753 560 q 652 110 753 238 q 389 -17 551 -17 m 400 136 q 540 215 486 136 q 594 404 594 293 q 563 529 594 483 q 467 575 531 575 q 326 496 381 575 q 272 308 272 417 q 400 136 272 136 z "},"Ǔ":{"ha":933,"x_min":161,"x_max":1007,"o":"m 718 1042 l 567 1042 l 417 1258 l 557 1258 l 663 1151 l 803 1258 l 944 1258 l 718 1042 m 485 -17 q 251 60 342 -17 q 161 286 161 136 q 175 422 161 343 l 274 972 l 439 972 l 338 394 q 328 301 328 332 q 496 143 328 143 q 653 194 590 143 q 736 369 715 244 l 843 972 l 1007 972 l 900 357 q 759 67 864 150 q 485 -17 654 -17 z "},"ǔ":{"ha":768,"x_min":131,"x_max":818,"o":"m 592 806 l 440 806 l 290 1022 l 431 1022 l 536 915 l 676 1022 l 818 1022 l 592 806 m 515 0 l 526 67 q 328 -17 451 -17 q 188 40 244 -17 q 131 204 131 97 q 138 283 131 235 l 213 710 l 372 710 l 300 308 q 293 242 293 265 q 319 163 293 190 q 393 136 346 136 q 504 172 457 136 q 565 286 551 208 l 640 710 l 797 710 l 672 0 l 515 0 z "},"Ǽ":{"ha":1163,"x_min":-42,"x_max":1246,"o":"m 829 1035 l 679 1035 l 907 1251 l 1110 1251 l 829 1035 m -42 0 l 671 972 l 1246 972 l 1219 817 l 829 817 l 788 579 l 1006 579 l 976 425 l 760 425 l 714 156 l 1132 156 l 1104 0 l 522 0 l 561 214 l 294 214 l 139 0 l -42 0 m 404 364 l 586 364 l 649 711 q 601 638 635 685 l 404 364 z "},"ǽ":{"ha":1131,"x_min":92,"x_max":1153,"o":"m 743 806 l 593 806 l 821 1022 l 1024 1022 l 743 806 m 293 -17 q 149 38 207 -17 q 92 190 92 93 q 179 388 92 319 q 393 457 267 457 q 542 418 478 457 l 549 458 q 551 494 551 486 q 525 563 551 539 q 451 586 499 586 q 235 514 340 586 l 214 644 q 476 726 340 726 q 581 701 532 726 q 658 631 631 675 q 896 726 746 726 q 1084 657 1015 726 q 1153 451 1153 588 q 1126 293 1153 375 l 672 293 q 671 276 671 286 q 710 165 671 206 q 814 125 750 125 q 974 194 903 125 l 1053 89 q 793 -17 944 -17 q 560 108 624 -17 q 293 -17 443 -17 m 693 429 l 997 429 q 999 468 1000 453 q 960 556 993 526 q 871 586 926 586 q 760 547 807 586 q 693 429 713 507 m 346 124 q 501 196 429 124 l 510 242 q 513 263 511 249 q 517 286 515 278 q 394 318 465 318 q 288 290 331 318 q 246 204 246 261 q 272 146 246 168 q 346 124 297 124 z "},"Ǿ":{"ha":958,"x_min":71,"x_max":1060,"o":"m 717 1064 l 567 1064 l 794 1281 l 997 1281 l 717 1064 m 71 -17 l 206 147 q 150 401 150 249 q 203 685 150 554 q 367 903 256 817 q 629 989 478 989 q 840 919 757 989 l 899 989 l 1060 989 l 922 822 q 979 575 979 717 q 925 286 979 419 q 761 68 871 153 q 507 -17 651 -17 q 288 51 374 -17 l 232 -17 l 71 -17 m 326 293 l 735 790 q 615 832 689 832 q 451 766 522 832 q 347 604 381 700 q 314 403 314 508 q 326 293 314 335 m 510 140 q 674 203 603 140 q 781 363 746 265 q 815 574 815 460 q 801 676 815 625 l 393 181 q 510 140 440 140 z "},"ǿ":{"ha":743,"x_min":60,"x_max":851,"o":"m 571 800 l 421 800 l 649 1017 l 851 1017 l 571 800 m 60 -17 l 157 101 q 115 289 115 176 q 217 600 115 474 q 486 726 319 726 q 633 683 569 726 l 669 726 l 808 726 l 708 604 q 753 428 753 531 q 652 110 753 238 q 389 -17 551 -17 q 232 24 293 -17 l 199 -17 l 60 -17 m 278 250 l 531 556 q 467 575 503 575 q 326 496 381 575 q 272 308 272 417 q 278 250 272 274 m 400 136 q 540 215 486 136 q 594 404 594 293 q 589 458 594 436 l 339 154 q 400 136 364 136 z "},"Ș":{"ha":806,"x_min":106,"x_max":826,"o":"m 676 732 q 625 808 663 778 q 528 838 588 838 q 418 806 458 838 q 378 725 378 774 q 420 652 378 683 q 522 595 463 621 q 642 537 582 569 q 745 442 703 504 q 788 292 788 379 q 687 67 788 150 q 422 -17 586 -17 q 217 52 299 -17 q 106 233 136 121 l 258 289 q 444 140 308 140 q 567 176 521 140 q 614 276 614 213 q 572 365 614 328 q 472 427 531 401 q 353 484 413 453 q 251 574 293 515 q 210 715 210 632 q 299 912 210 835 q 539 989 389 989 q 736 928 664 989 q 826 783 808 868 l 676 732 m 351 -378 l 307 -346 q 389 -243 368 -293 q 338 -219 357 -240 q 319 -165 319 -199 q 349 -88 319 -119 q 419 -57 379 -57 q 482 -81 457 -57 q 507 -149 507 -106 q 351 -378 507 -278 z "},"ș":{"ha":639,"x_min":76,"x_max":663,"o":"m 333 -17 q 178 19 249 -17 q 76 113 108 54 l 192 201 q 349 119 254 119 q 429 140 396 119 q 463 197 463 160 q 431 250 463 226 q 355 294 400 274 q 265 340 310 315 q 188 408 219 365 q 157 508 157 451 q 233 667 157 608 q 428 726 308 726 q 569 693 507 726 q 663 614 631 660 l 544 526 q 413 593 496 593 q 338 573 367 593 q 310 519 310 553 q 342 473 310 494 q 419 431 374 451 q 510 384 464 410 q 588 314 556 358 q 619 211 619 269 q 542 44 619 106 q 333 -17 465 -17 m 263 -378 l 218 -346 q 300 -243 279 -293 q 249 -219 268 -240 q 231 -165 231 -199 q 260 -88 231 -119 q 331 -57 290 -57 q 393 -81 368 -57 q 418 -149 418 -106 q 263 -378 418 -278 z "},"Ț":{"ha":789,"x_min":196,"x_max":910,"o":"m 622 815 l 478 0 l 311 0 l 456 815 l 196 815 l 222 972 l 910 972 l 883 815 l 622 815 m 310 -378 l 265 -346 q 347 -243 326 -293 q 297 -219 315 -240 q 278 -165 278 -199 q 308 -88 278 -119 q 378 -57 338 -57 q 440 -81 415 -57 q 465 -149 465 -106 q 310 -378 465 -278 z "},"ț":{"ha":506,"x_min":124,"x_max":572,"o":"m 303 -17 q 200 20 238 -17 q 163 117 163 57 q 172 208 163 161 l 235 569 l 124 569 l 149 710 l 260 710 l 301 947 l 468 1003 l 417 710 l 572 710 l 549 569 l 393 569 l 332 224 q 324 168 324 183 q 375 124 324 124 q 482 153 419 124 l 449 14 q 303 -17 388 -17 m 228 -378 l 183 -346 q 265 -243 244 -293 q 215 -219 233 -240 q 196 -165 196 -199 q 226 -88 196 -119 q 296 -57 256 -57 q 358 -81 333 -57 q 383 -149 383 -106 q 228 -378 383 -278 z "},"ȷ":{"ha":358,"x_min":-107,"x_max":386,"o":"m -53 -299 l -107 -171 q 45 -119 0 -151 q 101 -25 90 -87 l 232 710 l 386 710 l 260 -6 q 159 -204 238 -135 q -53 -299 81 -274 z "},"ˆ":{"ha":576,"x_min":213,"x_max":740,"o":"m 599 800 l 494 907 l 353 800 l 213 800 l 438 1017 l 590 1017 l 740 800 l 599 800 z "},"ˇ":{"ha":576,"x_min":247,"x_max":775,"o":"m 549 800 l 397 800 l 247 1017 l 388 1017 l 493 910 l 633 1017 l 775 1017 l 549 800 z "},"ˉ":{"ha":576,"x_min":265,"x_max":728,"o":"m 265 822 l 288 954 l 728 954 l 706 822 l 265 822 z "},"˘":{"ha":576,"x_min":265,"x_max":771,"o":"m 481 797 q 319 849 374 797 q 265 982 265 901 q 269 1031 265 1006 l 392 1031 q 390 1008 390 1024 q 417 942 390 967 q 499 917 444 917 q 599 949 558 917 q 647 1031 639 982 l 771 1031 q 678 864 753 931 q 481 797 603 797 z "},"˙":{"ha":576,"x_min":406,"x_max":588,"o":"m 479 815 q 426 838 447 815 q 406 893 406 860 q 438 969 406 938 q 513 1000 469 1000 q 567 978 546 1000 q 588 924 588 957 q 555 847 588 879 q 479 815 522 815 z "},"˚":{"ha":576,"x_min":313,"x_max":653,"o":"m 453 735 q 352 778 392 735 q 313 882 313 821 q 374 1022 313 963 q 514 1081 435 1081 q 613 1038 574 1081 q 653 935 653 996 q 592 794 653 854 q 453 735 531 735 m 472 846 q 521 867 500 846 q 542 919 542 888 q 528 956 542 942 q 494 971 515 971 q 446 950 467 971 q 425 897 425 929 q 438 860 425 875 q 472 846 451 846 z "},"˛":{"ha":576,"x_min":96,"x_max":426,"o":"m 233 -336 q 133 -303 169 -336 q 96 -214 96 -271 q 155 -78 96 -137 q 318 14 214 -19 l 426 14 q 276 -82 325 -26 q 226 -190 226 -137 q 272 -240 226 -240 q 335 -212 307 -240 l 399 -268 q 233 -336 325 -336 z "},"˜":{"ha":576,"x_min":225,"x_max":758,"o":"m 581 817 q 467 849 531 817 q 372 882 403 882 q 299 822 313 882 l 225 822 q 403 1004 256 1004 q 517 972 453 1004 q 611 939 581 939 q 685 999 669 939 l 758 999 q 581 817 725 817 z "},"˝":{"ha":576,"x_min":204,"x_max":915,"o":"m 204 800 l 431 1017 l 629 1017 l 354 800 l 204 800 m 490 800 l 717 1017 l 915 1017 l 640 800 l 490 800 z "},"̒":{"ha":0,"x_min":-160,"x_max":40,"o":"m -71 815 q -134 840 -108 815 q -160 910 -160 864 q -4 1136 -160 1036 l 40 1104 q -40 1001 -22 1044 q 10 978 -10 999 q 29 924 29 957 q 0 846 29 876 q -71 815 -29 815 z "},"̦":{"ha":0,"x_min":-421,"x_max":-221,"o":"m -376 -378 l -421 -346 q -339 -243 -360 -293 q -390 -219 -371 -240 q -408 -165 -408 -199 q -378 -88 -408 -119 q -308 -57 -349 -57 q -246 -81 -271 -57 q -221 -149 -221 -106 q -376 -378 -221 -278 z "},"Ω":{"ha":963,"x_min":85,"x_max":982,"o":"m 544 0 l 569 136 q 758 355 701 249 q 815 583 815 461 q 769 763 815 694 q 626 832 724 832 q 461 772 529 832 q 365 631 393 713 q 338 461 338 550 q 447 136 338 286 l 422 0 l 85 0 l 113 157 l 282 157 q 204 297 235 208 q 174 486 174 386 q 201 656 174 569 q 283 817 229 742 q 426 941 336 893 q 628 989 517 989 q 796 955 724 989 q 907 866 868 921 q 964 751 946 811 q 982 629 982 692 q 742 157 982 326 l 910 157 l 882 0 l 544 0 z "},"μ":{"ha":768,"x_min":43,"x_max":797,"o":"m 515 0 l 528 71 q 363 -17 465 -17 q 257 33 288 -17 l 211 -224 l 43 -279 l 217 710 l 372 710 l 301 307 q 294 240 294 269 q 399 136 294 136 q 506 175 460 136 q 567 299 551 214 l 640 710 l 797 710 l 672 0 l 515 0 z "},"π":{"ha":882,"x_min":47,"x_max":957,"o":"m 160 -32 l 47 75 q 117 122 86 97 q 181 188 147 146 q 240 296 214 231 q 281 449 265 361 l 297 543 l 179 543 l 208 710 l 957 710 l 928 543 l 774 543 l 714 210 q 711 176 711 185 q 757 125 711 125 q 868 154 806 125 l 826 14 q 694 -17 764 -17 q 590 23 629 -17 q 550 128 550 63 q 557 190 550 158 l 618 543 l 450 543 l 443 503 q 346 162 404 288 q 160 -32 288 36 z "},"Ẁ":{"ha":1119,"x_min":217,"x_max":1247,"o":"m 672 1046 l 468 1263 l 672 1263 l 824 1046 l 672 1046 m 238 0 l 217 972 l 382 972 l 383 388 q 383 347 383 372 q 382 317 382 322 q 410 389 383 321 l 656 972 l 794 972 l 838 386 q 840 317 840 342 q 864 385 849 346 l 1075 972 l 1247 972 l 881 0 l 729 0 l 679 582 q 676 674 676 618 q 643 586 668 644 l 389 0 l 238 0 z "},"ẁ":{"ha":976,"x_min":163,"x_max":1064,"o":"m 564 806 l 360 1022 l 564 1022 l 715 806 l 564 806 m 229 0 l 163 710 l 314 710 l 336 317 q 338 233 338 290 q 371 317 349 267 l 539 710 l 682 710 l 717 317 q 721 233 721 275 q 735 272 725 243 q 751 317 746 301 l 908 710 l 1064 710 l 764 0 l 621 0 l 579 385 q 575 478 575 419 q 538 383 560 432 l 371 0 l 229 0 z "},"Ẃ":{"ha":1119,"x_min":217,"x_max":1247,"o":"m 796 1046 l 646 1046 l 874 1263 l 1076 1263 l 796 1046 m 238 0 l 217 972 l 382 972 l 383 388 q 383 347 383 372 q 382 317 382 322 q 410 389 383 321 l 656 972 l 794 972 l 838 386 q 840 317 840 342 q 864 385 849 346 l 1075 972 l 1247 972 l 881 0 l 729 0 l 679 582 q 676 674 676 618 q 643 586 668 644 l 389 0 l 238 0 z "},"ẃ":{"ha":976,"x_min":163,"x_max":1064,"o":"m 688 806 l 538 806 l 765 1022 l 968 1022 l 688 806 m 229 0 l 163 710 l 314 710 l 336 317 q 338 233 338 290 q 371 317 349 267 l 539 710 l 682 710 l 717 317 q 721 233 721 275 q 735 272 725 243 q 751 317 746 301 l 908 710 l 1064 710 l 764 0 l 621 0 l 579 385 q 575 478 575 419 q 538 383 560 432 l 371 0 l 229 0 z "},"Ẅ":{"ha":1119,"x_min":217,"x_max":1247,"o":"m 619 1061 q 565 1083 586 1061 q 543 1139 543 1106 q 574 1215 543 1183 q 646 1246 606 1246 q 703 1224 682 1246 q 724 1169 724 1203 q 692 1093 724 1125 q 619 1061 661 1061 m 867 1061 q 810 1083 832 1061 q 789 1139 789 1106 q 820 1215 789 1183 q 893 1246 851 1246 q 949 1224 928 1246 q 971 1169 971 1203 q 938 1093 971 1125 q 867 1061 906 1061 m 238 0 l 217 972 l 382 972 l 383 388 q 383 347 383 372 q 382 317 382 322 q 410 389 383 321 l 656 972 l 794 972 l 838 386 q 840 317 840 342 q 864 385 849 346 l 1075 972 l 1247 972 l 881 0 l 729 0 l 679 582 q 676 674 676 618 q 643 586 668 644 l 389 0 l 238 0 z "},"ẅ":{"ha":976,"x_min":163,"x_max":1064,"o":"m 511 821 q 456 843 478 821 q 435 899 435 865 q 466 974 435 942 q 538 1006 497 1006 q 594 984 574 1006 q 615 929 615 963 q 584 853 615 885 q 511 821 553 821 m 758 821 q 702 843 724 821 q 681 899 681 865 q 712 974 681 943 q 785 1006 743 1006 q 841 984 819 1006 q 863 929 863 963 q 830 853 863 886 q 758 821 797 821 m 229 0 l 163 710 l 314 710 l 336 317 q 338 233 338 290 q 371 317 349 267 l 539 710 l 682 710 l 717 317 q 721 233 721 275 q 735 272 725 243 q 751 317 746 301 l 908 710 l 1064 710 l 764 0 l 621 0 l 579 385 q 575 478 575 419 q 538 383 560 432 l 371 0 l 229 0 z "},"Ỳ":{"ha":890,"x_min":200,"x_max":1029,"o":"m 556 1042 l 351 1258 l 556 1258 l 707 1042 l 556 1042 m 361 0 l 431 392 l 200 972 l 372 972 l 533 550 l 844 972 l 1029 972 l 594 386 l 526 0 l 361 0 z "},"ỳ":{"ha":731,"x_min":133,"x_max":836,"o":"m 439 806 l 235 1022 l 439 1022 l 590 806 l 439 806 m 133 -269 l 288 17 l 156 710 l 314 710 l 392 274 q 401 213 399 235 q 431 274 407 229 l 665 710 l 836 710 l 306 -269 l 133 -269 z "},"–":{"ha":660,"x_min":125,"x_max":676,"o":"m 125 329 l 150 468 l 676 468 l 651 329 l 125 329 z "},"—":{"ha":767,"x_min":51,"x_max":857,"o":"m 51 329 l 76 468 l 857 468 l 832 329 l 51 329 z "},"―":{"ha":767,"x_min":51,"x_max":857,"o":"m 51 329 l 76 468 l 857 468 l 832 329 l 51 329 z "},"‘":{"ha":313,"x_min":169,"x_max":425,"o":"m 261 596 q 196 623 222 596 q 169 697 169 650 q 228 860 169 781 q 372 989 288 940 l 425 944 q 366 884 399 924 q 318 808 333 844 q 366 778 347 801 q 385 724 385 756 q 348 633 385 669 q 261 596 311 596 z "},"’":{"ha":313,"x_min":168,"x_max":424,"o":"m 221 596 l 168 640 q 226 701 193 661 q 274 776 260 740 q 208 863 208 793 q 245 952 208 915 q 332 989 282 989 q 397 962 371 989 q 424 888 424 935 q 365 724 424 804 q 221 596 306 644 z "},"‚":{"ha":313,"x_min":28,"x_max":283,"o":"m 81 -196 l 28 -151 q 86 -90 53 -131 q 135 -14 119 -50 q 87 16 106 -7 q 68 71 68 39 q 103 162 68 126 q 186 197 139 197 q 256 170 229 197 q 283 96 283 143 q 224 -67 283 13 q 81 -196 165 -147 z "},"‛":{"ha":313,"x_min":193,"x_max":415,"o":"m 300 596 q 224 694 254 631 q 193 821 193 757 q 233 945 193 901 q 328 989 272 989 q 390 963 365 989 q 415 897 415 938 q 386 818 415 850 q 313 776 357 786 q 326 724 318 744 q 371 640 344 672 l 300 596 z "},"“":{"ha":617,"x_min":169,"x_max":729,"o":"m 261 596 q 196 623 222 596 q 169 697 169 650 q 228 860 169 781 q 372 989 288 940 l 425 944 q 366 884 399 924 q 318 808 333 844 q 366 778 347 801 q 385 724 385 756 q 348 633 385 669 q 261 596 311 596 m 564 596 q 499 623 524 596 q 474 699 474 650 q 533 860 474 781 q 676 989 592 939 l 729 944 q 670 884 703 924 q 624 808 638 844 q 671 778 653 801 q 689 724 689 756 q 651 632 689 668 q 564 596 613 596 z "},"”":{"ha":617,"x_min":168,"x_max":728,"o":"m 221 596 l 168 640 q 226 701 193 661 q 274 776 260 740 q 208 863 208 793 q 245 952 208 915 q 332 989 282 989 q 397 962 371 989 q 424 888 424 935 q 365 724 424 804 q 221 596 306 644 m 525 596 l 472 640 q 532 701 499 661 q 579 776 565 740 q 514 863 514 793 q 550 953 514 917 q 638 989 586 989 q 702 962 676 989 q 728 888 728 935 q 669 724 728 804 q 525 596 610 644 z "},"„":{"ha":617,"x_min":28,"x_max":588,"o":"m 81 -196 l 28 -151 q 86 -90 53 -131 q 135 -14 119 -50 q 87 16 106 -7 q 68 71 68 39 q 103 162 68 126 q 186 197 139 197 q 256 170 229 197 q 283 96 283 143 q 224 -67 283 13 q 81 -196 165 -147 m 385 -196 l 332 -151 q 391 -90 358 -131 q 438 -14 424 -50 q 390 16 408 -7 q 372 71 372 39 q 408 162 372 126 q 489 197 443 197 q 560 170 533 197 q 588 96 588 143 q 528 -67 588 13 q 385 -196 469 -147 z "},"†":{"ha":761,"x_min":188,"x_max":804,"o":"m 551 600 l 540 465 l 381 -196 l 311 -196 l 386 465 l 421 600 l 271 581 l 188 581 l 217 735 l 299 735 l 440 713 l 447 815 l 478 989 l 632 989 l 601 815 l 571 713 l 722 735 l 804 735 l 775 581 l 693 581 l 551 600 z "},"‡":{"ha":761,"x_min":96,"x_max":804,"o":"m 631 213 l 713 213 l 685 58 l 603 58 l 461 81 l 454 -22 l 424 -196 l 268 -196 l 299 -22 l 328 81 l 178 58 l 96 58 l 122 213 l 206 213 l 349 192 l 360 328 l 385 465 l 421 600 l 269 581 l 188 581 l 215 735 l 297 735 l 439 713 l 447 815 l 478 989 l 633 989 l 603 815 l 572 713 l 722 735 l 804 735 l 776 581 l 694 581 l 553 600 l 540 465 l 517 328 l 481 192 l 631 213 z "},"•":{"ha":550,"x_min":163,"x_max":560,"o":"m 326 292 q 208 340 254 292 q 163 457 163 388 q 232 616 163 549 q 393 683 301 683 q 513 635 465 683 q 560 517 560 586 q 490 358 560 424 q 326 292 419 292 z "},"…":{"ha":1310,"x_min":132,"x_max":1207,"o":"m 215 -17 q 156 8 179 -17 q 132 67 132 32 q 168 149 132 114 q 250 183 204 183 q 310 158 286 183 q 333 97 333 133 q 297 17 333 51 q 215 -17 261 -17 m 651 -17 q 592 8 615 -17 q 569 67 569 32 q 605 149 569 114 q 686 183 640 183 q 747 158 724 183 q 771 97 771 133 q 735 17 771 51 q 651 -17 699 -17 m 1089 -17 q 1029 8 1053 -17 q 1006 67 1006 32 q 1042 149 1006 114 q 1124 183 1078 183 q 1183 158 1160 183 q 1207 97 1207 133 q 1171 17 1207 51 q 1089 -17 1135 -17 z "},"‰":{"ha":1653,"x_min":168,"x_max":1640,"o":"m 321 -17 l 168 -17 l 982 989 l 1135 989 l 321 -17 m 367 485 q 228 544 274 485 q 183 686 183 604 q 211 821 183 754 q 303 938 239 888 q 457 989 368 989 q 595 929 550 989 q 640 788 640 869 q 569 580 640 675 q 367 485 499 485 m 390 617 q 474 662 443 617 q 504 768 504 707 q 486 832 504 807 q 433 857 468 857 q 351 813 381 857 q 321 704 321 768 q 338 641 321 665 q 390 617 356 617 m 846 -17 q 707 42 751 -17 q 663 185 663 101 q 690 321 663 254 q 781 438 717 388 q 935 489 846 489 q 1072 429 1028 489 q 1117 286 1117 369 q 1091 152 1117 218 q 1001 35 1065 86 q 846 -17 936 -17 m 1368 -17 q 1230 42 1275 -17 q 1185 185 1185 101 q 1201 287 1185 235 q 1250 385 1218 339 q 1336 460 1282 431 q 1457 489 1390 489 q 1596 429 1551 489 q 1640 286 1640 369 q 1624 185 1640 236 q 1578 88 1608 135 q 1492 13 1547 42 q 1368 -17 1438 -17 m 869 117 q 951 161 921 117 q 982 267 982 206 q 911 356 982 356 q 827 311 857 356 q 797 204 797 267 q 869 117 797 117 m 1392 117 q 1475 160 1444 117 q 1506 267 1506 204 q 1433 356 1506 356 q 1351 311 1381 356 q 1321 204 1321 267 q 1339 141 1321 165 q 1392 117 1357 117 z "},"′":{"ha":310,"x_min":146,"x_max":442,"o":"m 253 1014 l 442 1014 l 278 561 l 146 561 l 253 1014 z "},"″":{"ha":576,"x_min":146,"x_max":708,"o":"m 146 561 l 253 1014 l 442 1014 l 278 561 l 146 561 m 413 561 l 519 1014 l 708 1014 l 544 561 l 413 561 z "},"‹":{"ha":429,"x_min":103,"x_max":539,"o":"m 243 0 l 103 356 l 368 710 l 539 710 l 269 353 l 407 0 l 243 0 z "},"›":{"ha":429,"x_min":18,"x_max":451,"o":"m 18 0 l 288 360 l 150 710 l 311 710 l 451 356 l 186 0 l 18 0 z "},"⁄":{"ha":461,"x_min":-167,"x_max":801,"o":"m -167 -17 l 649 989 l 801 989 l -15 -17 l -167 -17 z "},"ⁿ":{"ha":625,"x_min":150,"x_max":690,"o":"m 489 393 l 549 719 q 554 779 554 753 q 478 864 554 864 q 392 830 429 864 q 346 736 356 796 l 285 393 l 150 393 l 254 978 l 389 978 l 378 915 q 529 992 436 992 q 644 944 597 992 q 690 808 690 897 q 685 742 690 769 l 624 393 l 489 393 z "},"₤":{"ha":792,"x_min":106,"x_max":899,"o":"m 106 0 l 133 157 q 253 288 206 189 l 151 288 l 172 411 l 286 411 q 288 433 288 417 q 283 503 288 444 l 189 503 l 210 626 l 261 626 q 258 664 258 646 q 351 894 258 800 q 626 989 443 989 q 899 889 785 989 l 815 742 q 601 836 725 836 q 465 790 511 836 q 419 674 419 743 q 426 626 419 651 l 688 626 l 665 503 l 450 503 q 452 483 450 499 q 454 458 454 467 q 451 411 454 439 l 649 411 l 628 288 l 415 288 q 318 156 386 217 l 778 156 l 751 0 l 106 0 z "},"€":{"ha":856,"x_min":101,"x_max":918,"o":"m 513 -17 q 221 306 239 -17 l 101 307 l 175 426 l 224 426 q 239 526 226 464 l 142 526 l 214 647 l 274 647 q 430 893 328 797 q 686 989 532 989 q 918 903 817 989 l 838 761 q 668 836 767 836 q 442 647 522 836 l 774 649 l 703 526 l 401 526 q 383 426 388 469 l 647 426 l 579 304 l 382 306 q 522 136 390 136 q 701 235 618 136 l 810 157 q 513 -17 688 -17 z "},"℅":{"ha":1404,"x_min":179,"x_max":1396,"o":"m 382 378 q 233 441 286 378 q 179 611 179 504 q 267 885 179 782 q 492 989 354 989 q 686 828 665 989 l 554 783 q 526 838 549 817 q 467 860 504 860 q 354 795 396 860 q 313 632 313 731 q 335 541 313 575 q 401 507 358 507 q 524 592 485 507 l 638 551 q 382 378 561 378 m 296 -17 l 1111 989 l 1250 989 l 435 -17 l 296 -17 m 1079 -17 q 924 47 981 -17 q 868 218 868 110 q 957 490 868 388 q 1186 593 1046 593 q 1340 530 1285 593 q 1396 358 1396 467 q 1308 85 1396 188 q 1079 -17 1219 -17 m 1101 113 q 1219 174 1175 113 q 1263 336 1263 235 q 1237 431 1263 396 q 1163 465 1211 465 q 1046 403 1090 465 q 1001 242 1001 342 q 1027 147 1001 182 q 1101 113 1053 113 z "},"ℓ":{"ha":639,"x_min":144,"x_max":721,"o":"m 343 -17 q 240 15 278 -17 q 201 113 201 47 q 207 172 201 143 l 228 294 q 168 267 192 275 l 144 396 q 256 450 193 415 l 301 706 q 391 924 328 858 q 553 989 454 989 q 675 944 629 989 q 721 817 721 899 q 698 693 721 753 q 646 592 675 633 q 566 507 617 551 q 483 440 515 463 q 399 383 451 417 l 367 207 q 365 193 367 201 q 363 178 364 185 q 363 168 363 172 q 401 125 363 125 q 518 188 451 125 l 544 72 q 343 -17 453 -17 m 529 861 q 488 830 504 861 q 456 707 471 799 l 428 549 q 564 799 564 651 q 529 861 564 861 z "},"№":{"ha":1581,"x_min":119,"x_max":1608,"o":"m 1293 379 q 1139 442 1194 379 q 1083 614 1083 504 q 1172 886 1083 783 q 1401 989 1261 989 q 1554 926 1500 989 q 1608 753 1608 863 q 1521 481 1608 583 q 1293 379 1433 379 m 119 0 l 290 972 l 440 972 l 715 365 q 740 296 735 324 q 745 333 742 307 q 749 365 749 358 l 856 972 l 1015 972 l 844 0 l 700 0 l 424 599 q 394 678 403 643 q 383 597 394 653 l 278 0 l 119 0 m 1315 508 q 1434 569 1390 508 q 1478 731 1478 631 q 1452 825 1478 790 q 1378 860 1426 860 q 1260 798 1306 860 q 1215 636 1215 736 q 1242 542 1215 576 q 1315 508 1268 508 m 1001 154 l 1025 283 l 1526 283 l 1503 154 l 1001 154 z "},"™":{"ha":1097,"x_min":93,"x_max":1111,"o":"m 244 386 l 244 861 l 93 861 l 93 972 l 514 972 l 514 861 l 364 861 l 364 386 l 244 386 m 1111 386 l 992 386 l 992 708 l 979 678 l 835 379 l 690 678 l 676 710 l 676 386 l 557 386 l 557 972 l 672 972 l 821 665 l 835 633 l 847 665 l 996 972 l 1111 972 l 1111 386 z "},"Ω":{"ha":963,"x_min":85,"x_max":982,"o":"m 544 0 l 569 136 q 758 355 701 249 q 815 583 815 461 q 769 763 815 694 q 626 832 724 832 q 461 772 529 832 q 365 631 393 713 q 338 461 338 550 q 447 136 338 286 l 422 0 l 85 0 l 113 157 l 282 157 q 204 297 235 208 q 174 486 174 386 q 201 656 174 569 q 283 817 229 742 q 426 941 336 893 q 628 989 517 989 q 796 955 724 989 q 907 866 868 921 q 964 751 946 811 q 982 629 982 692 q 742 157 982 326 l 910 157 l 882 0 l 544 0 z "},"℮":{"ha":1040,"x_min":135,"x_max":1079,"o":"m 614 -17 q 274 122 413 -17 q 135 486 135 261 q 175 708 135 610 q 283 868 215 807 q 438 961 351 929 q 618 993 524 993 q 788 960 708 993 q 932 866 868 928 q 1035 706 996 804 q 1079 486 1074 608 l 353 486 l 353 182 q 457 99 388 132 q 614 67 526 67 q 950 260 824 67 l 1021 217 q 849 42 944 101 q 614 -17 754 -17 m 868 801 q 759 879 828 849 q 614 910 690 910 q 353 814 456 910 l 353 567 l 868 568 l 868 801 z "},"⅓":{"ha":1025,"x_min":17,"x_max":1024,"o":"m 17 -17 l 832 989 l 983 989 l 168 -17 l 17 -17 m 154 393 l 231 829 l 164 829 l 182 931 q 286 979 253 931 l 386 979 l 283 393 l 154 393 m 707 188 q 785 108 717 108 q 844 131 822 108 q 867 189 867 154 q 801 244 867 244 l 751 244 l 771 357 l 815 357 q 872 378 853 357 q 890 428 890 399 q 877 463 890 449 q 840 476 864 476 q 756 417 790 476 l 653 458 q 748 559 689 522 q 874 596 807 596 q 983 557 943 596 q 1024 458 1024 518 q 996 367 1024 408 q 926 306 968 325 q 997 196 997 278 q 933 47 997 106 q 763 -12 868 -12 q 640 31 686 -12 q 582 153 593 75 l 707 188 z "},"⅔":{"ha":1247,"x_min":101,"x_max":1247,"o":"m 179 824 q 274 944 214 900 q 413 989 335 989 q 534 947 489 989 q 579 839 579 906 q 567 760 579 793 q 526 699 556 726 q 470 655 497 672 q 392 611 443 638 q 278 518 307 567 l 524 518 l 501 393 l 101 393 q 188 591 122 514 q 356 721 253 668 q 420 766 399 744 q 442 818 442 788 q 428 853 442 839 q 388 867 415 867 q 289 792 324 867 l 179 824 m 240 -17 l 1056 989 l 1207 989 l 392 -17 l 240 -17 m 931 188 q 1008 108 942 108 q 1068 131 1046 108 q 1090 189 1090 154 q 1025 244 1090 244 l 975 244 l 994 357 l 1039 357 q 1095 378 1076 357 q 1114 428 1114 399 q 1101 463 1114 449 q 1064 476 1088 476 q 979 417 1014 476 l 876 458 q 972 559 913 522 q 1097 596 1031 596 q 1207 557 1167 596 q 1247 458 1247 518 q 1219 367 1247 408 q 1150 306 1192 325 q 1221 196 1221 278 q 1156 47 1221 106 q 986 -12 1092 -12 q 863 31 910 -12 q 806 153 817 75 l 931 188 z "},"⅛":{"ha":1028,"x_min":17,"x_max":1019,"o":"m 17 -17 l 832 989 l 983 989 l 168 -17 l 17 -17 m 154 393 l 231 829 l 164 829 l 182 931 q 286 979 253 931 l 386 979 l 283 393 l 154 393 m 757 -12 q 629 31 676 -12 q 582 142 582 74 q 617 251 582 204 q 704 321 651 299 q 654 418 654 351 q 713 545 654 494 q 864 596 772 596 q 978 559 936 596 q 1019 464 1019 522 q 993 378 1019 415 q 928 321 967 340 q 977 271 958 304 q 996 197 996 238 q 928 47 996 107 q 757 -12 860 -12 m 825 375 q 879 394 858 375 q 900 442 900 413 q 885 478 900 464 q 846 492 871 492 q 793 472 815 492 q 771 422 771 451 q 785 388 771 401 q 825 375 800 375 m 775 90 q 849 118 819 90 q 879 189 879 146 q 859 242 879 221 q 804 263 839 263 q 729 233 760 263 q 699 160 699 203 q 719 109 699 128 q 775 90 740 90 z "},"⅜":{"ha":1200,"x_min":114,"x_max":1192,"o":"m 294 382 q 172 425 218 382 q 114 546 125 468 l 239 581 q 317 501 250 501 q 376 524 354 501 q 399 582 399 547 q 332 638 399 638 l 282 638 l 303 750 l 347 750 q 403 771 385 750 q 422 821 422 792 q 409 856 422 842 q 372 869 396 869 q 288 810 322 869 l 185 851 q 280 952 221 915 q 406 989 339 989 q 515 950 475 989 q 556 851 556 911 q 528 760 556 801 q 458 699 500 718 q 529 589 529 671 q 465 440 529 499 q 294 382 400 382 m 188 -17 l 1003 989 l 1156 989 l 340 -17 l 188 -17 m 929 -12 q 801 31 849 -12 q 754 142 754 74 q 789 251 754 204 q 876 321 824 299 q 826 418 826 351 q 885 545 826 494 q 1036 596 944 596 q 1150 559 1108 596 q 1192 464 1192 522 q 1165 378 1192 415 q 1100 321 1139 340 q 1149 271 1131 304 q 1168 197 1168 238 q 1100 47 1168 107 q 929 -12 1032 -12 m 997 375 q 1051 394 1031 375 q 1072 442 1072 413 q 1058 478 1072 464 q 1018 492 1043 492 q 965 472 988 492 q 943 422 943 451 q 958 388 943 401 q 997 375 972 375 m 947 90 q 1022 118 992 90 q 1051 189 1051 146 q 1031 242 1051 221 q 976 263 1011 263 q 901 233 932 263 q 871 160 871 203 q 892 109 871 128 q 947 90 913 90 z "},"⅝":{"ha":1192,"x_min":106,"x_max":1183,"o":"m 179 -17 l 994 989 l 1147 989 l 332 -17 l 179 -17 m 285 382 q 106 449 172 382 l 189 546 q 299 499 236 499 q 378 527 347 499 q 410 601 410 556 q 394 649 410 632 q 349 667 378 667 q 253 613 294 667 l 158 667 l 238 985 l 572 985 l 551 865 l 325 865 l 296 761 q 388 783 338 783 q 501 738 461 783 q 540 624 540 692 q 467 449 540 515 q 285 382 393 382 m 919 -12 q 792 30 839 -12 q 746 142 746 72 q 781 251 746 204 q 868 321 815 299 q 817 418 817 351 q 876 545 817 494 q 1028 596 936 596 q 1142 559 1100 596 q 1183 464 1183 522 q 1156 378 1183 417 q 1090 321 1129 340 q 1140 271 1121 304 q 1158 197 1158 238 q 1091 47 1158 107 q 919 -12 1024 -12 m 988 375 q 1042 394 1021 375 q 1063 442 1063 413 q 1048 478 1063 464 q 1008 492 1033 492 q 956 472 978 492 q 933 422 933 451 q 949 389 933 403 q 988 375 964 375 m 938 90 q 1013 118 983 90 q 1043 189 1043 146 q 1023 242 1043 221 q 968 263 1003 263 q 893 233 924 263 q 863 160 863 203 q 883 109 863 128 q 938 90 903 90 z "},"⅞":{"ha":1067,"x_min":54,"x_max":1058,"o":"m 54 -17 l 869 989 l 1022 989 l 207 -17 l 54 -17 m 185 393 q 407 860 231 650 l 160 860 l 181 985 l 572 985 l 553 876 q 397 648 456 781 q 315 393 339 515 l 185 393 m 796 -12 q 668 31 715 -12 q 621 142 621 74 q 656 251 621 204 q 743 321 690 299 q 693 418 693 351 q 752 545 693 494 q 903 596 811 596 q 1017 559 975 596 q 1058 464 1058 522 q 1032 378 1058 415 q 967 321 1006 340 q 1016 271 997 304 q 1035 197 1035 238 q 967 47 1035 107 q 796 -12 899 -12 m 864 375 q 918 394 897 375 q 939 442 939 413 q 924 478 939 464 q 885 492 910 492 q 832 472 854 492 q 810 422 810 451 q 824 388 810 401 q 864 375 839 375 m 814 90 q 888 118 858 90 q 918 189 918 146 q 898 242 918 221 q 843 263 878 263 q 768 233 799 263 q 738 160 738 203 q 758 109 738 128 q 814 90 779 90 z "},"←":{"ha":1069,"x_min":42,"x_max":1014,"o":"m 456 210 q 432 221 450 210 l 57 476 q 42 500 42 486 q 57 524 42 514 l 432 781 q 456 792 450 792 q 472 776 472 792 q 464 747 472 769 l 403 569 l 1014 585 l 1014 417 l 403 432 l 464 254 q 472 225 472 232 q 456 210 472 210 z "},"↑":{"ha":667,"x_min":42,"x_max":625,"o":"m 249 0 l 265 613 l 86 550 q 57 542 64 542 q 42 558 42 542 q 53 582 42 564 l 310 957 q 333 972 321 972 q 357 957 347 972 l 614 582 q 625 558 625 564 q 610 542 625 542 q 581 550 603 542 l 401 613 l 418 0 l 249 0 z "},"→":{"ha":1069,"x_min":56,"x_max":1028,"o":"m 614 210 q 597 225 597 210 q 606 254 597 232 l 668 432 l 56 417 l 56 585 l 668 569 l 606 747 q 597 776 597 769 q 614 792 597 792 q 638 781 619 792 l 1013 524 q 1028 500 1028 514 q 1013 476 1028 486 l 638 221 q 614 210 619 210 z "},"↓":{"ha":686,"x_min":46,"x_max":640,"o":"m 367 15 q 343 0 357 0 q 319 15 329 0 l 57 399 q 46 422 46 417 q 61 439 46 439 q 90 431 68 439 l 275 367 l 258 972 l 428 972 l 411 367 l 596 431 q 625 439 618 439 q 640 422 640 439 q 629 399 640 417 l 367 15 z "},"↔":{"ha":1368,"x_min":42,"x_max":1326,"o":"m 913 210 q 896 225 896 210 q 904 254 896 232 l 965 429 l 404 429 l 464 254 q 472 225 472 232 q 456 210 472 210 q 432 221 450 210 l 57 476 q 42 500 42 486 q 57 524 42 514 l 432 781 q 456 792 450 792 q 472 776 472 792 q 464 747 472 769 l 404 572 l 965 572 l 904 747 q 896 776 896 769 q 913 792 896 792 q 936 781 918 792 l 1311 524 q 1326 500 1326 514 q 1311 476 1326 486 l 936 221 q 913 210 918 210 z "},"↕":{"ha":686,"x_min":51,"x_max":635,"o":"m 365 -221 q 342 -236 356 -236 q 318 -221 328 -236 l 63 154 q 51 178 51 172 q 67 194 51 194 q 96 186 74 194 l 271 126 l 271 703 l 96 642 q 67 633 74 633 q 51 650 51 633 q 63 674 51 656 l 318 1049 q 342 1064 328 1064 q 365 1049 356 1064 l 624 674 q 635 650 635 656 q 619 633 635 633 q 590 642 613 633 l 414 703 l 414 126 l 590 186 q 619 194 613 194 q 635 178 635 194 q 624 154 635 172 l 365 -221 z "},"↖":{"ha":849,"x_min":63,"x_max":818,"o":"m 699 82 l 278 526 l 196 357 q 169 326 181 326 q 149 360 153 326 l 68 779 q 63 814 63 810 q 69 830 63 824 q 86 836 76 836 q 113 832 96 836 l 544 751 q 575 732 575 746 q 544 706 575 719 l 374 624 l 818 203 l 699 82 z "},"↗":{"ha":849,"x_min":32,"x_max":786,"o":"m 150 82 l 32 203 l 475 624 l 304 706 q 274 732 274 721 q 304 751 274 744 l 736 832 q 764 836 753 836 q 786 814 786 836 q 781 779 786 810 l 701 360 q 679 326 694 326 q 672 328 675 326 q 667 333 669 329 q 663 338 664 336 q 659 347 663 340 q 654 357 656 354 l 572 526 l 150 82 z "},"↘":{"ha":849,"x_min":32,"x_max":786,"o":"m 764 82 q 751 84 761 82 q 736 86 740 86 l 304 167 q 274 188 274 174 q 304 213 274 197 l 475 296 l 32 717 l 150 836 l 572 392 l 654 563 q 658 569 656 565 q 660 576 660 574 q 663 581 661 578 q 667 586 665 585 q 670 589 668 588 q 674 591 672 590 q 679 592 676 592 q 701 560 694 592 l 781 139 q 786 104 786 108 q 764 82 786 82 z "},"↙":{"ha":849,"x_min":63,"x_max":818,"o":"m 86 82 q 69 88 76 82 q 63 104 63 94 q 68 139 63 108 l 149 560 q 169 592 153 592 q 196 563 181 592 l 278 392 l 699 836 l 818 717 l 374 296 l 544 213 q 575 188 575 197 q 544 167 575 172 l 113 86 q 98 84 107 86 q 86 82 89 82 z "},"↳":{"ha":1056,"x_min":106,"x_max":1007,"o":"m 992 321 q 1007 297 1007 311 q 992 274 1007 283 l 617 18 q 593 7 599 7 q 576 22 576 7 q 585 51 576 29 l 644 226 l 106 226 l 106 972 l 253 972 l 253 369 l 644 369 l 585 544 q 576 574 576 567 q 593 589 576 589 q 617 578 599 589 l 992 321 z "},"↴":{"ha":1056,"x_min":106,"x_max":1007,"o":"m 992 447 q 1007 431 1007 447 q 996 407 1007 425 l 740 32 q 717 17 731 17 q 693 32 703 17 l 436 407 q 425 431 425 425 q 440 447 425 447 q 469 439 447 447 l 642 381 l 642 832 l 106 832 l 106 972 l 790 972 l 790 381 l 963 439 q 992 447 985 447 z "},"↵":{"ha":1056,"x_min":49,"x_max":950,"o":"m 803 972 l 950 972 l 950 226 l 411 226 l 471 51 q 479 22 479 29 q 463 7 479 7 q 439 18 457 7 l 64 274 q 49 297 49 283 q 64 321 49 311 l 439 578 q 463 589 457 589 q 479 574 479 589 q 471 544 479 567 l 411 369 l 803 369 l 803 972 z "},"↶":{"ha":1138,"x_min":49,"x_max":1026,"o":"m 646 989 q 918 883 810 989 q 1026 590 1026 776 l 1026 0 l 878 0 l 878 590 q 814 779 878 711 q 646 847 750 847 q 478 780 542 847 q 415 590 415 713 l 415 549 l 586 607 q 615 615 608 615 q 631 599 631 615 q 619 575 631 593 l 364 200 q 340 185 354 185 q 317 200 328 185 l 60 575 q 49 599 49 593 q 64 615 49 615 q 93 607 71 615 l 265 549 l 265 590 q 374 883 265 776 q 646 989 483 989 z "},"↷":{"ha":1138,"x_min":111,"x_max":1089,"o":"m 1074 615 q 1089 599 1089 615 q 1078 575 1089 593 l 821 200 q 797 185 811 185 q 774 200 783 185 l 518 575 q 507 599 507 593 q 522 615 507 615 q 551 607 529 615 l 724 549 l 724 590 q 660 780 724 713 q 492 847 597 847 q 324 779 388 847 q 261 590 261 711 l 261 0 l 111 0 l 111 590 q 219 883 111 776 q 492 989 328 989 q 763 883 654 989 q 872 590 872 776 l 872 549 l 1044 607 q 1074 615 1067 615 z "},"↸":{"ha":849,"x_min":63,"x_max":818,"o":"m 63 832 l 63 972 l 818 972 l 818 832 l 63 832 m 699 -44 l 278 400 l 196 231 q 169 200 181 200 q 149 233 153 200 l 68 653 q 63 688 63 683 q 69 703 63 697 q 86 710 76 710 q 113 706 96 710 l 544 625 q 575 606 575 619 q 544 579 575 593 l 374 497 l 818 76 l 699 -44 z "},"↹":{"ha":1354,"x_min":106,"x_max":1249,"o":"m 761 453 q 738 464 756 453 l 363 719 q 347 743 347 729 q 363 767 347 757 l 738 1024 q 761 1035 756 1035 q 778 1019 778 1035 q 769 990 778 1013 l 708 813 l 1249 828 l 1249 660 l 708 675 l 769 497 q 778 468 778 475 q 761 453 778 453 m 106 465 l 106 1021 l 268 1021 l 268 465 l 106 465 m 593 -340 q 576 -325 576 -340 q 585 -296 576 -318 l 646 -118 l 106 -135 l 106 35 l 646 19 l 585 197 q 576 226 576 219 q 593 242 576 242 q 617 231 599 242 l 992 -26 q 1007 -50 1007 -37 q 992 -74 1007 -64 l 617 -329 q 593 -340 599 -340 m 1086 -326 l 1086 228 l 1249 228 l 1249 -326 l 1086 -326 z "},"↺":{"ha":1175,"x_min":139,"x_max":1121,"o":"m 1090 914 q 1121 893 1121 908 q 1090 868 1121 882 l 921 786 q 1036 486 1036 657 q 904 169 1036 300 q 588 38 772 38 q 271 169 403 38 q 139 486 139 300 q 271 803 139 674 l 371 703 q 281 486 281 613 q 371 269 281 360 q 588 179 461 179 q 804 269 714 179 q 894 486 894 360 q 821 685 894 597 l 742 518 q 715 489 728 489 q 694 521 699 489 l 614 942 q 608 976 608 972 q 615 992 608 986 q 632 999 622 999 q 644 997 635 999 q 658 994 653 994 l 1090 914 z "},"⇚":{"ha":1069,"x_min":42,"x_max":1014,"o":"m 1014 592 l 410 592 l 392 539 l 1014 539 l 1014 463 l 393 463 l 410 411 l 1014 411 l 1014 335 l 436 335 l 464 254 q 472 225 472 232 q 456 210 472 210 q 432 221 450 210 l 57 476 q 42 500 42 486 q 57 524 42 514 l 432 781 q 456 792 450 792 q 472 776 472 792 q 464 747 472 769 l 436 668 l 1014 668 l 1014 592 z "},"⇛":{"ha":1069,"x_min":56,"x_max":1028,"o":"m 1013 524 q 1028 500 1028 514 q 1013 476 1028 486 l 638 221 q 614 210 619 210 q 597 225 597 210 q 606 254 597 232 l 633 335 l 56 335 l 56 411 l 660 411 l 678 463 l 56 463 l 56 539 l 679 539 l 660 592 l 56 592 l 56 668 l 633 668 l 606 747 q 597 776 597 769 q 614 792 597 792 q 638 781 619 792 l 1013 524 z "},"⇜":{"ha":1069,"x_min":42,"x_max":1014,"o":"m 919 575 l 1014 575 l 1014 428 l 878 428 l 850 515 l 796 349 l 707 349 l 653 517 l 599 349 l 510 349 l 483 428 l 390 428 l 450 254 q 458 225 458 232 q 443 210 458 210 q 419 221 438 210 l 57 478 q 42 501 42 488 q 57 524 42 513 l 419 781 q 443 792 435 792 q 458 776 458 792 q 450 747 458 769 l 390 575 l 525 575 l 554 486 l 608 654 l 697 654 l 751 486 l 806 654 l 894 654 l 919 575 z "},"⇝":{"ha":1069,"x_min":56,"x_max":1028,"o":"m 1013 524 q 1028 501 1028 513 q 1013 478 1028 488 l 651 221 q 628 210 633 210 q 611 225 611 210 q 619 254 611 232 l 681 428 l 586 428 l 561 349 l 472 349 l 418 517 l 364 349 l 275 349 l 221 515 l 193 428 l 56 428 l 56 575 l 150 575 l 176 654 l 265 654 l 319 486 l 374 654 l 463 654 l 517 486 l 544 575 l 681 575 l 619 747 q 611 776 611 769 q 628 792 611 792 q 651 781 636 792 l 1013 524 z "},"⇞":{"ha":667,"x_min":42,"x_max":625,"o":"m 614 582 q 625 558 625 564 q 610 542 625 542 q 581 550 603 542 l 406 611 l 406 468 l 608 468 l 608 353 l 406 353 l 406 256 l 608 256 l 608 140 l 406 140 l 406 0 l 261 0 l 261 140 l 57 140 l 57 256 l 261 256 l 261 353 l 57 353 l 57 468 l 261 468 l 261 611 l 86 550 q 57 542 64 542 q 42 558 42 542 q 53 582 42 564 l 310 957 q 333 972 321 972 q 357 957 347 972 l 614 582 z "},"⇟":{"ha":667,"x_min":42,"x_max":625,"o":"m 610 431 q 625 414 625 431 q 614 390 625 408 l 357 15 q 333 0 347 0 q 310 15 321 0 l 53 390 q 42 414 42 408 q 57 431 42 431 q 86 422 64 431 l 261 363 l 261 504 l 57 504 l 57 619 l 261 619 l 261 717 l 57 717 l 57 832 l 261 832 l 261 972 l 406 972 l 406 832 l 608 832 l 608 717 l 406 717 l 406 619 l 608 619 l 608 504 l 406 504 l 406 363 l 581 422 q 610 431 603 431 z "},"⇠":{"ha":1069,"x_min":42,"x_max":1014,"o":"m 464 747 l 404 572 l 510 572 l 510 429 l 404 429 l 464 254 q 472 225 472 232 q 456 210 472 210 q 432 221 450 210 l 57 476 q 42 500 42 486 q 57 524 42 514 l 432 781 q 456 792 450 792 q 472 776 472 792 q 464 747 472 769 m 617 429 l 617 572 l 763 572 l 763 429 l 617 429 m 869 572 l 1014 572 l 1014 429 l 869 429 l 869 572 z "},"⇡":{"ha":667,"x_min":42,"x_max":625,"o":"m 614 582 q 625 558 625 564 q 610 542 625 542 q 581 550 603 542 l 407 610 l 407 500 l 260 500 l 260 610 l 86 550 q 57 542 64 542 q 42 558 42 542 q 53 582 42 564 l 310 957 q 333 972 321 972 q 357 957 347 972 l 614 582 m 260 250 l 260 393 l 407 393 l 407 250 l 260 250 m 260 0 l 260 143 l 407 143 l 407 0 l 260 0 z "},"⇢":{"ha":1069,"x_min":56,"x_max":1028,"o":"m 1013 524 q 1028 500 1028 514 q 1013 476 1028 486 l 638 221 q 614 210 619 210 q 597 225 597 210 q 606 254 597 232 l 667 429 l 560 429 l 560 572 l 667 572 l 606 747 q 597 776 597 769 q 614 792 597 792 q 638 781 619 792 l 1013 524 m 56 429 l 56 572 l 201 572 l 201 429 l 56 429 m 308 429 l 308 572 l 453 572 l 453 429 l 308 429 z "},"⇣":{"ha":667,"x_min":42,"x_max":625,"o":"m 407 972 l 407 826 l 260 826 l 260 972 l 407 972 m 407 719 l 407 574 l 260 574 l 260 719 l 407 719 m 610 431 q 625 414 625 431 q 614 390 625 408 l 357 15 q 333 0 347 0 q 310 15 321 0 l 53 390 q 42 414 42 408 q 57 431 42 431 q 86 422 64 431 l 260 363 l 260 467 l 407 467 l 407 363 l 581 422 q 610 431 603 431 z "},"⇤":{"ha":1254,"x_min":106,"x_max":1199,"o":"m 106 144 l 106 854 l 268 854 l 268 144 l 106 144 m 761 210 q 738 221 756 210 l 363 476 q 347 500 347 486 q 363 524 347 514 l 738 781 q 761 792 756 792 q 778 776 778 792 q 769 747 778 769 l 708 569 l 1199 585 l 1199 417 l 708 432 l 769 254 q 778 225 778 232 q 761 210 778 210 z "},"⇥":{"ha":1254,"x_min":56,"x_max":1149,"o":"m 986 144 l 986 854 l 1149 854 l 1149 144 l 986 144 m 493 210 q 476 225 476 210 q 485 254 476 232 l 546 432 l 56 417 l 56 585 l 546 569 l 485 747 q 476 776 476 769 q 493 792 476 792 q 517 781 499 792 l 892 524 q 907 500 907 514 q 892 476 907 486 l 517 221 q 493 210 499 210 z "},"∂":{"ha":785,"x_min":85,"x_max":811,"o":"m 358 -17 q 157 60 229 -17 q 85 253 85 136 q 195 519 85 421 q 450 617 306 617 q 577 589 528 617 q 646 521 626 561 q 648 533 646 524 q 651 553 650 543 q 653 575 653 564 q 585 767 653 703 q 403 843 517 832 l 464 989 q 727 855 643 958 q 811 560 811 751 q 782 360 811 460 q 699 174 753 260 q 556 36 644 89 q 358 -17 467 -17 m 375 138 q 526 194 464 138 q 589 331 589 251 q 549 428 589 393 q 443 463 510 463 q 300 406 358 463 q 242 268 242 350 q 278 174 242 210 q 375 138 314 138 z "},"∆":{"ha":851,"x_min":24,"x_max":828,"o":"m 24 0 l 524 972 l 669 972 l 828 0 l 24 0 m 272 156 l 647 156 l 576 639 q 563 738 567 683 q 515 639 550 706 l 272 156 z "},"∏":{"ha":968,"x_min":83,"x_max":1019,"o":"m 658 -194 l 836 818 l 418 818 l 240 -194 l 83 -194 l 289 972 l 1019 972 l 814 -194 l 658 -194 z "},"∑":{"ha":821,"x_min":25,"x_max":921,"o":"m 25 -194 l 51 -47 l 447 403 l 225 825 l 251 972 l 921 972 l 894 819 l 414 819 l 639 399 l 260 -40 l 768 -40 l 740 -194 l 25 -194 z "},"−":{"ha":840,"x_min":194,"x_max":806,"o":"m 194 554 l 806 554 l 806 399 l 194 399 l 194 554 z "},"∕":{"ha":461,"x_min":-165,"x_max":799,"o":"m -165 -17 l 651 989 l 799 989 l -17 -17 l -165 -17 z "},"∙":{"ha":306,"x_min":133,"x_max":344,"o":"m 224 378 q 158 404 183 378 q 133 468 133 431 q 168 557 133 521 q 251 593 203 593 q 319 567 293 593 q 344 503 344 540 q 310 414 344 450 q 224 378 275 378 z "},"√":{"ha":754,"x_min":144,"x_max":885,"o":"m 885 972 l 431 0 l 306 0 l 144 482 l 306 482 l 386 229 l 722 972 l 885 972 z "},"∞":{"ha":1342,"x_min":126,"x_max":1385,"o":"m 399 160 q 204 240 282 160 q 126 443 126 321 q 237 708 126 608 q 499 807 347 807 q 675 754 606 807 q 781 622 744 701 q 922 756 838 706 q 1096 807 1006 807 q 1301 731 1218 807 q 1385 522 1385 654 q 1276 258 1385 357 q 1013 160 1167 160 q 731 342 810 160 q 399 160 586 160 m 431 311 q 686 482 563 311 q 485 654 621 654 q 342 601 401 654 q 282 458 282 547 q 323 352 282 393 q 431 311 364 311 m 1026 311 q 1169 365 1110 311 q 1229 503 1229 418 q 1188 613 1229 572 q 1079 654 1146 654 q 824 482 951 654 q 1026 311 890 311 z "},"∫":{"ha":567,"x_min":25,"x_max":681,"o":"m 164 -194 q 25 -161 86 -194 l 47 -33 q 142 -56 107 -56 q 208 3 200 -56 l 353 821 q 544 989 382 989 q 681 954 621 989 l 657 826 q 564 850 600 850 q 499 792 510 850 l 356 -28 q 164 -194 325 -194 z "},"≈":{"ha":840,"x_min":174,"x_max":829,"o":"m 174 510 q 221 676 174 610 q 365 743 268 743 q 515 704 431 743 q 632 665 599 665 q 707 743 700 665 l 829 743 q 782 576 829 642 q 638 510 735 510 q 488 549 574 510 q 371 588 403 588 q 296 510 303 588 l 174 510 m 174 211 q 221 378 174 311 q 365 444 268 444 q 515 406 431 444 q 632 367 599 367 q 707 444 700 367 l 829 444 q 782 277 829 343 q 638 211 735 211 q 488 250 574 211 q 371 289 403 289 q 296 211 303 289 l 174 211 z "},"≠":{"ha":840,"x_min":190,"x_max":819,"o":"m 490 256 l 440 142 l 268 142 l 318 256 l 190 256 l 190 411 l 389 411 l 449 542 l 190 542 l 190 697 l 518 697 l 572 818 l 744 818 l 690 697 l 819 697 l 819 542 l 619 542 l 561 411 l 819 411 l 819 256 l 490 256 z "},"≤":{"ha":840,"x_min":190,"x_max":818,"o":"m 818 229 l 190 467 l 190 599 l 818 836 l 818 678 l 403 533 l 818 388 l 818 229 m 190 0 l 190 154 l 818 154 l 818 0 l 190 0 z "},"≥":{"ha":840,"x_min":186,"x_max":814,"o":"m 186 229 l 186 388 l 601 533 l 186 678 l 186 836 l 814 599 l 814 467 l 186 229 m 186 0 l 186 154 l 814 154 l 814 0 l 186 0 z "},"◊":{"ha":806,"x_min":160,"x_max":818,"o":"m 340 -17 l 160 486 l 518 989 l 638 989 l 818 486 l 460 -17 l 340 -17 m 550 793 l 321 475 l 426 182 l 657 499 l 550 793 z "},"◌":{"ha":858,"x_min":146,"x_max":888,"o":"m 486 794 q 481 800 486 794 q 475 825 475 806 q 487 857 475 844 q 517 869 499 869 q 547 857 535 869 q 558 825 558 844 q 547 794 558 806 q 517 783 536 783 q 486 794 497 783 m 349 800 q 360 832 349 819 q 392 844 372 844 q 422 832 410 844 q 433 800 433 819 q 422 770 433 782 q 392 758 410 758 q 361 770 374 758 q 349 800 349 782 m 610 770 q 605 776 610 770 q 599 800 599 782 q 611 831 599 818 q 640 843 624 843 q 672 831 660 843 q 685 800 685 819 q 672 770 685 782 q 640 758 660 758 q 610 770 622 758 m 243 731 q 255 760 243 749 q 286 772 267 772 q 317 761 306 772 q 328 731 328 750 q 317 699 328 711 q 286 688 306 688 q 255 699 267 688 q 243 731 243 711 m 717 699 q 711 705 717 699 q 706 731 706 711 q 717 761 706 750 q 747 772 728 772 q 778 760 767 772 q 790 731 790 749 q 778 699 790 711 q 747 688 767 688 q 717 699 728 688 m 788 594 q 782 600 788 594 q 776 624 776 606 q 788 655 776 642 q 818 668 800 668 q 849 655 836 668 q 861 624 861 642 q 849 594 861 606 q 818 582 836 582 q 788 594 800 582 m 185 593 q 178 599 185 593 q 172 624 172 606 q 185 654 172 642 q 215 667 197 667 q 246 654 233 667 q 258 624 258 642 q 245 593 258 606 q 215 581 232 581 q 185 593 197 581 m 146 499 q 158 530 146 518 q 190 542 171 542 q 221 530 210 542 q 232 499 232 518 q 220 469 232 481 q 190 457 208 457 q 158 469 171 457 q 146 499 146 481 m 801 499 q 813 530 801 518 q 843 542 824 542 q 874 530 861 542 q 888 499 888 518 q 874 469 888 481 q 843 457 861 457 q 813 469 825 457 q 801 499 801 481 m 185 343 q 178 349 185 343 q 172 374 172 356 q 185 404 172 392 q 215 417 197 417 q 245 404 233 417 q 257 374 257 392 q 245 343 257 356 q 215 331 233 331 q 185 343 197 331 m 775 375 q 788 405 775 393 q 818 417 800 417 q 849 405 836 417 q 861 375 861 393 q 849 344 861 356 q 818 332 836 332 q 788 344 800 332 q 775 375 775 356 m 255 238 q 249 244 255 238 q 243 268 243 250 q 255 299 243 286 q 286 311 267 311 q 316 299 304 311 q 328 268 328 288 q 317 238 328 250 q 286 226 306 226 q 255 238 267 226 m 706 268 q 717 299 706 288 q 747 311 729 311 q 778 299 767 311 q 790 268 790 286 q 778 238 790 250 q 747 226 767 226 q 717 238 728 226 q 706 268 706 250 m 349 199 q 361 228 349 217 q 393 240 374 240 q 423 228 411 240 q 435 199 435 217 q 422 167 435 181 q 393 154 410 154 q 361 167 374 154 q 349 199 349 179 m 612 167 q 606 173 612 167 q 600 197 600 179 q 612 228 600 215 q 642 240 624 240 q 673 228 661 240 q 685 197 685 217 q 673 166 685 178 q 642 154 661 154 q 612 167 624 154 m 487 141 q 481 147 487 141 q 475 172 475 153 q 487 203 475 192 q 517 215 499 215 q 547 203 535 215 q 558 172 558 192 q 547 141 558 153 q 517 129 535 129 q 487 141 499 129 z "},"":{"ha":0,"x_min":-257,"x_max":-17,"o":"m -17 1014 l -19 999 q -215 665 -56 803 l -257 703 q -205 831 -232 742 q -161 1014 -178 919 l -17 1014 z "},"ﬁ":{"ha":815,"x_min":135,"x_max":888,"o":"m 782 810 q 726 832 749 810 q 704 888 704 854 q 736 965 704 932 q 807 997 768 997 q 865 975 843 997 q 888 919 888 953 q 856 842 888 875 q 782 810 824 810 m 393 569 l 292 0 l 135 0 l 235 569 l 136 569 l 161 710 l 260 710 l 279 824 q 350 953 296 915 q 474 992 404 992 q 610 954 542 992 l 586 824 q 493 847 533 847 q 432 790 443 847 l 417 710 l 561 710 l 536 569 l 393 569 m 560 0 l 685 710 l 843 710 l 718 0 l 560 0 z "},"ﬂ":{"ha":826,"x_min":135,"x_max":896,"o":"m 561 0 l 728 947 l 896 1003 l 718 0 l 561 0 m 393 569 l 292 0 l 135 0 l 235 569 l 136 569 l 161 710 l 260 710 l 279 824 q 350 953 296 915 q 474 992 404 992 q 610 954 542 992 l 586 824 q 493 847 533 847 q 432 790 443 847 l 417 710 l 561 710 l 536 569 l 393 569 z "}}}
